G04*
G04 #@! TF.GenerationSoftware,Altium Limited,Altium Designer,23.6.0 (18)*
G04*
G04 Layer_Physical_Order=1*
G04 Layer_Color=255*
%FSLAX25Y25*%
%MOIN*%
G70*
G04*
G04 #@! TF.SameCoordinates,CC12AEB3-2111-4EF4-9384-BB861815B030*
G04*
G04*
G04 #@! TF.FilePolarity,Positive*
G04*
G01*
G75*
%ADD10C,0.00600*%
%ADD14C,0.01200*%
%ADD15C,0.01000*%
%ADD16C,0.00800*%
%ADD26R,0.03937X0.05906*%
%ADD27R,0.01200X0.04700*%
%ADD28R,0.04700X0.01200*%
%ADD29R,0.05906X0.03937*%
%ADD30R,0.02362X0.06102*%
%ADD31R,0.01378X0.03150*%
%ADD32R,0.03347X0.01378*%
%ADD33R,0.10236X0.10630*%
%ADD34R,0.02134X0.07378*%
G04:AMPARAMS|DCode=35|XSize=73.78mil|YSize=21.34mil|CornerRadius=10.67mil|HoleSize=0mil|Usage=FLASHONLY|Rotation=90.000|XOffset=0mil|YOffset=0mil|HoleType=Round|Shape=RoundedRectangle|*
%AMROUNDEDRECTD35*
21,1,0.07378,0.00000,0,0,90.0*
21,1,0.05244,0.02134,0,0,90.0*
1,1,0.02134,0.00000,0.02622*
1,1,0.02134,0.00000,-0.02622*
1,1,0.02134,0.00000,-0.02622*
1,1,0.02134,0.00000,0.02622*
%
%ADD35ROUNDEDRECTD35*%
%ADD36R,0.04331X0.04724*%
%ADD37R,0.02756X0.11811*%
%ADD38O,0.02756X0.11811*%
G04:AMPARAMS|DCode=39|XSize=39.54mil|YSize=125.28mil|CornerRadius=17.2mil|HoleSize=0mil|Usage=FLASHONLY|Rotation=270.000|XOffset=0mil|YOffset=0mil|HoleType=Round|Shape=RoundedRectangle|*
%AMROUNDEDRECTD39*
21,1,0.03954,0.09088,0,0,270.0*
21,1,0.00514,0.12528,0,0,270.0*
1,1,0.03440,-0.04544,-0.00257*
1,1,0.03440,-0.04544,0.00257*
1,1,0.03440,0.04544,0.00257*
1,1,0.03440,0.04544,-0.00257*
%
%ADD39ROUNDEDRECTD39*%
G04:AMPARAMS|DCode=40|XSize=39.54mil|YSize=34.34mil|CornerRadius=17.17mil|HoleSize=0mil|Usage=FLASHONLY|Rotation=270.000|XOffset=0mil|YOffset=0mil|HoleType=Round|Shape=RoundedRectangle|*
%AMROUNDEDRECTD40*
21,1,0.03954,0.00000,0,0,270.0*
21,1,0.00520,0.03434,0,0,270.0*
1,1,0.03434,0.00000,-0.00260*
1,1,0.03434,0.00000,0.00260*
1,1,0.03434,0.00000,0.00260*
1,1,0.03434,0.00000,-0.00260*
%
%ADD40ROUNDEDRECTD40*%
%ADD41R,0.03434X0.03954*%
%ADD42R,0.11811X0.02756*%
%ADD43O,0.11811X0.02756*%
%ADD44R,0.03740X0.08268*%
%ADD45R,0.21654X0.25591*%
%ADD46R,0.06693X0.09843*%
%ADD47R,0.03898X0.01181*%
%ADD48R,0.04528X0.02362*%
%ADD49R,0.04528X0.01181*%
%ADD50R,0.07480X0.04331*%
%ADD51R,0.05118X0.04134*%
%ADD52R,0.02559X0.02756*%
%ADD53R,0.09843X0.06693*%
%ADD73C,0.02559*%
G04:AMPARAMS|DCode=74|XSize=39.37mil|YSize=82.68mil|CornerRadius=19.68mil|HoleSize=0mil|Usage=FLASHONLY|Rotation=270.000|XOffset=0mil|YOffset=0mil|HoleType=Round|Shape=RoundedRectangle|*
%AMROUNDEDRECTD74*
21,1,0.03937,0.04331,0,0,270.0*
21,1,0.00000,0.08268,0,0,270.0*
1,1,0.03937,-0.02165,0.00000*
1,1,0.03937,-0.02165,0.00000*
1,1,0.03937,0.02165,0.00000*
1,1,0.03937,0.02165,0.00000*
%
%ADD74ROUNDEDRECTD74*%
G04:AMPARAMS|DCode=75|XSize=39.37mil|YSize=70.87mil|CornerRadius=19.68mil|HoleSize=0mil|Usage=FLASHONLY|Rotation=270.000|XOffset=0mil|YOffset=0mil|HoleType=Round|Shape=RoundedRectangle|*
%AMROUNDEDRECTD75*
21,1,0.03937,0.03150,0,0,270.0*
21,1,0.00000,0.07087,0,0,270.0*
1,1,0.03937,-0.01575,0.00000*
1,1,0.03937,-0.01575,0.00000*
1,1,0.03937,0.01575,0.00000*
1,1,0.03937,0.01575,0.00000*
%
%ADD75ROUNDEDRECTD75*%
%ADD83C,0.01723*%
%ADD84C,0.01600*%
%ADD85C,0.07000*%
%ADD86R,0.07000X0.07000*%
%ADD87C,0.12598*%
%ADD88R,0.07000X0.07000*%
%ADD89R,0.05906X0.05906*%
%ADD90C,0.05906*%
%ADD91R,0.15748X0.07087*%
%ADD92R,0.07087X0.15748*%
%ADD93C,0.07087*%
%ADD94R,0.07087X0.07087*%
%ADD95C,0.02000*%
%ADD96C,0.04000*%
%ADD97C,0.01968*%
G36*
X180008Y447869D02*
X495303D01*
X495334Y447875D01*
X496178Y447764D01*
X496993Y447426D01*
X497668Y446908D01*
X497685Y446882D01*
X497711Y446865D01*
X498225Y446195D01*
X498560Y445387D01*
X498611Y444998D01*
X498664Y444520D01*
Y444042D01*
X498664Y444020D01*
X498667Y336536D01*
X498205Y336345D01*
X496853Y337697D01*
X496390Y338006D01*
X495844Y338115D01*
X495844Y338115D01*
X476090D01*
X475899Y338577D01*
X479038Y341716D01*
X479538Y341509D01*
X479805Y340867D01*
X480367Y340304D01*
X481102Y340000D01*
X481898D01*
X482633Y340304D01*
X483195Y340867D01*
X483500Y341602D01*
Y341981D01*
X485091Y343572D01*
X486027D01*
X486110Y343263D01*
X486702Y342237D01*
X487540Y341399D01*
X488566Y340807D01*
X489711Y340500D01*
X490896D01*
X492040Y340807D01*
X493066Y341399D01*
X493904Y342237D01*
X494497Y343263D01*
X494803Y344408D01*
Y345592D01*
X494497Y346737D01*
X493904Y347763D01*
X493066Y348601D01*
X492040Y349193D01*
X490896Y349500D01*
X489711D01*
X488566Y349193D01*
X487540Y348601D01*
X486702Y347763D01*
X486110Y346737D01*
X486027Y346427D01*
X484500D01*
X484446Y346417D01*
X484199Y346877D01*
X488289Y350967D01*
X488566Y350807D01*
X489711Y350500D01*
X490896D01*
X492040Y350807D01*
X493066Y351399D01*
X493904Y352237D01*
X494497Y353263D01*
X494803Y354408D01*
Y355592D01*
X494497Y356737D01*
X493904Y357763D01*
X493066Y358601D01*
X492040Y359193D01*
X490896Y359500D01*
X489711D01*
X488566Y359193D01*
X487540Y358601D01*
X486702Y357763D01*
X486110Y356737D01*
X485803Y355592D01*
Y354408D01*
X486110Y353263D01*
X486270Y352986D01*
X472412Y339127D01*
X467103D01*
X466911Y339589D01*
X488289Y360967D01*
X488566Y360807D01*
X489711Y360500D01*
X490896D01*
X492040Y360807D01*
X493066Y361399D01*
X493904Y362237D01*
X494497Y363263D01*
X494803Y364407D01*
Y365592D01*
X494497Y366737D01*
X493904Y367763D01*
X493066Y368601D01*
X493082Y369131D01*
X497300Y373349D01*
X497609Y373812D01*
X497718Y374358D01*
X497718Y374358D01*
Y419530D01*
X497718Y419530D01*
X497609Y420077D01*
X497300Y420540D01*
X486877Y430962D01*
X486414Y431272D01*
X485868Y431380D01*
X485868Y431380D01*
X471138D01*
X465033Y437486D01*
X465193Y437763D01*
X465500Y438907D01*
Y440092D01*
X465193Y441237D01*
X464601Y442263D01*
X463763Y443101D01*
X462737Y443693D01*
X461592Y444000D01*
X460408D01*
X459263Y443693D01*
X458237Y443101D01*
X457399Y442263D01*
X456807Y441237D01*
X456500Y440092D01*
Y438907D01*
X456807Y437763D01*
X457399Y436737D01*
X458237Y435899D01*
X459263Y435307D01*
X460408Y435000D01*
X461592D01*
X462737Y435307D01*
X463014Y435467D01*
X467939Y430542D01*
X467748Y430080D01*
X462438D01*
X455033Y437486D01*
X455193Y437763D01*
X455500Y438907D01*
Y440092D01*
X455193Y441237D01*
X454601Y442263D01*
X453763Y443101D01*
X452737Y443693D01*
X451592Y444000D01*
X450408D01*
X449263Y443693D01*
X448237Y443101D01*
X447399Y442263D01*
X446807Y441237D01*
X446500Y440092D01*
Y438907D01*
X446807Y437763D01*
X447399Y436737D01*
X448237Y435899D01*
X449263Y435307D01*
X450408Y435000D01*
X451592D01*
X452737Y435307D01*
X453014Y435467D01*
X460838Y427643D01*
X460838Y427643D01*
X461301Y427334D01*
X461847Y427225D01*
X461847Y427225D01*
X484738D01*
X492002Y419962D01*
X491810Y419500D01*
X485803D01*
Y415010D01*
X395108D01*
Y416205D01*
X394947Y417011D01*
X394490Y417695D01*
X393807Y418152D01*
X393000Y418313D01*
X392193Y418152D01*
X391510Y417695D01*
X391053Y417011D01*
X390892Y416205D01*
Y410961D01*
X391053Y410154D01*
X391510Y409471D01*
X391573Y409429D01*
Y408695D01*
X391100Y408222D01*
X390721D01*
X389985Y407918D01*
X389423Y407355D01*
X389118Y406620D01*
Y405824D01*
X389423Y405089D01*
X389985Y404527D01*
X390721Y404222D01*
X391516D01*
X392251Y404527D01*
X392814Y405089D01*
X393118Y405824D01*
Y406204D01*
X394009Y407094D01*
X394009Y407094D01*
X394319Y407558D01*
X394427Y408104D01*
Y409429D01*
X394490Y409471D01*
X394947Y410154D01*
X395108Y410961D01*
Y412155D01*
X485803D01*
Y410500D01*
X493563D01*
Y408757D01*
X493101Y408566D01*
X493066Y408601D01*
X492040Y409193D01*
X490896Y409500D01*
X489711D01*
X488566Y409193D01*
X487540Y408601D01*
X486702Y407763D01*
X486110Y406737D01*
X485803Y405592D01*
Y404408D01*
X486110Y403263D01*
X486702Y402237D01*
X487540Y401399D01*
X488566Y400807D01*
X489711Y400500D01*
X490896D01*
X492040Y400807D01*
X493066Y401399D01*
X493101Y401434D01*
X493563Y401243D01*
Y398757D01*
X493101Y398566D01*
X493066Y398601D01*
X492040Y399193D01*
X490896Y399500D01*
X489711D01*
X488566Y399193D01*
X487540Y398601D01*
X486702Y397763D01*
X486110Y396737D01*
X485803Y395592D01*
Y394408D01*
X486110Y393263D01*
X486702Y392237D01*
X487540Y391399D01*
X488566Y390807D01*
X489711Y390500D01*
X490896D01*
X492040Y390807D01*
X493066Y391399D01*
X493101Y391434D01*
X493563Y391243D01*
Y388757D01*
X493101Y388566D01*
X493066Y388601D01*
X492040Y389193D01*
X490896Y389500D01*
X489711D01*
X488566Y389193D01*
X487540Y388601D01*
X486702Y387763D01*
X486110Y386737D01*
X485803Y385592D01*
Y384408D01*
X486110Y383263D01*
X486702Y382237D01*
X487540Y381399D01*
X488566Y380807D01*
X489711Y380500D01*
X490896D01*
X492040Y380807D01*
X493066Y381399D01*
X493101Y381434D01*
X493563Y381243D01*
Y380279D01*
X492318Y379033D01*
X492040Y379193D01*
X490896Y379500D01*
X489711D01*
X488566Y379193D01*
X487540Y378601D01*
X486702Y377763D01*
X486110Y376737D01*
X485803Y375592D01*
Y374408D01*
X486110Y373263D01*
X486270Y372986D01*
X455712Y342427D01*
X416096D01*
X415660Y342719D01*
X415114Y342827D01*
X415114Y342827D01*
X375401D01*
X375133Y343095D01*
X374398Y343400D01*
X373602D01*
X372867Y343095D01*
X372305Y342533D01*
X372000Y341798D01*
Y341002D01*
X372305Y340267D01*
X372380Y340191D01*
X372173Y339691D01*
X366200D01*
X366101Y340191D01*
X366133Y340205D01*
X366695Y340767D01*
X367000Y341502D01*
Y342298D01*
X367167Y342547D01*
X368240D01*
Y346500D01*
Y350453D01*
X366427D01*
Y352047D01*
X368240D01*
Y356000D01*
X368740D01*
Y356500D01*
X371709D01*
Y359565D01*
X372209Y359773D01*
X383491Y348491D01*
X383491Y348491D01*
X383954Y348181D01*
X384500Y348073D01*
X450599D01*
X450867Y347804D01*
X451602Y347500D01*
X452398D01*
X453133Y347804D01*
X453695Y348367D01*
X454000Y349102D01*
Y349898D01*
X453695Y350633D01*
X453133Y351196D01*
X452398Y351500D01*
X451602D01*
X450867Y351196D01*
X450599Y350927D01*
X443850D01*
X443751Y351427D01*
X443897Y351488D01*
X444459Y352050D01*
X444764Y352786D01*
Y353581D01*
X444459Y354316D01*
X443897Y354879D01*
X443161Y355183D01*
X442366D01*
X441631Y354879D01*
X441567Y354815D01*
X431992D01*
X390317Y396490D01*
X389788Y396843D01*
X389164Y396968D01*
X361449D01*
X361237Y397467D01*
X361500Y398102D01*
Y398898D01*
X361195Y399633D01*
X360633Y400196D01*
X359898Y400500D01*
X359630D01*
X359427Y400702D01*
Y409429D01*
X359490Y409471D01*
X359947Y410154D01*
X360108Y410961D01*
Y416205D01*
X359947Y417011D01*
X359490Y417695D01*
X358807Y418152D01*
X358000Y418313D01*
X357193Y418152D01*
X356510Y417695D01*
X356053Y417011D01*
X355892Y416205D01*
Y410961D01*
X356053Y410154D01*
X356510Y409471D01*
X356573Y409429D01*
Y400111D01*
X356573Y400111D01*
X356681Y399565D01*
X356991Y399102D01*
X357500Y398593D01*
Y398102D01*
X357763Y397467D01*
X357551Y396968D01*
X352578D01*
X352514Y397032D01*
X351779Y397336D01*
X350984D01*
X350249Y397032D01*
X349686Y396469D01*
X349381Y395734D01*
Y395643D01*
X347346Y393608D01*
X346993Y393079D01*
X346869Y392455D01*
Y391709D01*
X344547D01*
Y385772D01*
X352453D01*
Y387313D01*
X356669D01*
X361487Y382495D01*
X361053Y381846D01*
X360892Y381039D01*
Y375795D01*
X361053Y374989D01*
X361510Y374305D01*
X362193Y373848D01*
X362551Y373777D01*
X362716Y373234D01*
X360250Y370769D01*
X359941Y370306D01*
X359832Y369760D01*
X359832Y369760D01*
Y359953D01*
X358291D01*
Y357934D01*
X357791Y357727D01*
X355509Y360009D01*
X355467Y360639D01*
X355696Y360867D01*
X356000Y361602D01*
Y362398D01*
X355696Y363133D01*
X355133Y363696D01*
X354398Y364000D01*
X353602D01*
X352867Y363696D01*
X352599Y363427D01*
X351793D01*
X351601Y363889D01*
X359009Y371297D01*
X359009Y371297D01*
X359319Y371760D01*
X359427Y372307D01*
X359427Y372307D01*
Y373728D01*
X360067D01*
Y383106D01*
X355933D01*
Y379844D01*
X354417D01*
X354417Y379844D01*
X353871Y379736D01*
X353408Y379426D01*
X353408Y379426D01*
X352915Y378933D01*
X352453Y379125D01*
Y380760D01*
X349000D01*
Y378291D01*
X351619D01*
X351811Y377829D01*
X349056Y375075D01*
X349014Y375116D01*
X348279Y375421D01*
X347483D01*
X346748Y375116D01*
X346186Y374554D01*
X345881Y373819D01*
Y373023D01*
X346186Y372288D01*
X346748Y371725D01*
X347483Y371421D01*
X348279D01*
X349014Y371725D01*
X349282Y371993D01*
X349421D01*
X349421Y371993D01*
X349967Y372102D01*
X350430Y372411D01*
X355008Y376990D01*
X355933D01*
Y373728D01*
X356573D01*
Y372898D01*
X355924Y372250D01*
X355369Y372402D01*
X355158Y372912D01*
X354595Y373475D01*
X353860Y373779D01*
X353064D01*
X352329Y373475D01*
X351767Y372912D01*
X351462Y372177D01*
Y371798D01*
X343962Y364297D01*
X343458Y364500D01*
X343196Y365133D01*
X342633Y365696D01*
X341898Y366000D01*
X341102D01*
X340367Y365696D01*
X339805Y365133D01*
X339500Y364398D01*
Y364019D01*
X328468Y352987D01*
X328006Y353178D01*
Y357719D01*
X328287Y358000D01*
X328398D01*
X329133Y358305D01*
X329696Y358867D01*
X330000Y359602D01*
Y360398D01*
X329696Y361133D01*
X329133Y361696D01*
X328974Y361761D01*
X328876Y362252D01*
X334697Y368073D01*
X341599D01*
X341867Y367805D01*
X342602Y367500D01*
X343398D01*
X344133Y367805D01*
X344695Y368367D01*
X345000Y369102D01*
Y369898D01*
X344695Y370633D01*
X344133Y371196D01*
X343398Y371500D01*
X342602D01*
X341867Y371196D01*
X341599Y370927D01*
X334106D01*
X334106Y370927D01*
X333560Y370819D01*
X333097Y370509D01*
X319664Y357077D01*
X319355Y356614D01*
X319246Y356067D01*
X319246Y356067D01*
Y349488D01*
X319073D01*
Y346138D01*
Y342788D01*
X319246D01*
Y335820D01*
X318784Y335629D01*
X317108Y337305D01*
X316645Y337614D01*
X316099Y337723D01*
X316099Y337723D01*
X312212D01*
Y339864D01*
X305899D01*
X305692Y340364D01*
X305696Y340367D01*
X306000Y341102D01*
Y341898D01*
X305696Y342633D01*
X305133Y343196D01*
X304709Y343371D01*
Y344710D01*
X315136D01*
Y342788D01*
X318336D01*
Y346138D01*
Y349488D01*
X315136D01*
Y347565D01*
X304709D01*
Y350953D01*
X303427D01*
Y353547D01*
X304969D01*
Y361453D01*
X299031D01*
Y353547D01*
X300573D01*
Y350953D01*
X298772D01*
Y343269D01*
X297362D01*
X297228Y343379D01*
Y346500D01*
X294260D01*
Y347000D01*
X293760D01*
Y350953D01*
X291291D01*
Y349169D01*
X290829Y348978D01*
X277307Y362500D01*
X292807Y378000D01*
X292898D01*
X293633Y378305D01*
X294196Y378867D01*
X294500Y379602D01*
Y380398D01*
X294196Y381133D01*
X293633Y381696D01*
X292898Y382000D01*
X292102D01*
X291367Y381696D01*
X290805Y381133D01*
X290500Y380398D01*
Y380307D01*
X275324Y365131D01*
X269209D01*
Y367453D01*
X267631D01*
Y369027D01*
X272044D01*
X272754Y369121D01*
X273416Y369395D01*
X273984Y369831D01*
X274420Y370399D01*
X274694Y371060D01*
X274787Y371771D01*
Y372285D01*
X274694Y372995D01*
X274420Y373656D01*
X273984Y374224D01*
X273416Y374660D01*
X272754Y374935D01*
X272044Y375028D01*
X269131D01*
Y395540D01*
X269438Y395775D01*
X269873Y396342D01*
X270147Y397003D01*
X270240Y397712D01*
Y398233D01*
X270147Y398942D01*
X269873Y399603D01*
X269438Y400170D01*
X269179Y400369D01*
X269349Y400869D01*
X273799D01*
Y398472D01*
X276516D01*
X279233D01*
Y400869D01*
X291263D01*
X295745Y396387D01*
X295553Y395924D01*
X293000D01*
Y393500D01*
Y391075D01*
X297028D01*
X297955Y391260D01*
X298742Y391786D01*
X299101Y392323D01*
X299709Y392423D01*
X299785Y392347D01*
X300314Y391993D01*
X300938Y391869D01*
X303594D01*
Y391122D01*
X308665D01*
Y387537D01*
X308358Y387230D01*
X308219Y387137D01*
X305442Y384361D01*
X305045Y383765D01*
X304905Y383063D01*
Y379953D01*
X303772D01*
Y372047D01*
X309709D01*
Y379953D01*
X308575D01*
Y382303D01*
X310721Y384449D01*
X310860Y384541D01*
X311798Y385479D01*
X312196Y386074D01*
X312335Y386776D01*
Y391122D01*
X317406D01*
Y391665D01*
X321289D01*
X321991Y391804D01*
X322587Y392202D01*
X336644Y406260D01*
X337106Y406069D01*
Y403634D01*
X342846D01*
Y407136D01*
X343268D01*
X343892Y407261D01*
X344421Y407614D01*
X370153Y433346D01*
X370507Y433876D01*
X370631Y434500D01*
Y435278D01*
X370737Y435307D01*
X371763Y435899D01*
X372601Y436737D01*
X373193Y437763D01*
X373222Y437868D01*
X374778D01*
X374807Y437763D01*
X375399Y436737D01*
X376237Y435899D01*
X377263Y435307D01*
X378408Y435000D01*
X379592D01*
X380737Y435307D01*
X381763Y435899D01*
X382601Y436737D01*
X383193Y437763D01*
X383500Y438907D01*
Y440092D01*
X383193Y441237D01*
X382601Y442263D01*
X381763Y443101D01*
X380737Y443693D01*
X379592Y444000D01*
X378408D01*
X377263Y443693D01*
X376237Y443101D01*
X375399Y442263D01*
X374807Y441237D01*
X374778Y441131D01*
X373222D01*
X373193Y441237D01*
X372601Y442263D01*
X371763Y443101D01*
X370737Y443693D01*
X369592Y444000D01*
X368408D01*
X367263Y443693D01*
X366237Y443101D01*
X365399Y442263D01*
X364807Y441237D01*
X364500Y440092D01*
Y438907D01*
X364807Y437763D01*
X365399Y436737D01*
X366237Y435899D01*
X366965Y435479D01*
X367060Y434867D01*
X343308Y411116D01*
X342846Y411307D01*
Y413902D01*
X337106D01*
Y410603D01*
X336557D01*
X335854Y410463D01*
X335259Y410065D01*
X320529Y395335D01*
X317406D01*
Y395878D01*
X303594D01*
Y395131D01*
X301614D01*
X293092Y403653D01*
X292563Y404007D01*
X291938Y404131D01*
X259500D01*
X258876Y404007D01*
X258347Y403653D01*
X257331Y402638D01*
X256977Y402108D01*
X256853Y401484D01*
Y400405D01*
X256547Y400170D01*
X256111Y399603D01*
X255837Y398942D01*
X255744Y398233D01*
Y397712D01*
X255794Y397329D01*
X242634Y384169D01*
X242280Y383640D01*
X242156Y383015D01*
Y375891D01*
X236453D01*
Y377228D01*
X228547D01*
Y376131D01*
X220437D01*
Y376878D01*
X215878D01*
Y372122D01*
X220437D01*
Y372869D01*
X228547D01*
Y371291D01*
X231073D01*
Y370591D01*
X228409Y367927D01*
X226901D01*
X226633Y368196D01*
X225898Y368500D01*
X225102D01*
X224367Y368196D01*
X223804Y367633D01*
X223500Y366898D01*
Y366102D01*
X223804Y365367D01*
X224367Y364805D01*
X225102Y364500D01*
X225898D01*
X226633Y364805D01*
X226901Y365073D01*
X229000D01*
X229000Y365073D01*
X229546Y365181D01*
X230009Y365491D01*
X233509Y368991D01*
X233509Y368991D01*
X233819Y369454D01*
X233927Y370000D01*
X233927Y370000D01*
Y371291D01*
X236453D01*
Y372628D01*
X243787D01*
X244412Y372753D01*
X244941Y373106D01*
X245295Y373636D01*
X245419Y374260D01*
Y382340D01*
X258102Y395022D01*
X258484Y394972D01*
X259193Y395065D01*
X259854Y395339D01*
X260422Y395775D01*
X260857Y396342D01*
X261131Y397003D01*
X261225Y397712D01*
Y398233D01*
X261131Y398942D01*
X260857Y399603D01*
X260422Y400170D01*
X260530Y400717D01*
X260675Y400869D01*
X265651D01*
X265821Y400369D01*
X265562Y400170D01*
X265127Y399603D01*
X264853Y398942D01*
X264760Y398233D01*
Y397712D01*
X264853Y397003D01*
X265127Y396342D01*
X265562Y395775D01*
X265869Y395540D01*
Y375028D01*
X262956D01*
X262246Y374935D01*
X261584Y374660D01*
X261016Y374224D01*
X260580Y373656D01*
X260306Y372995D01*
X260212Y372285D01*
Y371771D01*
X260306Y371060D01*
X260580Y370399D01*
X261016Y369831D01*
X261584Y369395D01*
X262246Y369121D01*
X262956Y369027D01*
X264369D01*
Y367453D01*
X263272D01*
Y359547D01*
X264813D01*
Y358831D01*
X262909Y356927D01*
X255500D01*
X255500Y356927D01*
X254954Y356819D01*
X254491Y356509D01*
X254491Y356509D01*
X250251Y352269D01*
X249941Y351806D01*
X249832Y351260D01*
X249832Y351260D01*
Y350453D01*
X248291D01*
Y347927D01*
X240709D01*
Y350453D01*
X234772D01*
Y342547D01*
X240709D01*
Y345073D01*
X248291D01*
Y342547D01*
X254228D01*
Y350453D01*
X253179D01*
X252972Y350953D01*
X256091Y354073D01*
X263500D01*
X263500Y354073D01*
X264046Y354181D01*
X264509Y354491D01*
X267249Y357231D01*
X267249Y357231D01*
X267559Y357694D01*
X267668Y358240D01*
X267668Y358240D01*
Y359547D01*
X269209D01*
Y361869D01*
X273324D01*
X289273Y345920D01*
Y343473D01*
X289369Y342990D01*
Y340697D01*
X289304Y340633D01*
X289000Y339898D01*
Y339892D01*
X288803Y339730D01*
X288803Y339730D01*
X287953D01*
X285700Y341984D01*
Y342364D01*
X285395Y343099D01*
X284832Y343661D01*
X284097Y343966D01*
X283302D01*
X282567Y343661D01*
X282004Y343099D01*
X281699Y342364D01*
Y341568D01*
X282004Y340833D01*
X282567Y340270D01*
X283302Y339966D01*
X283681D01*
X285462Y338185D01*
X285270Y337723D01*
X281796D01*
X277381Y342138D01*
X277588Y342638D01*
X278665D01*
Y349362D01*
X272335D01*
Y342638D01*
X274073D01*
Y342000D01*
X274073Y342000D01*
X274181Y341454D01*
X274491Y340991D01*
X279265Y336216D01*
X279074Y335754D01*
X246530D01*
X246530Y335754D01*
X245984Y335646D01*
X245521Y335336D01*
X245521Y335336D01*
X243090Y332905D01*
X242711D01*
X241976Y332600D01*
X241413Y332038D01*
X241108Y331303D01*
Y330507D01*
X241413Y329772D01*
X241976Y329209D01*
X242711Y328905D01*
X243506D01*
X244241Y329209D01*
X244804Y329772D01*
X245109Y330507D01*
Y330886D01*
X247122Y332899D01*
X293727D01*
X293919Y332437D01*
X293409Y331927D01*
X280500D01*
X280500Y331927D01*
X279954Y331819D01*
X279491Y331509D01*
X279491Y331509D01*
X278991Y331009D01*
X278681Y330546D01*
X278573Y330000D01*
X278573Y330000D01*
Y323591D01*
X277481Y322500D01*
X277102D01*
X276367Y322196D01*
X275804Y321633D01*
X275500Y320898D01*
Y320102D01*
X275804Y319367D01*
X275891Y319281D01*
X275684Y318780D01*
X266400D01*
X265673Y318636D01*
X265058Y318225D01*
X265041Y318208D01*
X235476D01*
X234342Y319342D01*
X233726Y319754D01*
X233000Y319898D01*
X228000D01*
X227781Y319854D01*
X227394Y320172D01*
Y324033D01*
X227394Y324033D01*
X227286Y324579D01*
X226976Y325042D01*
X226976Y325042D01*
X226000Y326019D01*
Y326398D01*
X225695Y327133D01*
X225133Y327695D01*
X224398Y328000D01*
X224004D01*
X223796Y328500D01*
X224269Y328973D01*
X224269Y328973D01*
X224579Y329436D01*
X224687Y329982D01*
Y330047D01*
X226228D01*
Y337953D01*
X220291D01*
Y330047D01*
X220653D01*
X220844Y329585D01*
X214860Y323601D01*
X214398Y323792D01*
Y325917D01*
Y327598D01*
X211134D01*
Y328598D01*
X214398D01*
Y330279D01*
X213698D01*
X213451Y330780D01*
X213628Y331011D01*
X213928Y331733D01*
X214030Y332508D01*
X213928Y333283D01*
X213628Y334005D01*
X213153Y334625D01*
X212532Y335101D01*
X211810Y335400D01*
X211035Y335502D01*
X206705D01*
X205930Y335400D01*
X205208Y335101D01*
X204588Y334625D01*
X204112Y334005D01*
X203813Y333283D01*
X203711Y332508D01*
X203813Y331733D01*
X204112Y331011D01*
X204588Y330391D01*
X205208Y329915D01*
X205930Y329616D01*
X206171Y329584D01*
X206239Y329071D01*
X205610Y328810D01*
X204969Y328169D01*
X204900Y328003D01*
X204410Y327905D01*
X201631Y330684D01*
Y338205D01*
X204346D01*
Y350047D01*
X195653D01*
Y338205D01*
X198369D01*
Y331500D01*
Y330008D01*
Y314928D01*
X198493Y314303D01*
X198846Y313774D01*
X205968Y306653D01*
X205870Y306162D01*
X205610Y306054D01*
X204969Y305413D01*
X204622Y304575D01*
Y303669D01*
X204969Y302831D01*
X205610Y302190D01*
X206239Y301929D01*
X206171Y301416D01*
X205930Y301384D01*
X205208Y301085D01*
X204588Y300609D01*
X204112Y299989D01*
X203813Y299267D01*
X203711Y298492D01*
X203813Y297717D01*
X204112Y296995D01*
X204588Y296375D01*
X205208Y295899D01*
X205930Y295600D01*
X206705Y295498D01*
X211035D01*
X211810Y295600D01*
X212532Y295899D01*
X213153Y296375D01*
X213628Y296995D01*
X213928Y297717D01*
X214030Y298492D01*
X213928Y299267D01*
X213628Y299989D01*
X213451Y300220D01*
X213698Y300721D01*
X214398D01*
Y302402D01*
X211134D01*
Y303402D01*
X214398D01*
Y305240D01*
X214860Y305431D01*
X222073Y298218D01*
Y297709D01*
X219547D01*
Y291772D01*
X227453D01*
Y297709D01*
X224927D01*
Y298809D01*
X224927Y298809D01*
X224819Y299355D01*
X224509Y299818D01*
X224509Y299818D01*
X214899Y309429D01*
X214436Y309738D01*
X214398Y309746D01*
Y311201D01*
X214516Y311225D01*
X215012Y311556D01*
X215767Y312311D01*
X215971Y312331D01*
X216883Y311419D01*
X217379Y311087D01*
X217965Y310971D01*
X220036D01*
X220621Y311087D01*
X221107Y311412D01*
X222740D01*
X222888Y311441D01*
X225780D01*
Y311441D01*
X226235Y311333D01*
X226247Y311274D01*
X226658Y310658D01*
X227274Y310246D01*
X228000Y310102D01*
X232000D01*
X232726Y310246D01*
X233342Y310658D01*
X234873Y312189D01*
X266748D01*
X267474Y312333D01*
X268090Y312745D01*
X268107Y312761D01*
X285726D01*
X285933Y312262D01*
X285805Y312133D01*
X285500Y311398D01*
Y310602D01*
X285805Y309867D01*
X286367Y309304D01*
X287102Y309000D01*
X287898D01*
X288633Y309304D01*
X289195Y309867D01*
X289500Y310602D01*
Y310981D01*
X289764Y311246D01*
X293074D01*
X293265Y310784D01*
X292491Y310009D01*
X292181Y309546D01*
X292073Y309000D01*
X292181Y308454D01*
X292397Y308131D01*
X292215Y307677D01*
X292175Y307631D01*
X290197D01*
X290133Y307696D01*
X289398Y308000D01*
X288602D01*
X287867Y307696D01*
X287304Y307133D01*
X287000Y306398D01*
Y305602D01*
X287304Y304867D01*
X287867Y304305D01*
X288602Y304000D01*
X289398D01*
X290133Y304305D01*
X290197Y304369D01*
X296032D01*
X296047Y304293D01*
Y303031D01*
X297309D01*
X297447Y303004D01*
X297585Y303031D01*
X303953D01*
Y307309D01*
X305512D01*
Y307136D01*
X309731D01*
X310048Y306750D01*
X310041Y306713D01*
X310041Y306713D01*
Y303591D01*
X309805Y303355D01*
X309496Y302892D01*
X309387Y302346D01*
X309387Y302346D01*
Y295586D01*
X309119Y295318D01*
X308815Y294583D01*
Y293788D01*
X308922Y293527D01*
X308588Y293027D01*
X298491D01*
X296467Y295051D01*
X296675Y295551D01*
X299500D01*
Y298020D01*
X296047D01*
Y296179D01*
X295547Y295971D01*
X290322Y301197D01*
X289859Y301506D01*
X289313Y301615D01*
X289313Y301615D01*
X281742D01*
X281408Y302115D01*
X281513Y302368D01*
Y303164D01*
X281208Y303899D01*
X280646Y304462D01*
X279911Y304766D01*
X279532D01*
X277427Y306871D01*
Y308099D01*
X277695Y308367D01*
X278000Y309102D01*
Y309898D01*
X277695Y310633D01*
X277133Y311195D01*
X276398Y311500D01*
X275602D01*
X274867Y311195D01*
X274305Y310633D01*
X274000Y309898D01*
Y309102D01*
X274305Y308367D01*
X274573Y308099D01*
Y306279D01*
X274573Y306279D01*
X274681Y305733D01*
X274991Y305270D01*
X277513Y302748D01*
Y302368D01*
X277618Y302115D01*
X277284Y301615D01*
X257687D01*
X257141Y301506D01*
X256678Y301197D01*
X256678Y301197D01*
X255014Y299533D01*
X254737Y299693D01*
X253592Y300000D01*
X252408D01*
X251263Y299693D01*
X250237Y299101D01*
X249399Y298263D01*
X248807Y297237D01*
X248500Y296092D01*
Y294907D01*
X248807Y293763D01*
X249399Y292737D01*
X250237Y291899D01*
X251263Y291307D01*
X252408Y291000D01*
X253592D01*
X254737Y291307D01*
X255763Y291899D01*
X256601Y292737D01*
X257193Y293763D01*
X257500Y294907D01*
Y296092D01*
X257193Y297237D01*
X257033Y297514D01*
X258279Y298760D01*
X259243D01*
X259434Y298298D01*
X259399Y298263D01*
X258807Y297237D01*
X258500Y296092D01*
Y294908D01*
X258807Y293763D01*
X259399Y292737D01*
X260237Y291899D01*
X261263Y291307D01*
X262408Y291000D01*
X263592D01*
X264737Y291307D01*
X265014Y291467D01*
X266491Y289991D01*
X266491Y289991D01*
X266954Y289681D01*
X267500Y289573D01*
X267500Y289573D01*
X289869D01*
Y276176D01*
X288907Y275214D01*
X288348Y275103D01*
X287819Y274750D01*
X287006Y273937D01*
X286653Y273408D01*
X286528Y272783D01*
Y261547D01*
X285481Y260500D01*
X285102D01*
X284367Y260195D01*
X283804Y259633D01*
X283500Y258898D01*
Y258102D01*
X283804Y257367D01*
X284367Y256804D01*
X285102Y256500D01*
X285898D01*
X286113Y256589D01*
X286528Y256311D01*
Y255836D01*
X277120Y246427D01*
X273083Y250464D01*
X272853Y250866D01*
X272853D01*
X272853Y250866D01*
Y256803D01*
X264947D01*
Y250866D01*
X267473D01*
Y238884D01*
X256464Y227875D01*
X254830Y229509D01*
X254367Y229819D01*
X253821Y229927D01*
X253821Y229927D01*
X252709D01*
Y232453D01*
X246772D01*
Y224547D01*
X248936D01*
X248947Y224492D01*
X249235Y224061D01*
X250381Y222915D01*
X250190Y222453D01*
X246772D01*
Y214547D01*
X252709D01*
Y217190D01*
X257709D01*
X257900Y216728D01*
X257804Y216633D01*
X257639Y216234D01*
X257038Y215942D01*
X256898Y216000D01*
X256102D01*
X255367Y215696D01*
X254804Y215133D01*
X254500Y214398D01*
Y213602D01*
X254804Y212867D01*
X255367Y212304D01*
X256102Y212000D01*
X256481D01*
X257528Y210953D01*
X257322Y210453D01*
X256272D01*
Y202547D01*
X262209D01*
Y205073D01*
X265698D01*
X265698Y205073D01*
X266244Y205181D01*
X266707Y205491D01*
X269530Y208314D01*
X269530Y208314D01*
X269840Y208777D01*
X269894Y209051D01*
X278142D01*
Y211626D01*
X278421D01*
Y212126D01*
X280110D01*
Y212890D01*
X283949D01*
Y215076D01*
X285047D01*
Y210512D01*
X292073D01*
Y208968D01*
X289500D01*
Y206000D01*
Y203031D01*
X292073D01*
Y188186D01*
X291763Y188103D01*
X290737Y187510D01*
X289899Y186673D01*
X289307Y185646D01*
X289000Y184502D01*
Y183317D01*
X289307Y182173D01*
X289899Y181146D01*
X290737Y180309D01*
X291763Y179716D01*
X292908Y179410D01*
X294092D01*
X295237Y179716D01*
X296263Y180309D01*
X297101Y181146D01*
X297693Y182173D01*
X298000Y183317D01*
Y184502D01*
X297693Y185646D01*
X297101Y186673D01*
X296263Y187510D01*
X295237Y188103D01*
X294927Y188186D01*
Y227591D01*
X295427Y227780D01*
X296102Y227500D01*
X296898D01*
X297633Y227804D01*
X298196Y228367D01*
X298500Y229102D01*
Y229481D01*
X300000Y230981D01*
X302073Y228909D01*
Y188186D01*
X301763Y188103D01*
X300737Y187510D01*
X299899Y186673D01*
X299307Y185646D01*
X299000Y184502D01*
Y183317D01*
X299307Y182173D01*
X299899Y181147D01*
X300737Y180309D01*
X301763Y179716D01*
X302908Y179410D01*
X304093D01*
X305237Y179716D01*
X306263Y180309D01*
X307101Y181147D01*
X307693Y182173D01*
X308000Y183317D01*
Y184502D01*
X307693Y185646D01*
X307101Y186673D01*
X306263Y187510D01*
X305237Y188103D01*
X304927Y188186D01*
Y229500D01*
X304927Y229500D01*
X304819Y230046D01*
X304509Y230509D01*
X304509Y230509D01*
X301009Y234009D01*
X301009Y234009D01*
X300759Y234259D01*
X300759Y234259D01*
X299697Y235322D01*
Y235701D01*
X299393Y236436D01*
X298830Y236999D01*
X298671Y237064D01*
X298573Y237555D01*
X301825Y240807D01*
X301825Y240807D01*
X302135Y241270D01*
X302190Y241547D01*
X304228D01*
Y249453D01*
X302687D01*
Y259791D01*
X305453D01*
Y265728D01*
X297547D01*
Y259791D01*
X299832D01*
Y249453D01*
X298291D01*
Y241547D01*
X298291Y241547D01*
X298291D01*
X298102Y241121D01*
X292491Y235509D01*
X292491Y235509D01*
X283091Y226110D01*
X280110D01*
Y226874D01*
X278421D01*
Y227374D01*
X278142D01*
Y229949D01*
X269904D01*
Y230134D01*
X269803Y230642D01*
X269516Y231072D01*
X268650Y231937D01*
X268220Y232225D01*
X267713Y232326D01*
X267503D01*
X267133Y232696D01*
X266398Y233000D01*
X266280D01*
X266088Y233462D01*
X269909Y237283D01*
X270219Y237746D01*
X270327Y238293D01*
X270327Y238293D01*
Y247952D01*
X270789Y248144D01*
X276013Y242919D01*
Y242829D01*
X276318Y242094D01*
X276881Y241531D01*
X277616Y241227D01*
X278411D01*
X279146Y241531D01*
X279709Y242094D01*
X280013Y242829D01*
Y243624D01*
X280000Y243657D01*
X280278Y244073D01*
X282791D01*
Y241547D01*
X288728D01*
Y249453D01*
X285413D01*
X285222Y249915D01*
X289313Y254006D01*
X289667Y254536D01*
X289791Y255160D01*
Y259791D01*
X291813D01*
Y249453D01*
X290272D01*
Y241547D01*
X290272D01*
X290384Y241047D01*
X290299Y240875D01*
X289867Y240696D01*
X289304Y240133D01*
X289000Y239398D01*
Y238602D01*
X289304Y237867D01*
X289867Y237304D01*
X290602Y237000D01*
X291398D01*
X292133Y237304D01*
X292695Y237867D01*
X293000Y238602D01*
Y239306D01*
X294250Y240556D01*
X294250Y240556D01*
X294559Y241019D01*
X294664Y241547D01*
X296209D01*
Y249453D01*
X294668D01*
Y259791D01*
X296453D01*
Y265728D01*
X289791D01*
Y267272D01*
X296453D01*
Y273209D01*
X294881D01*
X294689Y273671D01*
X295891Y274873D01*
X300799D01*
X300991Y274411D01*
X300529Y273949D01*
X300220Y273486D01*
X300165Y273209D01*
X297547D01*
Y267272D01*
X305453D01*
Y273209D01*
X305781Y273573D01*
X313220D01*
X313220Y273573D01*
X313766Y273681D01*
X314229Y273991D01*
X324110Y283871D01*
X324991Y282991D01*
X324991Y282991D01*
X325454Y282681D01*
X326000Y282573D01*
X330047D01*
Y280760D01*
X337953D01*
Y281819D01*
X338369Y282097D01*
X338602Y282000D01*
X339398D01*
X339557Y282066D01*
X339973Y281788D01*
Y278905D01*
X339349Y278281D01*
X339039Y277818D01*
X338931Y277272D01*
X338931Y277272D01*
Y269105D01*
X338431Y268898D01*
X338133Y269196D01*
X337398Y269500D01*
X336602D01*
X335867Y269196D01*
X335304Y268633D01*
X335000Y267898D01*
Y267102D01*
X335304Y266367D01*
X335573Y266099D01*
Y255591D01*
X333481Y253500D01*
X333102D01*
X332367Y253196D01*
X331804Y252633D01*
X331500Y251898D01*
Y251102D01*
X331804Y250367D01*
X332367Y249804D01*
X333102Y249500D01*
X333898D01*
X334633Y249804D01*
X335195Y250367D01*
X335500Y251102D01*
Y251481D01*
X338009Y253991D01*
X338009Y253991D01*
X338319Y254454D01*
X338427Y255000D01*
X338427Y255000D01*
Y265563D01*
X338431Y265565D01*
X338931Y265298D01*
Y250622D01*
X336942Y248633D01*
X336907D01*
X336172Y248328D01*
X335609Y247766D01*
X335304Y247031D01*
Y246235D01*
X335609Y245500D01*
X336172Y244937D01*
X336907Y244633D01*
X337702D01*
X338437Y244937D01*
X339000Y245500D01*
X339304Y246235D01*
Y246958D01*
X339857Y247511D01*
X340319Y247319D01*
Y239949D01*
X344186D01*
X344369Y239949D01*
X344633Y239920D01*
X344916Y239546D01*
X343538Y238168D01*
X336953D01*
Y239709D01*
X329047D01*
Y238168D01*
X326953D01*
Y239709D01*
X323434D01*
X323379Y239986D01*
X323069Y240449D01*
X323069Y240449D01*
X317009Y246509D01*
X316546Y246819D01*
X316000Y246927D01*
X316000Y246927D01*
X311709D01*
Y249453D01*
X310168D01*
Y251260D01*
X310168Y251260D01*
X310059Y251806D01*
X309750Y252269D01*
X309750Y252269D01*
X309000Y253019D01*
Y253398D01*
X308696Y254133D01*
X308133Y254696D01*
X307398Y255000D01*
X306602D01*
X305867Y254696D01*
X305305Y254133D01*
X305000Y253398D01*
Y252602D01*
X305305Y251867D01*
X305867Y251305D01*
X306602Y251000D01*
X306981D01*
X307313Y250669D01*
Y249453D01*
X305772D01*
Y241547D01*
X311709D01*
Y244073D01*
X315409D01*
X319311Y240171D01*
X319119Y239709D01*
X319047D01*
Y233772D01*
X326953D01*
Y235313D01*
X329047D01*
Y233772D01*
X336953D01*
Y235313D01*
X344129D01*
X344129Y235313D01*
X344675Y235421D01*
X345138Y235731D01*
X348509Y239102D01*
X348509Y239102D01*
X348819Y239565D01*
X348895Y239949D01*
X349681D01*
Y248051D01*
X345319D01*
Y240163D01*
X345181Y240087D01*
X344681Y240381D01*
X344681Y248051D01*
X343895D01*
X343819Y248435D01*
X343727Y248573D01*
X343764Y248726D01*
X343994Y249073D01*
X354297D01*
X354916Y248454D01*
X354633Y248080D01*
X354369Y248051D01*
X354210Y248051D01*
X353000D01*
Y244500D01*
X354681D01*
Y247556D01*
X354681Y247619D01*
X355181Y247914D01*
X355319Y247837D01*
Y239949D01*
X359681D01*
Y248051D01*
X358895D01*
X358819Y248435D01*
X358509Y248898D01*
X358509Y248898D01*
X355898Y251509D01*
X355435Y251819D01*
X354889Y251927D01*
X354889Y251927D01*
X343754D01*
Y259710D01*
X344254Y259917D01*
X344367Y259805D01*
X345102Y259500D01*
X345898D01*
X346633Y259805D01*
X347196Y260367D01*
X347500Y261102D01*
Y261898D01*
X347196Y262633D01*
X346633Y263195D01*
X345898Y263500D01*
X345519D01*
X344433Y264585D01*
X344666Y265060D01*
X345290D01*
X346026Y265364D01*
X346588Y265927D01*
X346893Y266662D01*
Y267041D01*
X348424Y268573D01*
X367031D01*
X367037Y268570D01*
X367077Y268500D01*
X366785Y268000D01*
X366602D01*
X365867Y267695D01*
X365304Y267133D01*
X365000Y266398D01*
Y265602D01*
X365304Y264867D01*
X365867Y264304D01*
X366602Y264000D01*
X366981D01*
X426073Y204909D01*
Y188186D01*
X425763Y188103D01*
X424737Y187510D01*
X423899Y186672D01*
X423307Y185646D01*
X423000Y184502D01*
Y183317D01*
X423307Y182173D01*
X423899Y181146D01*
X424737Y180308D01*
X425763Y179716D01*
X426908Y179409D01*
X428092D01*
X429237Y179716D01*
X430263Y180308D01*
X431101Y181146D01*
X431693Y182173D01*
X432000Y183317D01*
Y184502D01*
X431693Y185646D01*
X431101Y186672D01*
X430263Y187510D01*
X429237Y188103D01*
X428927Y188186D01*
Y205500D01*
X428927Y205500D01*
X428819Y206046D01*
X428509Y206509D01*
X387665Y247354D01*
X387842Y247884D01*
X388066Y247915D01*
X436073Y199909D01*
Y188186D01*
X435763Y188103D01*
X434737Y187510D01*
X433899Y186672D01*
X433307Y185646D01*
X433000Y184502D01*
Y183317D01*
X433307Y182173D01*
X433899Y181146D01*
X434737Y180308D01*
X435763Y179716D01*
X436908Y179409D01*
X438093D01*
X439237Y179716D01*
X440263Y180308D01*
X441101Y181146D01*
X441693Y182173D01*
X442000Y183317D01*
Y184502D01*
X441693Y185646D01*
X441101Y186672D01*
X440263Y187510D01*
X439237Y188103D01*
X438927Y188186D01*
Y199810D01*
X439389Y200001D01*
X441929Y197462D01*
X441738Y197000D01*
X441602D01*
X440867Y196695D01*
X440305Y196133D01*
X440000Y195398D01*
Y194602D01*
X440305Y193867D01*
X440867Y193305D01*
X441602Y193000D01*
X441981D01*
X446073Y188909D01*
Y188186D01*
X445763Y188103D01*
X444737Y187510D01*
X443899Y186672D01*
X443307Y185646D01*
X443000Y184502D01*
Y183317D01*
X443307Y182173D01*
X443899Y181146D01*
X444737Y180308D01*
X445763Y179716D01*
X446908Y179409D01*
X448093D01*
X449237Y179716D01*
X450263Y180308D01*
X451101Y181146D01*
X451693Y182173D01*
X452000Y183317D01*
Y184502D01*
X451693Y185646D01*
X451101Y186672D01*
X450263Y187510D01*
X449237Y188103D01*
X448927Y188186D01*
Y189500D01*
X448864Y189820D01*
X449325Y190066D01*
X453000Y186391D01*
Y179409D01*
X462000D01*
Y188409D01*
X455019D01*
X417618Y225811D01*
X417809Y226273D01*
X452572D01*
X467644Y211200D01*
X467401Y210736D01*
X466120D01*
X464710Y210456D01*
X463381Y209906D01*
X462186Y209107D01*
X461169Y208090D01*
X460370Y206894D01*
X459820Y205566D01*
X459539Y204156D01*
Y202874D01*
X459075Y202631D01*
X439238Y222469D01*
X439500Y223102D01*
Y223898D01*
X439195Y224633D01*
X438633Y225196D01*
X437898Y225500D01*
X437102D01*
X436367Y225196D01*
X435805Y224633D01*
X435500Y223898D01*
Y223102D01*
X435805Y222367D01*
X436324Y221847D01*
X436411Y221412D01*
X436720Y220949D01*
X462728Y194941D01*
X462728Y194941D01*
X463191Y194632D01*
X463737Y194523D01*
X463738Y194523D01*
X474657D01*
X474657Y194523D01*
X475203Y194632D01*
X475666Y194941D01*
X478298Y197573D01*
X486027D01*
X486110Y197263D01*
X486702Y196237D01*
X487540Y195399D01*
X488566Y194807D01*
X489711Y194500D01*
X490896D01*
X492040Y194807D01*
X493066Y195399D01*
X493904Y196237D01*
X494496Y197263D01*
X494803Y198407D01*
Y199592D01*
X494496Y200737D01*
X493904Y201763D01*
X493066Y202601D01*
X492040Y203193D01*
X490896Y203500D01*
X489711D01*
X488566Y203193D01*
X487540Y202601D01*
X486702Y201763D01*
X486110Y200737D01*
X486027Y200427D01*
X477706D01*
X477706Y200427D01*
X477160Y200319D01*
X476697Y200009D01*
X476697Y200009D01*
X474065Y197378D01*
X471758D01*
X471602Y197878D01*
X472508Y198784D01*
X473307Y199979D01*
X473857Y201308D01*
X474138Y202718D01*
Y204156D01*
X473857Y205566D01*
X473307Y206894D01*
X473149Y207132D01*
X473384Y207573D01*
X486027D01*
X486110Y207263D01*
X486702Y206237D01*
X487540Y205399D01*
X488566Y204807D01*
X489711Y204500D01*
X490896D01*
X492040Y204807D01*
X493066Y205399D01*
X493904Y206237D01*
X494496Y207263D01*
X494803Y208407D01*
Y209592D01*
X494496Y210737D01*
X493904Y211763D01*
X493066Y212601D01*
X492040Y213193D01*
X490896Y213500D01*
X489711D01*
X488566Y213193D01*
X487540Y212601D01*
X486702Y211763D01*
X486110Y210737D01*
X486027Y210427D01*
X472455D01*
X455771Y227111D01*
X455963Y227573D01*
X486027D01*
X486110Y227263D01*
X486702Y226237D01*
X487540Y225399D01*
X488566Y224807D01*
X489711Y224500D01*
X490896D01*
X492040Y224807D01*
X493066Y225399D01*
X493904Y226237D01*
X494496Y227263D01*
X494803Y228408D01*
Y229592D01*
X494496Y230737D01*
X493904Y231763D01*
X493066Y232601D01*
X492040Y233193D01*
X490896Y233500D01*
X489711D01*
X488566Y233193D01*
X487540Y232601D01*
X486702Y231763D01*
X486110Y230737D01*
X486027Y230427D01*
X431962D01*
X431863Y230927D01*
X432134Y231040D01*
X432697Y231602D01*
X433001Y232337D01*
Y233133D01*
X432714Y233827D01*
X432784Y233962D01*
X433038Y234234D01*
X433602Y234000D01*
X434398D01*
X435133Y234304D01*
X435696Y234867D01*
X436000Y235602D01*
Y236398D01*
X435696Y237133D01*
X435133Y237696D01*
X434398Y238000D01*
X434019D01*
X420000Y252019D01*
Y252398D01*
X419696Y253133D01*
X419133Y253696D01*
X418398Y254000D01*
X417602D01*
X416867Y253696D01*
X416304Y253133D01*
X416000Y252398D01*
Y251602D01*
X416304Y250867D01*
X416867Y250305D01*
X417602Y250000D01*
X417981D01*
X432000Y235981D01*
Y235602D01*
X432287Y234908D01*
X432217Y234773D01*
X431963Y234502D01*
X431399Y234735D01*
X431293D01*
X413218Y252810D01*
Y253189D01*
X412913Y253924D01*
X412351Y254487D01*
X411615Y254792D01*
X410820D01*
X410085Y254487D01*
X409522Y253924D01*
X409218Y253189D01*
Y252394D01*
X409522Y251659D01*
X410085Y251096D01*
X410820Y250792D01*
X411199D01*
X429001Y232989D01*
Y232337D01*
X429306Y231602D01*
X429868Y231040D01*
X430139Y230927D01*
X430040Y230427D01*
X422909D01*
X422720Y230927D01*
X423000Y231602D01*
Y232398D01*
X422695Y233133D01*
X422133Y233696D01*
X421398Y234000D01*
X421019D01*
X402500Y252519D01*
Y252898D01*
X402196Y253633D01*
X401633Y254195D01*
X400898Y254500D01*
X400102D01*
X399367Y254195D01*
X398804Y253633D01*
X398500Y252898D01*
Y252374D01*
X398000Y252167D01*
X397452Y252715D01*
Y253094D01*
X397147Y253829D01*
X396585Y254392D01*
X395849Y254696D01*
X395054D01*
X394319Y254392D01*
X393756Y253829D01*
X393452Y253094D01*
Y252298D01*
X393756Y251563D01*
X394319Y251001D01*
X395054Y250696D01*
X395433D01*
X416540Y229589D01*
X416349Y229127D01*
X414568D01*
X390591Y253104D01*
X390531Y253145D01*
X390219Y253539D01*
X390339Y253829D01*
X390523Y254274D01*
Y255070D01*
X390219Y255805D01*
X389656Y256368D01*
X388921Y256672D01*
X388862D01*
X387427Y258107D01*
Y276064D01*
X387427Y276064D01*
X387319Y276610D01*
X387009Y277073D01*
X387009Y277073D01*
X384879Y279204D01*
Y279583D01*
X384575Y280318D01*
X384012Y280880D01*
X383277Y281185D01*
X382481D01*
X381746Y280880D01*
X381184Y280318D01*
X380879Y279583D01*
Y278787D01*
X381184Y278052D01*
X381746Y277489D01*
X382481Y277185D01*
X382860D01*
X384573Y275473D01*
Y259776D01*
X384111Y259585D01*
X370086Y273609D01*
X369623Y273919D01*
X369077Y274027D01*
X369077Y274027D01*
X361491D01*
X349968Y285551D01*
X350175Y286051D01*
X353000D01*
Y288520D01*
X349547D01*
Y286679D01*
X349047Y286472D01*
X347500Y288019D01*
Y288398D01*
X347196Y289133D01*
X346633Y289696D01*
X345898Y290000D01*
X345102D01*
X344627Y289803D01*
X344127Y290109D01*
Y290503D01*
X344127Y290503D01*
X344019Y291049D01*
X343754Y291445D01*
Y297512D01*
X343927D01*
Y300862D01*
X344664D01*
Y297512D01*
X344795D01*
Y297276D01*
X344836Y297247D01*
X344945Y296701D01*
X345254Y296238D01*
X345761Y295731D01*
X345761Y295731D01*
X346225Y295421D01*
X346771Y295313D01*
X349547D01*
Y293531D01*
X357453D01*
Y295313D01*
X359547D01*
Y293772D01*
X367453D01*
Y298775D01*
X367915Y298966D01*
X374573Y292308D01*
Y287469D01*
X372047D01*
Y281532D01*
X379953D01*
Y283073D01*
X381500D01*
X381500Y283073D01*
X382046Y283181D01*
X382509Y283491D01*
X383646Y284628D01*
X385413D01*
Y282988D01*
X392531D01*
Y289122D01*
X385413D01*
Y287483D01*
X383055D01*
X383055Y287483D01*
X382509Y287374D01*
X382046Y287065D01*
X382046Y287064D01*
X380909Y285927D01*
X379953D01*
Y287469D01*
X377427D01*
Y292899D01*
X377427Y292899D01*
X377319Y293446D01*
X377009Y293909D01*
X377009Y293909D01*
X373333Y297585D01*
X373524Y298047D01*
X376468D01*
Y305953D01*
X370532D01*
Y304140D01*
X370070Y303949D01*
X368927Y305091D01*
Y305604D01*
X369196Y305872D01*
X369500Y306607D01*
Y307402D01*
X369196Y308138D01*
X368633Y308700D01*
X368447Y308777D01*
X368546Y309277D01*
X384698D01*
X387125Y306851D01*
X387125Y306851D01*
X387588Y306541D01*
X388134Y306432D01*
X388134Y306432D01*
X432127D01*
X432542Y305715D01*
X433278Y304979D01*
X434179Y304458D01*
X435184Y304189D01*
X436225D01*
X437230Y304458D01*
X438132Y304979D01*
X438868Y305715D01*
X439388Y306616D01*
X439414Y306714D01*
X457342D01*
Y304189D01*
X459868D01*
Y268008D01*
X459868Y268008D01*
X459976Y267461D01*
X460286Y266999D01*
X486270Y241014D01*
X486110Y240737D01*
X485803Y239593D01*
Y238408D01*
X486110Y237263D01*
X486702Y236237D01*
X487540Y235399D01*
X488566Y234807D01*
X489711Y234500D01*
X490896D01*
X492040Y234807D01*
X493066Y235399D01*
X493904Y236237D01*
X494496Y237263D01*
X494803Y238408D01*
Y239593D01*
X494496Y240737D01*
X493904Y241763D01*
X493066Y242601D01*
X492040Y243193D01*
X490896Y243500D01*
X489711D01*
X488566Y243193D01*
X488289Y243033D01*
X462723Y268599D01*
Y304189D01*
X465248D01*
Y310855D01*
X469430D01*
X486270Y294014D01*
X486110Y293737D01*
X485803Y292592D01*
Y291408D01*
X486110Y290263D01*
X486702Y289237D01*
X487540Y288399D01*
X488566Y287807D01*
X489711Y287500D01*
X490896D01*
X492040Y287807D01*
X493066Y288399D01*
X493904Y289237D01*
X494496Y290263D01*
X494803Y291408D01*
Y292592D01*
X494496Y293737D01*
X493904Y294763D01*
X493066Y295601D01*
X492040Y296193D01*
X490896Y296500D01*
X489711D01*
X488566Y296193D01*
X488289Y296033D01*
X471249Y313073D01*
X471456Y313573D01*
X485606D01*
X485968Y313210D01*
X485803Y312593D01*
Y311408D01*
X486110Y310263D01*
X486702Y309237D01*
X487540Y308399D01*
X488566Y307807D01*
X489711Y307500D01*
X490896D01*
X492040Y307807D01*
X493066Y308399D01*
X493904Y309237D01*
X494496Y310263D01*
X494803Y311408D01*
Y312593D01*
X494496Y313737D01*
X493904Y314763D01*
X493066Y315601D01*
X492040Y316193D01*
X490896Y316500D01*
X489711D01*
X488566Y316193D01*
X487587Y315628D01*
X487206Y316009D01*
X486743Y316319D01*
X486197Y316427D01*
X486197Y316427D01*
X464507D01*
X464436Y316498D01*
X463701Y316803D01*
X462905D01*
X462170Y316498D01*
X461607Y315936D01*
X461542Y315777D01*
X461051Y315679D01*
X451427Y325303D01*
Y327099D01*
X451695Y327367D01*
X452000Y328102D01*
Y328898D01*
X451936Y329053D01*
X452214Y329469D01*
X454101D01*
X454367Y329202D01*
X455102Y328898D01*
X455898D01*
X456633Y329202D01*
X457196Y329765D01*
X457500Y330500D01*
Y331296D01*
X457434Y331455D01*
X457712Y331870D01*
X470325D01*
X471205Y330991D01*
X471205Y330991D01*
X471668Y330681D01*
X472215Y330573D01*
X472215Y330573D01*
X486027D01*
X486110Y330263D01*
X486702Y329237D01*
X487540Y328399D01*
X488566Y327807D01*
X489711Y327500D01*
X490895D01*
X492040Y327807D01*
X493066Y328399D01*
X493904Y329237D01*
X494496Y330263D01*
X494803Y331408D01*
Y332593D01*
X494496Y333737D01*
X493904Y334763D01*
X493869Y334798D01*
X494060Y335260D01*
X495253D01*
X496573Y333940D01*
Y330288D01*
X492317Y326033D01*
X492040Y326193D01*
X490896Y326500D01*
X489711D01*
X488566Y326193D01*
X487540Y325601D01*
X486702Y324763D01*
X486110Y323737D01*
X485803Y322592D01*
Y321408D01*
X486110Y320263D01*
X486702Y319237D01*
X487540Y318399D01*
X488566Y317807D01*
X489711Y317500D01*
X490896D01*
X492040Y317807D01*
X493066Y318399D01*
X493904Y319237D01*
X494496Y320263D01*
X494803Y321408D01*
Y322592D01*
X494496Y323737D01*
X494336Y324014D01*
X498205Y327884D01*
X498667Y327692D01*
X498672Y178909D01*
X498678Y178878D01*
X498567Y178035D01*
X498229Y177220D01*
X497712Y176545D01*
X497685Y176527D01*
X497337Y176179D01*
X497303Y176129D01*
X496639Y175685D01*
X495855Y175529D01*
X495796Y175541D01*
X331522D01*
X331267Y176041D01*
X331500Y176602D01*
Y177398D01*
X331195Y178133D01*
X330927Y178401D01*
Y187058D01*
X331427Y187147D01*
X332210Y186364D01*
X333246Y185766D01*
X334402Y185457D01*
X335598D01*
X336754Y185766D01*
X337790Y186364D01*
X338635Y187210D01*
X339234Y188246D01*
X339543Y189402D01*
Y190598D01*
X339234Y191754D01*
X338635Y192790D01*
X337790Y193635D01*
X336754Y194234D01*
X335598Y194543D01*
X334402D01*
X333246Y194234D01*
X332210Y193635D01*
X331427Y192853D01*
X330927Y192942D01*
Y212679D01*
X338068Y219819D01*
X338447D01*
X339182Y220124D01*
X339745Y220686D01*
X339819Y220865D01*
X340319Y220765D01*
Y218689D01*
X344681D01*
Y226791D01*
X340319D01*
Y222873D01*
X339819Y222773D01*
X339745Y222952D01*
X339182Y223515D01*
X338447Y223819D01*
X337651D01*
X336916Y223515D01*
X336354Y222952D01*
X336049Y222217D01*
Y221838D01*
X335462Y221250D01*
X334971Y221467D01*
X334696Y222133D01*
X334133Y222695D01*
X333398Y223000D01*
X332602D01*
X331867Y222695D01*
X331305Y222133D01*
X331000Y221398D01*
Y221019D01*
X325491Y215509D01*
X325181Y215046D01*
X325073Y214500D01*
X325073Y214500D01*
Y182401D01*
X324804Y182133D01*
X324500Y181398D01*
Y180602D01*
X324804Y179867D01*
X325367Y179305D01*
X326102Y179000D01*
X326898D01*
X327573Y179279D01*
X328073Y179091D01*
Y178401D01*
X327804Y178133D01*
X327500Y177398D01*
Y176602D01*
X327732Y176041D01*
X327478Y175541D01*
X180008D01*
X179948Y175529D01*
X179164Y175685D01*
X178500Y176129D01*
X178466Y176179D01*
X177770Y176876D01*
X177719Y176909D01*
X177275Y177574D01*
X177120Y178357D01*
X177131Y178417D01*
Y444992D01*
X177120Y445052D01*
X177275Y445836D01*
X177719Y446500D01*
X177770Y446534D01*
X178466Y447230D01*
X178500Y447281D01*
X179164Y447725D01*
X179948Y447881D01*
X180008Y447869D01*
D02*
G37*
G36*
X356491Y354991D02*
X356491Y354991D01*
X356954Y354681D01*
X357500Y354573D01*
X357500Y354573D01*
X358291D01*
Y352047D01*
X359832D01*
Y350453D01*
X358291D01*
Y347927D01*
X356000D01*
X355454Y347819D01*
X354991Y347509D01*
X354991Y347509D01*
X349491Y342009D01*
X349181Y341546D01*
X349073Y341000D01*
X349073Y341000D01*
Y340930D01*
X348573Y340756D01*
X348133Y341196D01*
X347398Y341500D01*
X346602D01*
X345867Y341196D01*
X345599Y340927D01*
X344927D01*
X343528Y342326D01*
X343720Y342788D01*
X343927D01*
Y346138D01*
X344664D01*
Y342788D01*
X347864D01*
Y346660D01*
X351088D01*
X351088Y346660D01*
X351634Y346769D01*
X352097Y347078D01*
X354519Y349500D01*
X354898D01*
X355633Y349804D01*
X356195Y350367D01*
X356500Y351102D01*
Y351898D01*
X356195Y352633D01*
X355633Y353196D01*
X354898Y353500D01*
X354102D01*
X353367Y353196D01*
X352804Y352633D01*
X352500Y351898D01*
Y351519D01*
X350497Y349515D01*
X346897D01*
X346690Y350015D01*
X349439Y352764D01*
X350254D01*
X350254Y352764D01*
X350801Y352873D01*
X351264Y353183D01*
X352444Y354363D01*
X352894Y354663D01*
X353203Y355127D01*
X353312Y355673D01*
X353203Y356219D01*
X352894Y356682D01*
X352792Y356750D01*
X352656Y357389D01*
X352779Y357573D01*
X353909D01*
X356491Y354991D01*
D02*
G37*
G36*
X342185Y331191D02*
X342185Y331191D01*
X342648Y330881D01*
X343194Y330773D01*
X343194Y330773D01*
X343709D01*
X345000Y329481D01*
Y329102D01*
X345304Y328367D01*
X345867Y327804D01*
X346602Y327500D01*
X347398D01*
X348133Y327804D01*
X348695Y328367D01*
X349000Y329102D01*
Y329898D01*
X348695Y330633D01*
X348231Y331097D01*
X348247Y331514D01*
X348301Y331667D01*
X348633Y331804D01*
X348995Y332167D01*
X349374Y332289D01*
X349649Y332168D01*
X350287Y331530D01*
X350287Y331530D01*
X350750Y331221D01*
X350788Y331213D01*
Y330758D01*
X354138D01*
X357488D01*
Y332899D01*
X363625D01*
X363805Y332467D01*
X364367Y331905D01*
X365102Y331600D01*
X365898D01*
X366633Y331905D01*
X367196Y332467D01*
X367500Y333202D01*
Y333998D01*
X367490Y334021D01*
X367750Y334410D01*
X368010Y334021D01*
X368000Y333998D01*
Y333202D01*
X368304Y332467D01*
X368867Y331905D01*
X369602Y331600D01*
X370398D01*
X371133Y331905D01*
X371168Y331894D01*
X371311Y331330D01*
X369830Y329849D01*
X357488D01*
Y330022D01*
X354138D01*
X350788D01*
Y328790D01*
Y324055D01*
X350288Y323990D01*
X349863Y324415D01*
Y324794D01*
X349558Y325529D01*
X348996Y326091D01*
X348261Y326396D01*
X347465D01*
X346730Y326091D01*
X346167Y325529D01*
X345863Y324794D01*
Y323998D01*
X345958Y323767D01*
X345534Y323484D01*
X341500Y327519D01*
Y327898D01*
X341196Y328633D01*
X340633Y329195D01*
X339898Y329500D01*
X339102D01*
X338367Y329195D01*
X337805Y328633D01*
X337500Y327898D01*
Y327102D01*
X337805Y326367D01*
X338172Y326000D01*
X337965Y325500D01*
X337602D01*
X336867Y325196D01*
X336304Y324633D01*
X336000Y323898D01*
Y323102D01*
X336304Y322367D01*
X336550Y322122D01*
X336530Y321984D01*
X336001Y321806D01*
X332631Y325176D01*
Y337948D01*
X332696Y338012D01*
X333000Y338748D01*
Y338858D01*
X333139Y338973D01*
X334403D01*
X342185Y331191D01*
D02*
G37*
G36*
X426601Y331408D02*
X420152Y324959D01*
X419799Y324430D01*
X419674Y323806D01*
Y323709D01*
X416547D01*
Y317772D01*
X424453D01*
Y323709D01*
X424169D01*
X423978Y324171D01*
X429276Y329469D01*
X433151D01*
X433225Y328969D01*
X432542Y328285D01*
X432021Y327384D01*
X431752Y326379D01*
Y326358D01*
X435705D01*
X439657D01*
Y326379D01*
X439388Y327384D01*
X438868Y328285D01*
X438184Y328969D01*
X438259Y329469D01*
X447786D01*
X448064Y329053D01*
X448000Y328898D01*
Y328102D01*
X448305Y327367D01*
X448573Y327099D01*
Y324712D01*
X448573Y324712D01*
X448681Y324166D01*
X448991Y323702D01*
X460137Y312556D01*
X459945Y312094D01*
X457342D01*
Y309569D01*
X439414D01*
X439388Y309667D01*
X438868Y310569D01*
X438132Y311305D01*
X437230Y311825D01*
X436225Y312094D01*
X435184D01*
X434179Y311825D01*
X433278Y311305D01*
X432542Y310569D01*
X432021Y309667D01*
X431919Y309287D01*
X421927D01*
Y310291D01*
X424453D01*
Y316228D01*
X416547D01*
Y310291D01*
X419073D01*
Y309287D01*
X412968D01*
Y311500D01*
X410000D01*
X407031D01*
Y309287D01*
X405488D01*
Y315953D01*
X399551D01*
Y313427D01*
X395740D01*
Y315744D01*
X386260D01*
Y314101D01*
X372273D01*
X372081Y314563D01*
X374825Y317306D01*
X374825Y317306D01*
X375135Y317770D01*
X375190Y318047D01*
X376728D01*
Y325250D01*
X377102Y325500D01*
X377898D01*
X378272Y325250D01*
Y318047D01*
X384209D01*
Y320994D01*
X386260D01*
Y319256D01*
X395740D01*
Y321573D01*
X399532D01*
Y319047D01*
X405469D01*
Y326953D01*
X399532D01*
Y324427D01*
X395740D01*
Y325587D01*
X386260D01*
Y323849D01*
X384209D01*
Y325953D01*
X379434D01*
X379231Y326453D01*
X379500Y327102D01*
Y327481D01*
X383889Y331870D01*
X426410D01*
X426601Y331408D01*
D02*
G37*
%LPC*%
G36*
X433500Y444000D02*
X429500D01*
Y440000D01*
X433500D01*
Y444000D01*
D02*
G37*
G36*
X428500D02*
X424500D01*
Y440000D01*
X428500D01*
Y444000D01*
D02*
G37*
G36*
X287000Y446353D02*
Y440000D01*
X288925D01*
Y444028D01*
X288740Y444955D01*
X288214Y445742D01*
X287428Y446268D01*
X287000Y446353D01*
D02*
G37*
G36*
X286000D02*
X285572Y446268D01*
X284786Y445742D01*
X284260Y444955D01*
X284075Y444028D01*
Y440000D01*
X286000D01*
Y446353D01*
D02*
G37*
G36*
X471593Y444000D02*
X471500D01*
Y440000D01*
X475500D01*
Y440092D01*
X475193Y441237D01*
X474601Y442263D01*
X473763Y443101D01*
X472737Y443693D01*
X471593Y444000D01*
D02*
G37*
G36*
X470500D02*
X470408D01*
X469263Y443693D01*
X468237Y443101D01*
X467399Y442263D01*
X466807Y441237D01*
X466500Y440092D01*
Y440000D01*
X470500D01*
Y444000D01*
D02*
G37*
G36*
X419593D02*
X419500D01*
Y440000D01*
X423500D01*
Y440092D01*
X423193Y441237D01*
X422601Y442263D01*
X421763Y443101D01*
X420737Y443693D01*
X419593Y444000D01*
D02*
G37*
G36*
X418500D02*
X418408D01*
X417263Y443693D01*
X416237Y443101D01*
X415399Y442263D01*
X414807Y441237D01*
X414500Y440092D01*
Y440000D01*
X418500D01*
Y444000D01*
D02*
G37*
G36*
X409592Y444000D02*
X409500D01*
Y440000D01*
X413500D01*
Y440092D01*
X413193Y441237D01*
X412601Y442263D01*
X411763Y443101D01*
X410737Y443693D01*
X409592Y444000D01*
D02*
G37*
G36*
X408500D02*
X408408D01*
X407263Y443693D01*
X406237Y443101D01*
X405399Y442263D01*
X404807Y441237D01*
X404500Y440092D01*
Y440000D01*
X408500D01*
Y444000D01*
D02*
G37*
G36*
X419000Y439500D02*
D01*
D01*
D01*
D02*
G37*
G36*
X359592Y444000D02*
X358407D01*
X357263Y443693D01*
X356237Y443101D01*
X355399Y442263D01*
X354807Y441237D01*
X354500Y440092D01*
Y438907D01*
X354777Y437873D01*
X352199Y435294D01*
X350948D01*
X350842Y435401D01*
X350158Y435796D01*
X349395Y436000D01*
X348605D01*
X347842Y435796D01*
X347158Y435401D01*
X346599Y434842D01*
X346204Y434158D01*
X346000Y433395D01*
Y432605D01*
X346204Y431842D01*
X346599Y431158D01*
X347158Y430599D01*
X347842Y430204D01*
X348605Y430000D01*
X349395D01*
X350158Y430204D01*
X350842Y430599D01*
X351401Y431158D01*
X351670Y431624D01*
X352959D01*
X353662Y431764D01*
X354257Y432162D01*
X357373Y435277D01*
X358407Y435000D01*
X359592D01*
X360737Y435307D01*
X361763Y435899D01*
X362601Y436737D01*
X363193Y437763D01*
X363500Y438907D01*
Y440092D01*
X363193Y441237D01*
X362601Y442263D01*
X361763Y443101D01*
X360737Y443693D01*
X359592Y444000D01*
D02*
G37*
G36*
X485500Y444000D02*
X476500D01*
Y435000D01*
X485500D01*
Y444000D01*
D02*
G37*
G36*
X433500Y439000D02*
X429500D01*
Y435000D01*
X433500D01*
Y439000D01*
D02*
G37*
G36*
X428500D02*
X424500D01*
Y435000D01*
X428500D01*
Y439000D01*
D02*
G37*
G36*
X475500Y439000D02*
X471500D01*
Y435000D01*
X471593D01*
X472737Y435307D01*
X473763Y435899D01*
X474601Y436737D01*
X475193Y437763D01*
X475500Y438907D01*
Y439000D01*
D02*
G37*
G36*
X470500D02*
X466500D01*
Y438907D01*
X466807Y437763D01*
X467399Y436737D01*
X468237Y435899D01*
X469263Y435307D01*
X470408Y435000D01*
X470500D01*
Y439000D01*
D02*
G37*
G36*
X423500Y439000D02*
X419500D01*
Y435000D01*
X419593D01*
X420737Y435307D01*
X421763Y435899D01*
X422601Y436737D01*
X423193Y437763D01*
X423500Y438907D01*
Y439000D01*
D02*
G37*
G36*
X418500D02*
X414500D01*
Y438907D01*
X414807Y437763D01*
X415399Y436737D01*
X416237Y435899D01*
X417263Y435307D01*
X418408Y435000D01*
X418500D01*
Y439000D01*
D02*
G37*
G36*
X413500Y439000D02*
X409500D01*
Y435000D01*
X409592D01*
X410737Y435307D01*
X411763Y435899D01*
X412601Y436737D01*
X413193Y437763D01*
X413500Y438907D01*
Y439000D01*
D02*
G37*
G36*
X408500D02*
X404500D01*
Y438907D01*
X404807Y437763D01*
X405399Y436737D01*
X406237Y435899D01*
X407263Y435307D01*
X408408Y435000D01*
X408500D01*
Y439000D01*
D02*
G37*
G36*
X399592Y444000D02*
X398408D01*
X397263Y443693D01*
X396237Y443101D01*
X395399Y442263D01*
X394807Y441237D01*
X394500Y440092D01*
Y438907D01*
X394807Y437763D01*
X395399Y436737D01*
X396237Y435899D01*
X397263Y435307D01*
X398408Y435000D01*
X399592D01*
X400737Y435307D01*
X401763Y435899D01*
X402601Y436737D01*
X403193Y437763D01*
X403500Y438907D01*
Y440092D01*
X403193Y441237D01*
X402601Y442263D01*
X401763Y443101D01*
X400737Y443693D01*
X399592Y444000D01*
D02*
G37*
G36*
X389592Y444000D02*
X388407D01*
X387263Y443693D01*
X386237Y443101D01*
X385399Y442263D01*
X384807Y441237D01*
X384500Y440092D01*
Y438907D01*
X384807Y437763D01*
X385399Y436737D01*
X386237Y435899D01*
X387263Y435307D01*
X388407Y435000D01*
X389592D01*
X390737Y435307D01*
X391763Y435899D01*
X392601Y436737D01*
X393193Y437763D01*
X393500Y438907D01*
Y440092D01*
X393193Y441237D01*
X392601Y442263D01*
X391763Y443101D01*
X390737Y443693D01*
X389592Y444000D01*
D02*
G37*
G36*
X342827Y447366D02*
X331500D01*
Y434071D01*
X342827D01*
Y447366D01*
D02*
G37*
G36*
X330500D02*
X319173D01*
Y434071D01*
X330500D01*
Y447366D01*
D02*
G37*
G36*
X288925Y439000D02*
X287000D01*
Y432647D01*
X287428Y432732D01*
X288214Y433258D01*
X288740Y434045D01*
X288925Y434972D01*
Y439000D01*
D02*
G37*
G36*
X286000D02*
X284075D01*
Y434972D01*
X284260Y434045D01*
X284786Y433258D01*
X285572Y432732D01*
X286000Y432647D01*
Y439000D01*
D02*
G37*
G36*
X217709Y435374D02*
X213665D01*
Y427000D01*
X217709D01*
Y435374D01*
D02*
G37*
G36*
X212665D02*
X208622D01*
Y427000D01*
X212665D01*
Y435374D01*
D02*
G37*
G36*
X309953Y425709D02*
X306500D01*
Y423240D01*
X309953D01*
Y425709D01*
D02*
G37*
G36*
X305500D02*
X302047D01*
Y423240D01*
X305500D01*
Y425709D01*
D02*
G37*
G36*
X342827Y433071D02*
X331500D01*
Y419776D01*
X342827D01*
Y433071D01*
D02*
G37*
G36*
X330500D02*
X319173D01*
Y419776D01*
X330500D01*
Y433071D01*
D02*
G37*
G36*
X309953Y422240D02*
X306500D01*
Y419772D01*
X309953D01*
Y422240D01*
D02*
G37*
G36*
X305500D02*
X302047D01*
Y419772D01*
X305500D01*
Y422240D01*
D02*
G37*
G36*
X217709Y426000D02*
X213665D01*
Y417626D01*
X217709D01*
Y426000D01*
D02*
G37*
G36*
X212665D02*
X208622D01*
Y417626D01*
X212665D01*
Y426000D01*
D02*
G37*
G36*
X388500Y418213D02*
Y414083D01*
X390108D01*
Y416205D01*
X389947Y417011D01*
X389490Y417695D01*
X388807Y418152D01*
X388500Y418213D01*
D02*
G37*
G36*
X387500Y418213D02*
X387193Y418152D01*
X386510Y417695D01*
X386053Y417011D01*
X385892Y416205D01*
Y414083D01*
X387500D01*
Y418213D01*
D02*
G37*
G36*
X240543Y435374D02*
X231457D01*
Y417626D01*
X238566D01*
X238743Y417591D01*
X239814D01*
X242702Y414702D01*
X243298Y414304D01*
X244000Y414165D01*
X245079D01*
Y411654D01*
X256921D01*
Y420346D01*
X245079D01*
Y418224D01*
X244579Y418017D01*
X241872Y420724D01*
X241276Y421122D01*
X240574Y421261D01*
X240543D01*
Y435374D01*
D02*
G37*
G36*
X390108Y413083D02*
X388500D01*
Y408953D01*
X388807Y409014D01*
X389490Y409471D01*
X389947Y410154D01*
X390108Y410961D01*
Y413083D01*
D02*
G37*
G36*
X387500D02*
X385892D01*
Y410961D01*
X386053Y410154D01*
X386510Y409471D01*
X387193Y409014D01*
X387500Y408953D01*
Y413083D01*
D02*
G37*
G36*
X383000Y418313D02*
X382193Y418152D01*
X381510Y417695D01*
X381053Y417011D01*
X380892Y416205D01*
Y410961D01*
X381053Y410154D01*
X381510Y409471D01*
X382193Y409014D01*
X383000Y408853D01*
X383807Y409014D01*
X384490Y409471D01*
X384947Y410154D01*
X385108Y410961D01*
Y416205D01*
X384947Y417011D01*
X384490Y417695D01*
X383807Y418152D01*
X383000Y418313D01*
D02*
G37*
G36*
X378000D02*
X377193Y418152D01*
X376510Y417695D01*
X376053Y417011D01*
X375892Y416205D01*
Y410961D01*
X376053Y410154D01*
X376510Y409471D01*
X377193Y409014D01*
X378000Y408853D01*
X378807Y409014D01*
X379490Y409471D01*
X379947Y410154D01*
X380108Y410961D01*
Y416205D01*
X379947Y417011D01*
X379490Y417695D01*
X378807Y418152D01*
X378000Y418313D01*
D02*
G37*
G36*
X373000D02*
X372193Y418152D01*
X371510Y417695D01*
X371053Y417011D01*
X370892Y416205D01*
Y410961D01*
X371053Y410154D01*
X371510Y409471D01*
X372193Y409014D01*
X373000Y408853D01*
X373807Y409014D01*
X374490Y409471D01*
X374947Y410154D01*
X375108Y410961D01*
Y416205D01*
X374947Y417011D01*
X374490Y417695D01*
X373807Y418152D01*
X373000Y418313D01*
D02*
G37*
G36*
X368000D02*
X367193Y418152D01*
X366510Y417695D01*
X366053Y417011D01*
X365892Y416205D01*
Y410961D01*
X366053Y410154D01*
X366510Y409471D01*
X367193Y409014D01*
X368000Y408853D01*
X368807Y409014D01*
X369490Y409471D01*
X369947Y410154D01*
X370108Y410961D01*
Y416205D01*
X369947Y417011D01*
X369490Y417695D01*
X368807Y418152D01*
X368000Y418313D01*
D02*
G37*
G36*
X233063Y412146D02*
X224689D01*
Y408102D01*
X233063D01*
Y412146D01*
D02*
G37*
G36*
X223689D02*
X215315D01*
Y408102D01*
X223689D01*
Y412146D01*
D02*
G37*
G36*
X363000Y418313D02*
X362193Y418152D01*
X361510Y417695D01*
X361053Y417011D01*
X360892Y416205D01*
Y410961D01*
X361053Y410154D01*
X361510Y409471D01*
X361573Y409429D01*
Y408325D01*
X361573Y408325D01*
X361606Y408155D01*
X361500Y407898D01*
Y407102D01*
X361805Y406367D01*
X362367Y405804D01*
X363102Y405500D01*
X363898D01*
X364633Y405804D01*
X365195Y406367D01*
X365500Y407102D01*
Y407898D01*
X365195Y408633D01*
X364770Y409058D01*
X364636Y409256D01*
X364661Y409725D01*
X364947Y410154D01*
X365108Y410961D01*
Y416205D01*
X364947Y417011D01*
X364490Y417695D01*
X363807Y418152D01*
X363000Y418313D01*
D02*
G37*
G36*
X270395Y431500D02*
X269605D01*
X268842Y431296D01*
X268158Y430901D01*
X267599Y430342D01*
X267204Y429658D01*
X267000Y428895D01*
Y428105D01*
X267204Y427342D01*
X267599Y426658D01*
X268158Y426099D01*
X268842Y425704D01*
X269605Y425500D01*
X270395D01*
X270797Y425608D01*
X271665Y424740D01*
Y421651D01*
X271804Y420948D01*
X271872Y420847D01*
X271605Y420346D01*
X260827D01*
Y411654D01*
X272669D01*
Y414165D01*
X275500D01*
X276202Y414304D01*
X276798Y414702D01*
X277798Y415702D01*
X277798Y415702D01*
X281760Y419665D01*
X284122D01*
Y414595D01*
X288878D01*
Y419109D01*
X289378Y419316D01*
X294732Y413962D01*
X295328Y413564D01*
X296030Y413425D01*
X302047D01*
Y412291D01*
X309953D01*
Y413425D01*
X317035D01*
X319153Y411306D01*
Y403634D01*
X324894D01*
Y413902D01*
X321749D01*
X319093Y416558D01*
X318498Y416955D01*
X317795Y417095D01*
X309953D01*
Y418228D01*
X308330D01*
X308153Y418264D01*
X307976Y418228D01*
X302047D01*
Y417095D01*
X296790D01*
X291088Y422798D01*
X290492Y423196D01*
X289790Y423335D01*
X288878D01*
Y428406D01*
X284122D01*
Y423335D01*
X281000D01*
X280298Y423196D01*
X279702Y422798D01*
X277325Y420421D01*
X275335Y422411D01*
Y425500D01*
X275196Y426202D01*
X274798Y426798D01*
X273000Y428595D01*
Y428895D01*
X272796Y429658D01*
X272401Y430342D01*
X271842Y430901D01*
X271158Y431296D01*
X270395Y431500D01*
D02*
G37*
G36*
X233063Y407102D02*
X224689D01*
Y403059D01*
X233063D01*
Y407102D01*
D02*
G37*
G36*
X223689D02*
X215315D01*
Y403059D01*
X223689D01*
Y407102D01*
D02*
G37*
G36*
X279233Y397472D02*
X277016D01*
Y394995D01*
X279233D01*
Y397472D01*
D02*
G37*
G36*
X276016D02*
X273799D01*
Y394995D01*
X276016D01*
Y397472D01*
D02*
G37*
G36*
X292000Y395924D02*
X287972D01*
X287045Y395740D01*
X286258Y395214D01*
X285733Y394428D01*
X285647Y394000D01*
X292000D01*
Y395924D01*
D02*
G37*
G36*
Y393000D02*
X285647D01*
X285733Y392572D01*
X286258Y391786D01*
X287045Y391260D01*
X287972Y391075D01*
X292000D01*
Y393000D01*
D02*
G37*
G36*
X467557Y399713D02*
X466120D01*
X464710Y399432D01*
X463381Y398882D01*
X462186Y398083D01*
X461169Y397066D01*
X460370Y395871D01*
X459820Y394543D01*
X459539Y393132D01*
Y391694D01*
X459820Y390284D01*
X460370Y388956D01*
X461169Y387760D01*
X462186Y386744D01*
X463381Y385945D01*
X464710Y385395D01*
X466120Y385114D01*
X467557D01*
X468968Y385395D01*
X470296Y385945D01*
X471492Y386744D01*
X472508Y387760D01*
X473307Y388956D01*
X473857Y390284D01*
X474138Y391694D01*
Y393132D01*
X473857Y394543D01*
X473307Y395871D01*
X472508Y397066D01*
X471492Y398083D01*
X470296Y398882D01*
X468968Y399432D01*
X467557Y399713D01*
D02*
G37*
G36*
X191967D02*
X190529D01*
X189119Y399432D01*
X187791Y398882D01*
X186595Y398083D01*
X185578Y397066D01*
X184780Y395871D01*
X184229Y394543D01*
X183949Y393132D01*
Y391694D01*
X184229Y390284D01*
X184780Y388956D01*
X185578Y387760D01*
X186595Y386744D01*
X187791Y385945D01*
X189119Y385395D01*
X190529Y385114D01*
X191967D01*
X193377Y385395D01*
X194705Y385945D01*
X195901Y386744D01*
X196918Y387760D01*
X197716Y388956D01*
X198267Y390284D01*
X198547Y391694D01*
Y393132D01*
X198267Y394543D01*
X197716Y395871D01*
X196918Y397066D01*
X195901Y398083D01*
X194705Y398882D01*
X193377Y399432D01*
X191967Y399713D01*
D02*
G37*
G36*
X204453Y384968D02*
X201000D01*
Y382500D01*
X204453D01*
Y384968D01*
D02*
G37*
G36*
X200000D02*
X196547D01*
Y382500D01*
X200000D01*
Y384968D01*
D02*
G37*
G36*
X236453Y384709D02*
X233000D01*
Y382240D01*
X236453D01*
Y384709D01*
D02*
G37*
G36*
X232000D02*
X228547D01*
Y382240D01*
X232000D01*
Y384709D01*
D02*
G37*
G36*
X352453Y384228D02*
X349000D01*
Y381760D01*
X352453D01*
Y384228D01*
D02*
G37*
G36*
X348000D02*
X344547D01*
Y381760D01*
X348000D01*
Y384228D01*
D02*
G37*
G36*
X204453Y381500D02*
X201000D01*
Y379031D01*
X204453D01*
Y381500D01*
D02*
G37*
G36*
X200000D02*
X196547D01*
Y379031D01*
X200000D01*
Y381500D01*
D02*
G37*
G36*
X236453Y381240D02*
X233000D01*
Y378772D01*
X236453D01*
Y381240D01*
D02*
G37*
G36*
X232000D02*
X228547D01*
Y378772D01*
X232000D01*
Y381240D01*
D02*
G37*
G36*
X348000Y380760D02*
X344547D01*
Y378291D01*
X348000D01*
Y380760D01*
D02*
G37*
G36*
X302228Y379953D02*
X299760D01*
Y376500D01*
X302228D01*
Y379953D01*
D02*
G37*
G36*
X298760D02*
X296291D01*
Y376500D01*
X298760D01*
Y379953D01*
D02*
G37*
G36*
X204453Y377488D02*
X196547D01*
Y371551D01*
X198869D01*
Y365795D01*
X195653D01*
Y353953D01*
X204346D01*
Y365795D01*
X202131D01*
Y371551D01*
X204453D01*
Y372869D01*
X210563D01*
Y372122D01*
X215122D01*
Y376878D01*
X210563D01*
Y376131D01*
X204453D01*
Y377488D01*
D02*
G37*
G36*
X302228Y375500D02*
X299760D01*
Y372047D01*
X302228D01*
Y375500D01*
D02*
G37*
G36*
X298760D02*
X296291D01*
Y372047D01*
X298760D01*
Y375500D01*
D02*
G37*
G36*
X261728Y367453D02*
X259260D01*
Y364000D01*
X261728D01*
Y367453D01*
D02*
G37*
G36*
X258260D02*
X255791D01*
Y364000D01*
X258260D01*
Y367453D01*
D02*
G37*
G36*
X261728Y363000D02*
X259260D01*
Y359547D01*
X261728D01*
Y363000D01*
D02*
G37*
G36*
X258260D02*
X255791D01*
Y359547D01*
X258260D01*
Y363000D01*
D02*
G37*
G36*
X297488Y361453D02*
X295020D01*
Y358000D01*
X297488D01*
Y361453D01*
D02*
G37*
G36*
X294020D02*
X291551D01*
Y358000D01*
X294020D01*
Y361453D01*
D02*
G37*
G36*
X297488Y357000D02*
X295020D01*
Y353547D01*
X297488D01*
Y357000D01*
D02*
G37*
G36*
X294020D02*
X291551D01*
Y353547D01*
X294020D01*
Y357000D01*
D02*
G37*
G36*
X371709Y355500D02*
X369240D01*
Y352047D01*
X371709D01*
Y355500D01*
D02*
G37*
G36*
X233228Y350453D02*
X227291D01*
Y347927D01*
X224799D01*
Y349862D01*
X218468D01*
Y343138D01*
X224799D01*
Y345073D01*
X227291D01*
Y342547D01*
X233228D01*
Y350453D01*
D02*
G37*
G36*
X297228Y350953D02*
X294760D01*
Y347500D01*
X297228D01*
Y350953D01*
D02*
G37*
G36*
X216531Y349862D02*
X213866D01*
Y347000D01*
X216531D01*
Y349862D01*
D02*
G37*
G36*
X371709Y350453D02*
X369240D01*
Y347000D01*
X371709D01*
Y350453D01*
D02*
G37*
G36*
X212866Y349862D02*
X210201D01*
Y347000D01*
X212866D01*
Y349862D01*
D02*
G37*
G36*
X216531Y346000D02*
X213866D01*
Y343138D01*
X216531D01*
Y346000D01*
D02*
G37*
G36*
X212866D02*
X210201D01*
Y343138D01*
X212866D01*
Y346000D01*
D02*
G37*
G36*
X261709Y350453D02*
X255772D01*
Y342547D01*
X261709D01*
Y344573D01*
X264067D01*
Y342638D01*
X270398D01*
Y349362D01*
X264067D01*
Y347427D01*
X261709D01*
Y350453D01*
D02*
G37*
G36*
X371709Y346000D02*
X369240D01*
Y342547D01*
X371709D01*
Y346000D01*
D02*
G37*
G36*
X233709Y337953D02*
X231240D01*
Y334500D01*
X233709D01*
Y337953D01*
D02*
G37*
G36*
X230240D02*
X227772D01*
Y334500D01*
X230240D01*
Y337953D01*
D02*
G37*
G36*
X233709Y333500D02*
X231240D01*
Y330047D01*
X233709D01*
Y333500D01*
D02*
G37*
G36*
X230240D02*
X227772D01*
Y330047D01*
X230240D01*
Y333500D01*
D02*
G37*
G36*
X193988Y335502D02*
X190839D01*
X190064Y335400D01*
X189341Y335101D01*
X188721Y334625D01*
X188246Y334005D01*
X187946Y333283D01*
X187845Y332508D01*
X187946Y331733D01*
X188246Y331011D01*
X188721Y330391D01*
X189341Y329915D01*
X190064Y329616D01*
X190839Y329514D01*
X193988D01*
X194763Y329616D01*
X195485Y329915D01*
X196105Y330391D01*
X196581Y331011D01*
X196880Y331733D01*
X196982Y332508D01*
X196880Y333283D01*
X196581Y334005D01*
X196105Y334625D01*
X195485Y335101D01*
X194763Y335400D01*
X193988Y335502D01*
D02*
G37*
G36*
X461816Y329811D02*
X461795D01*
Y326358D01*
X465248D01*
Y326379D01*
X464979Y327384D01*
X464458Y328285D01*
X463722Y329021D01*
X462821Y329542D01*
X461816Y329811D01*
D02*
G37*
G36*
X460795D02*
X460775D01*
X459770Y329542D01*
X458868Y329021D01*
X458132Y328285D01*
X457612Y327384D01*
X457342Y326379D01*
Y326358D01*
X460795D01*
Y329811D01*
D02*
G37*
G36*
X465248Y325358D02*
X461795D01*
Y321905D01*
X461816D01*
X462821Y322175D01*
X463722Y322695D01*
X464458Y323431D01*
X464979Y324333D01*
X465248Y325338D01*
Y325358D01*
D02*
G37*
G36*
X460795D02*
X457342D01*
Y325338D01*
X457612Y324333D01*
X458132Y323431D01*
X458868Y322695D01*
X459770Y322175D01*
X460775Y321905D01*
X460795D01*
Y325358D01*
D02*
G37*
G36*
X306500Y305427D02*
X306500Y305427D01*
X306465D01*
X305918Y305319D01*
X305455Y305009D01*
X305146Y304546D01*
X305037Y304000D01*
X305073Y303822D01*
Y300591D01*
X304453Y299972D01*
X303953Y300006D01*
Y301488D01*
X300500D01*
Y298520D01*
Y295551D01*
X303953D01*
Y297092D01*
X305020D01*
X305020Y297092D01*
X305566Y297201D01*
X306029Y297510D01*
X307509Y298991D01*
X307509Y298991D01*
X307819Y299454D01*
X307927Y300000D01*
X307927Y300000D01*
Y303043D01*
X308048Y303224D01*
X308157Y303770D01*
X308048Y304317D01*
X307739Y304780D01*
X307509Y305009D01*
X307046Y305319D01*
X306500Y305427D01*
D02*
G37*
G36*
X299500Y301488D02*
X296047D01*
Y299020D01*
X299500D01*
Y301488D01*
D02*
G37*
G36*
X490896Y306500D02*
X489711D01*
X488566Y306193D01*
X487540Y305601D01*
X486702Y304763D01*
X486110Y303737D01*
X485803Y302592D01*
Y301408D01*
X486110Y300263D01*
X486702Y299237D01*
X487540Y298399D01*
X488566Y297807D01*
X489711Y297500D01*
X490896D01*
X492040Y297807D01*
X493066Y298399D01*
X493904Y299237D01*
X494496Y300263D01*
X494803Y301408D01*
Y302592D01*
X494496Y303737D01*
X493904Y304763D01*
X493066Y305601D01*
X492040Y306193D01*
X490896Y306500D01*
D02*
G37*
G36*
X247500Y300000D02*
X243500D01*
Y296000D01*
X247500D01*
Y300000D01*
D02*
G37*
G36*
X242500D02*
X238500D01*
Y296000D01*
X242500D01*
Y300000D01*
D02*
G37*
G36*
X193988Y301486D02*
X190839D01*
X190064Y301384D01*
X189341Y301085D01*
X188721Y300609D01*
X188246Y299989D01*
X187946Y299267D01*
X187845Y298492D01*
X187946Y297717D01*
X188246Y296995D01*
X188721Y296375D01*
X189341Y295899D01*
X190064Y295600D01*
X190839Y295498D01*
X193988D01*
X194763Y295600D01*
X195485Y295899D01*
X196105Y296375D01*
X196581Y296995D01*
X196880Y297717D01*
X196982Y298492D01*
X196880Y299267D01*
X196581Y299989D01*
X196105Y300609D01*
X195485Y301085D01*
X194763Y301384D01*
X193988Y301486D01*
D02*
G37*
G36*
X423209Y296953D02*
X420740D01*
Y293500D01*
X423209D01*
Y296953D01*
D02*
G37*
G36*
X419740D02*
X417272D01*
Y293500D01*
X419740D01*
Y296953D01*
D02*
G37*
G36*
X392531Y296012D02*
X389472D01*
Y293445D01*
X392531D01*
Y296012D01*
D02*
G37*
G36*
X388472D02*
X385413D01*
Y293445D01*
X388472D01*
Y296012D01*
D02*
G37*
G36*
X247500Y295000D02*
X243500D01*
Y291000D01*
X247500D01*
Y295000D01*
D02*
G37*
G36*
X242500D02*
X238500D01*
Y291000D01*
X242500D01*
Y295000D01*
D02*
G37*
G36*
X392531Y292445D02*
X389472D01*
Y289878D01*
X392531D01*
Y292445D01*
D02*
G37*
G36*
X388472D02*
X385413D01*
Y289878D01*
X388472D01*
Y292445D01*
D02*
G37*
G36*
X367453Y292228D02*
X364000D01*
Y289760D01*
X367453D01*
Y292228D01*
D02*
G37*
G36*
X363000D02*
X359547D01*
Y289760D01*
X363000D01*
Y292228D01*
D02*
G37*
G36*
X357453Y291988D02*
X354000D01*
Y289520D01*
X357453D01*
Y291988D01*
D02*
G37*
G36*
X353000D02*
X349547D01*
Y289520D01*
X353000D01*
Y291988D01*
D02*
G37*
G36*
X423209Y292500D02*
X420740D01*
Y289047D01*
X423209D01*
Y292500D01*
D02*
G37*
G36*
X419740D02*
X417272D01*
Y289047D01*
X419740D01*
Y292500D01*
D02*
G37*
G36*
X383949Y305953D02*
X378012D01*
Y298047D01*
X383949D01*
Y300573D01*
X391409D01*
X395508Y296474D01*
X395316Y296012D01*
X394468D01*
Y289878D01*
X401587D01*
Y291573D01*
X409791D01*
Y289047D01*
X415728D01*
Y296953D01*
X409791D01*
Y294427D01*
X401587D01*
Y296012D01*
X399447D01*
X399346Y296519D01*
X399037Y296982D01*
X399037Y296982D01*
X393009Y303009D01*
X392546Y303319D01*
X392000Y303427D01*
X392000Y303427D01*
X383949D01*
Y305953D01*
D02*
G37*
G36*
X227453Y290228D02*
X224000D01*
Y287760D01*
X227453D01*
Y290228D01*
D02*
G37*
G36*
X223000D02*
X219547D01*
Y287760D01*
X223000D01*
Y290228D01*
D02*
G37*
G36*
X401587Y289122D02*
X398528D01*
Y286555D01*
X401587D01*
Y289122D01*
D02*
G37*
G36*
X397528D02*
X394468D01*
Y286555D01*
X397528D01*
Y289122D01*
D02*
G37*
G36*
X367453Y288760D02*
X364000D01*
Y286291D01*
X367453D01*
Y288760D01*
D02*
G37*
G36*
X363000D02*
X359547D01*
Y286291D01*
X363000D01*
Y288760D01*
D02*
G37*
G36*
X357453Y288520D02*
X354000D01*
Y286051D01*
X357453D01*
Y288520D01*
D02*
G37*
G36*
X200898Y288000D02*
X200102D01*
X199367Y287696D01*
X198804Y287133D01*
X198500Y286398D01*
Y285602D01*
X198547Y285488D01*
X198154Y285210D01*
X198126Y285198D01*
X197398Y285500D01*
X196602D01*
X195867Y285195D01*
X195305Y284633D01*
X195000Y283898D01*
Y283102D01*
X195305Y282367D01*
X195573Y282099D01*
Y225500D01*
X195573Y225500D01*
X195681Y224954D01*
X195991Y224491D01*
X212500Y207981D01*
Y207602D01*
X212805Y206867D01*
X213367Y206305D01*
X214102Y206000D01*
X214898D01*
X215633Y206305D01*
X216196Y206867D01*
X216292Y207101D01*
X216783Y207199D01*
X220000Y203981D01*
Y203602D01*
X220304Y202867D01*
X220867Y202305D01*
X221602Y202000D01*
X222398D01*
X223133Y202305D01*
X223695Y202867D01*
X224000Y203602D01*
Y204398D01*
X223695Y205133D01*
X223133Y205696D01*
X222398Y206000D01*
X222019D01*
X201927Y226091D01*
Y284599D01*
X202196Y284867D01*
X202500Y285602D01*
Y286398D01*
X202196Y287133D01*
X201633Y287696D01*
X200898Y288000D01*
D02*
G37*
G36*
X227453Y286760D02*
X224000D01*
Y284291D01*
X227453D01*
Y286760D01*
D02*
G37*
G36*
X223000D02*
X219547D01*
Y284291D01*
X223000D01*
Y286760D01*
D02*
G37*
G36*
X401587Y285555D02*
X398528D01*
Y282988D01*
X401587D01*
Y285555D01*
D02*
G37*
G36*
X397528D02*
X394468D01*
Y282988D01*
X397528D01*
Y285555D01*
D02*
G37*
G36*
X253592Y290000D02*
X252408D01*
X251263Y289693D01*
X250237Y289101D01*
X249399Y288263D01*
X248807Y287237D01*
X248500Y286092D01*
Y284908D01*
X248807Y283763D01*
X249399Y282737D01*
X250237Y281899D01*
X251263Y281307D01*
X252408Y281000D01*
X253592D01*
X254737Y281307D01*
X255763Y281899D01*
X256601Y282737D01*
X257193Y283763D01*
X257500Y284908D01*
Y286092D01*
X257193Y287237D01*
X256601Y288263D01*
X255763Y289101D01*
X254737Y289693D01*
X253592Y290000D01*
D02*
G37*
G36*
X379953Y279988D02*
X376500D01*
Y277520D01*
X379953D01*
Y279988D01*
D02*
G37*
G36*
X375500D02*
X372047D01*
Y277520D01*
X375500D01*
Y279988D01*
D02*
G37*
G36*
X490896Y286500D02*
X489711D01*
X488566Y286193D01*
X487540Y285601D01*
X486702Y284763D01*
X486110Y283737D01*
X485803Y282592D01*
Y281407D01*
X486110Y280263D01*
X486702Y279237D01*
X487540Y278399D01*
X488566Y277807D01*
X489711Y277500D01*
X490896D01*
X492040Y277807D01*
X493066Y278399D01*
X493904Y279237D01*
X494496Y280263D01*
X494803Y281407D01*
Y282592D01*
X494496Y283737D01*
X493904Y284763D01*
X493066Y285601D01*
X492040Y286193D01*
X490896Y286500D01*
D02*
G37*
G36*
X337953Y279760D02*
X334500D01*
Y277291D01*
X337953D01*
Y279760D01*
D02*
G37*
G36*
X333500D02*
X330047D01*
Y277291D01*
X333500D01*
Y279760D01*
D02*
G37*
G36*
X379953Y276520D02*
X376500D01*
Y274051D01*
X379953D01*
Y276520D01*
D02*
G37*
G36*
X375500D02*
X372047D01*
Y274051D01*
X375500D01*
Y276520D01*
D02*
G37*
G36*
X186092Y277000D02*
X184907D01*
X183763Y276693D01*
X182737Y276101D01*
X181899Y275263D01*
X181307Y274237D01*
X181000Y273093D01*
Y271908D01*
X181307Y270763D01*
X181899Y269737D01*
X182737Y268899D01*
X183763Y268307D01*
X184907Y268000D01*
X186092D01*
X187237Y268307D01*
X188263Y268899D01*
X189101Y269737D01*
X189693Y270763D01*
X190000Y271908D01*
Y273093D01*
X189693Y274237D01*
X189101Y275263D01*
X188263Y276101D01*
X187237Y276693D01*
X186092Y277000D01*
D02*
G37*
G36*
X490896Y276500D02*
X489711D01*
X488566Y276193D01*
X487540Y275601D01*
X486702Y274763D01*
X486110Y273737D01*
X485803Y272592D01*
Y271408D01*
X486110Y270263D01*
X486702Y269237D01*
X487540Y268399D01*
X488566Y267807D01*
X489711Y267500D01*
X490896D01*
X492040Y267807D01*
X493066Y268399D01*
X493904Y269237D01*
X494496Y270263D01*
X494803Y271408D01*
Y272592D01*
X494496Y273737D01*
X493904Y274763D01*
X493066Y275601D01*
X492040Y276193D01*
X490896Y276500D01*
D02*
G37*
G36*
X263592Y290000D02*
X262408D01*
X261263Y289693D01*
X260237Y289101D01*
X259399Y288263D01*
X258807Y287237D01*
X258500Y286092D01*
Y284908D01*
X258807Y283763D01*
X259399Y282737D01*
X260237Y281899D01*
X261263Y281307D01*
X261573Y281224D01*
Y273816D01*
X261573Y273816D01*
X261681Y273269D01*
X261991Y272806D01*
X263857Y270940D01*
X263740Y270350D01*
X263367Y270196D01*
X262805Y269633D01*
X262500Y268898D01*
Y268102D01*
X262805Y267367D01*
X263367Y266805D01*
X264102Y266500D01*
X264481D01*
X266236Y264746D01*
X266044Y264284D01*
X264947D01*
Y262743D01*
X262853D01*
Y264284D01*
X254947D01*
Y262786D01*
X251005D01*
X250979Y262884D01*
X250458Y263785D01*
X249722Y264521D01*
X248821Y265042D01*
X248723Y265068D01*
Y281205D01*
X248723Y281205D01*
X248614Y281751D01*
X248305Y282214D01*
X248305Y282214D01*
X247500Y283019D01*
Y290000D01*
X238500D01*
Y281000D01*
X245481D01*
X245868Y280613D01*
Y265068D01*
X245770Y265042D01*
X244868Y264521D01*
X244132Y263785D01*
X243612Y262884D01*
X243586Y262786D01*
X225658D01*
Y265311D01*
X217752D01*
Y257405D01*
X225658D01*
Y259931D01*
X243586D01*
X243612Y259833D01*
X244132Y258931D01*
X244868Y258195D01*
X245770Y257675D01*
X246775Y257405D01*
X247816D01*
X248821Y257675D01*
X249722Y258195D01*
X250458Y258931D01*
X250979Y259833D01*
X251005Y259931D01*
X254947D01*
Y258347D01*
X262853D01*
Y259888D01*
X264947D01*
Y258347D01*
X272853D01*
Y261291D01*
X273315Y261482D01*
X275380Y259417D01*
Y259193D01*
X275380Y259192D01*
X275489Y258646D01*
X275798Y258183D01*
X279500Y254481D01*
Y254102D01*
X279804Y253367D01*
X280367Y252804D01*
X281102Y252500D01*
X281898D01*
X282633Y252804D01*
X283195Y253367D01*
X283500Y254102D01*
Y254898D01*
X283195Y255633D01*
X282633Y256195D01*
X281898Y256500D01*
X281519D01*
X278235Y259784D01*
Y260008D01*
X278235Y260008D01*
X278126Y260554D01*
X277817Y261017D01*
X264427Y274407D01*
Y281224D01*
X264737Y281307D01*
X265763Y281899D01*
X266601Y282737D01*
X267193Y283763D01*
X267500Y284908D01*
Y286092D01*
X267193Y287237D01*
X266601Y288263D01*
X265763Y289101D01*
X264737Y289693D01*
X263592Y290000D01*
D02*
G37*
G36*
X186092Y267000D02*
X184907D01*
X183763Y266693D01*
X182737Y266101D01*
X181899Y265263D01*
X181307Y264237D01*
X181000Y263092D01*
Y261908D01*
X181307Y260763D01*
X181899Y259737D01*
X182737Y258899D01*
X183763Y258307D01*
X184907Y258000D01*
X186092D01*
X187237Y258307D01*
X188263Y258899D01*
X189101Y259737D01*
X189693Y260763D01*
X190000Y261908D01*
Y263092D01*
X189693Y264237D01*
X189101Y265263D01*
X188263Y266101D01*
X187237Y266693D01*
X186092Y267000D01*
D02*
G37*
G36*
X494803Y266500D02*
X485803D01*
Y257500D01*
X494803D01*
Y266500D01*
D02*
G37*
G36*
X262853Y256803D02*
X259400D01*
Y254335D01*
X262853D01*
Y256803D01*
D02*
G37*
G36*
X258400D02*
X254947D01*
Y254335D01*
X258400D01*
Y256803D01*
D02*
G37*
G36*
X262853Y253335D02*
X259400D01*
Y250866D01*
X262853D01*
Y253335D01*
D02*
G37*
G36*
X258400D02*
X254947D01*
Y250866D01*
X258400D01*
Y253335D01*
D02*
G37*
G36*
X186092Y257000D02*
X184907D01*
X183763Y256693D01*
X182737Y256101D01*
X181899Y255263D01*
X181307Y254237D01*
X181000Y253092D01*
Y251908D01*
X181307Y250763D01*
X181899Y249737D01*
X182737Y248899D01*
X183763Y248307D01*
X184907Y248000D01*
X186092D01*
X187237Y248307D01*
X188263Y248899D01*
X189101Y249737D01*
X189693Y250763D01*
X190000Y251908D01*
Y253092D01*
X189693Y254237D01*
X189101Y255263D01*
X188263Y256101D01*
X187237Y256693D01*
X186092Y257000D01*
D02*
G37*
G36*
X490896Y253500D02*
X489711D01*
X488566Y253193D01*
X487540Y252601D01*
X486702Y251763D01*
X486110Y250737D01*
X485803Y249592D01*
Y248408D01*
X486110Y247263D01*
X486702Y246237D01*
X487540Y245399D01*
X488566Y244807D01*
X489711Y244500D01*
X490896D01*
X492040Y244807D01*
X493066Y245399D01*
X493904Y246237D01*
X494496Y247263D01*
X494803Y248408D01*
Y249592D01*
X494496Y250737D01*
X493904Y251763D01*
X493066Y252601D01*
X492040Y253193D01*
X490896Y253500D01*
D02*
G37*
G36*
X352000Y248051D02*
X350319D01*
Y244500D01*
X352000D01*
Y248051D01*
D02*
G37*
G36*
X247816Y247594D02*
X247795D01*
Y244142D01*
X251248D01*
Y244162D01*
X250979Y245167D01*
X250458Y246069D01*
X249722Y246805D01*
X248821Y247325D01*
X247816Y247594D01*
D02*
G37*
G36*
X246795D02*
X246775D01*
X245770Y247325D01*
X244868Y246805D01*
X244132Y246069D01*
X243612Y245167D01*
X243342Y244162D01*
Y244142D01*
X246795D01*
Y247594D01*
D02*
G37*
G36*
X222225D02*
X222205D01*
Y244142D01*
X225658D01*
Y244162D01*
X225388Y245167D01*
X224868Y246069D01*
X224132Y246805D01*
X223230Y247325D01*
X222225Y247594D01*
D02*
G37*
G36*
X221205D02*
X221184D01*
X220179Y247325D01*
X219278Y246805D01*
X218542Y246069D01*
X218021Y245167D01*
X217752Y244162D01*
Y244142D01*
X221205D01*
Y247594D01*
D02*
G37*
G36*
X354681Y243500D02*
X353000D01*
Y239949D01*
X354681D01*
Y243500D01*
D02*
G37*
G36*
X352000D02*
X350319D01*
Y239949D01*
X352000D01*
Y243500D01*
D02*
G37*
G36*
X225658Y243142D02*
X222205D01*
Y239689D01*
X222225D01*
X223230Y239958D01*
X224132Y240479D01*
X224868Y241215D01*
X225388Y242116D01*
X225658Y243121D01*
Y243142D01*
D02*
G37*
G36*
X221205D02*
X217752D01*
Y243121D01*
X218021Y242116D01*
X218542Y241215D01*
X219278Y240479D01*
X220179Y239958D01*
X221184Y239689D01*
X221205D01*
Y243142D01*
D02*
G37*
G36*
X190000Y247000D02*
X181000D01*
Y238000D01*
X190000D01*
Y247000D01*
D02*
G37*
G36*
X207398Y256000D02*
X206602D01*
X205867Y255696D01*
X205305Y255133D01*
X205000Y254398D01*
Y253602D01*
X205305Y252867D01*
X205573Y252599D01*
Y229000D01*
X205573Y229000D01*
X205681Y228454D01*
X205991Y227991D01*
X221000Y212981D01*
Y212602D01*
X221304Y211867D01*
X221867Y211304D01*
X222602Y211000D01*
X223398D01*
X224065Y211277D01*
X224566Y211084D01*
Y199494D01*
X213014Y187943D01*
X212737Y188103D01*
X211592Y188409D01*
X210407D01*
X209263Y188103D01*
X208237Y187510D01*
X207399Y186672D01*
X206807Y185646D01*
X206500Y184502D01*
Y183317D01*
X206807Y182172D01*
X207399Y181146D01*
X208237Y180308D01*
X209263Y179716D01*
X210407Y179409D01*
X211592D01*
X212737Y179716D01*
X213763Y180308D01*
X214601Y181146D01*
X215193Y182172D01*
X215500Y183317D01*
Y184502D01*
X215193Y185646D01*
X215033Y185924D01*
X227002Y197893D01*
X227002Y197893D01*
X227312Y198356D01*
X227420Y198902D01*
X227420Y198902D01*
Y218242D01*
X238829Y229651D01*
X239291Y229460D01*
Y229000D01*
X242260D01*
X245228D01*
Y232453D01*
X242284D01*
X242093Y232915D01*
X245251Y236073D01*
X247599D01*
X247867Y235805D01*
X248602Y235500D01*
X249398D01*
X250133Y235805D01*
X250695Y236367D01*
X251000Y237102D01*
Y237898D01*
X250695Y238633D01*
X250133Y239195D01*
X249398Y239500D01*
X249271D01*
X249192Y239595D01*
X249310Y240241D01*
X249722Y240479D01*
X250458Y241215D01*
X250979Y242116D01*
X251248Y243121D01*
Y243142D01*
X243342D01*
Y243121D01*
X243612Y242116D01*
X244132Y241215D01*
X244868Y240479D01*
X245770Y239958D01*
X246775Y239689D01*
X247611D01*
X247778Y239189D01*
X247539Y238927D01*
X244659D01*
X244659Y238927D01*
X244113Y238819D01*
X243650Y238509D01*
X243650Y238509D01*
X224984Y219843D01*
X224674Y219380D01*
X224566Y218834D01*
X224566Y218833D01*
Y214916D01*
X224065Y214723D01*
X223398Y215000D01*
X223019D01*
X208427Y229591D01*
Y252599D01*
X208696Y252867D01*
X209000Y253602D01*
Y254398D01*
X208696Y255133D01*
X208133Y255696D01*
X207398Y256000D01*
D02*
G37*
G36*
X326953Y232228D02*
X323500D01*
Y229760D01*
X326953D01*
Y232228D01*
D02*
G37*
G36*
X336953D02*
X333500D01*
Y229760D01*
X336953D01*
Y232228D01*
D02*
G37*
G36*
X322500D02*
X319047D01*
Y229760D01*
X322500D01*
Y232228D01*
D02*
G37*
G36*
X332500D02*
X329047D01*
Y229760D01*
X332500D01*
Y232228D01*
D02*
G37*
G36*
X280110Y229949D02*
X278921D01*
Y227874D01*
X280110D01*
Y229949D01*
D02*
G37*
G36*
X336953Y228760D02*
X333500D01*
Y226291D01*
X336953D01*
Y228760D01*
D02*
G37*
G36*
X332500D02*
X329047D01*
Y226291D01*
X332500D01*
Y228760D01*
D02*
G37*
G36*
X326953D02*
X323500D01*
Y226291D01*
X326953D01*
Y228760D01*
D02*
G37*
G36*
X322500D02*
X319047D01*
Y226291D01*
X322500D01*
Y228760D01*
D02*
G37*
G36*
X186092Y234500D02*
X184907D01*
X183763Y234193D01*
X182737Y233601D01*
X181899Y232763D01*
X181307Y231737D01*
X181000Y230592D01*
Y229408D01*
X181307Y228263D01*
X181899Y227237D01*
X182737Y226399D01*
X183763Y225807D01*
X184907Y225500D01*
X186092D01*
X187237Y225807D01*
X188263Y226399D01*
X189101Y227237D01*
X189693Y228263D01*
X190000Y229408D01*
Y230592D01*
X189693Y231737D01*
X189101Y232763D01*
X188263Y233601D01*
X187237Y234193D01*
X186092Y234500D01*
D02*
G37*
G36*
X245228Y228000D02*
X242760D01*
Y224547D01*
X245228D01*
Y228000D01*
D02*
G37*
G36*
X241760D02*
X239291D01*
Y224547D01*
X241760D01*
Y228000D01*
D02*
G37*
G36*
X354681Y226791D02*
X350319D01*
Y221717D01*
X350000Y221528D01*
X349681Y221717D01*
Y226791D01*
X345319D01*
Y218689D01*
X346990D01*
Y212453D01*
X343291D01*
Y204547D01*
X346990D01*
Y194675D01*
X346593Y194277D01*
X345598Y194543D01*
X344402D01*
X343246Y194234D01*
X342210Y193635D01*
X341365Y192790D01*
X340766Y191754D01*
X340457Y190598D01*
Y189402D01*
X340766Y188246D01*
X341365Y187210D01*
X342210Y186364D01*
X343246Y185766D01*
X344402Y185457D01*
X345598D01*
X346754Y185766D01*
X347790Y186364D01*
X348636Y187210D01*
X349234Y188246D01*
X349543Y189402D01*
Y190598D01*
X349277Y191593D01*
X350000Y192316D01*
X350723Y191593D01*
X350457Y190598D01*
Y189402D01*
X350766Y188246D01*
X351364Y187210D01*
X352210Y186364D01*
X353246Y185766D01*
X354402Y185457D01*
X355598D01*
X356754Y185766D01*
X357790Y186364D01*
X358635Y187210D01*
X359234Y188246D01*
X359543Y189402D01*
Y190598D01*
X359234Y191754D01*
X358635Y192790D01*
X357790Y193635D01*
X356754Y194234D01*
X355598Y194543D01*
X354402D01*
X353407Y194277D01*
X353010Y194675D01*
Y204547D01*
X356709D01*
Y212453D01*
X353010D01*
Y218689D01*
X354681D01*
Y226791D01*
D02*
G37*
G36*
X245228Y222453D02*
X242760D01*
Y219000D01*
X245228D01*
Y222453D01*
D02*
G37*
G36*
X241760D02*
X239291D01*
Y219000D01*
X241760D01*
Y222453D01*
D02*
G37*
G36*
X359681Y226791D02*
X355319D01*
Y218689D01*
X359681D01*
Y226791D01*
D02*
G37*
G36*
X190000Y224500D02*
X181000D01*
Y215500D01*
X190000D01*
Y224500D01*
D02*
G37*
G36*
X245228Y218000D02*
X242760D01*
Y214547D01*
X245228D01*
Y218000D01*
D02*
G37*
G36*
X241760D02*
X239291D01*
Y214547D01*
X241760D01*
Y218000D01*
D02*
G37*
G36*
X490896Y223500D02*
X489711D01*
X488566Y223193D01*
X487540Y222601D01*
X486702Y221763D01*
X486110Y220737D01*
X485803Y219592D01*
Y218408D01*
X486110Y217263D01*
X486702Y216237D01*
X487540Y215399D01*
X488566Y214807D01*
X489711Y214500D01*
X490896D01*
X492040Y214807D01*
X493066Y215399D01*
X493904Y216237D01*
X494496Y217263D01*
X494803Y218408D01*
Y219592D01*
X494496Y220737D01*
X493904Y221763D01*
X493066Y222601D01*
X492040Y223193D01*
X490896Y223500D01*
D02*
G37*
G36*
X447360Y225746D02*
X446564D01*
X445829Y225442D01*
X445266Y224879D01*
X444962Y224144D01*
Y223348D01*
X445266Y222613D01*
X445829Y222051D01*
X446564Y221746D01*
X446943D01*
X453073Y215617D01*
Y214401D01*
X452805Y214133D01*
X452500Y213398D01*
Y212602D01*
X452805Y211867D01*
X453367Y211304D01*
X454102Y211000D01*
X454898D01*
X455633Y211304D01*
X456195Y211867D01*
X456500Y212602D01*
Y213398D01*
X456195Y214133D01*
X455927Y214401D01*
Y216208D01*
X455927Y216208D01*
X455819Y216755D01*
X455509Y217217D01*
X455509Y217218D01*
X448962Y223765D01*
Y224144D01*
X448657Y224879D01*
X448095Y225442D01*
X447360Y225746D01*
D02*
G37*
G36*
X280110Y211126D02*
X278921D01*
Y209051D01*
X280110D01*
Y211126D01*
D02*
G37*
G36*
X254728Y210453D02*
X252260D01*
Y207000D01*
X254728D01*
Y210453D01*
D02*
G37*
G36*
X251260D02*
X248791D01*
Y207000D01*
X251260D01*
Y210453D01*
D02*
G37*
G36*
X288500Y208968D02*
X285047D01*
Y206500D01*
X288500D01*
Y208968D01*
D02*
G37*
G36*
Y205500D02*
X285047D01*
Y203031D01*
X288500D01*
Y205500D01*
D02*
G37*
G36*
X254728Y206000D02*
X252260D01*
Y202547D01*
X254728D01*
Y206000D01*
D02*
G37*
G36*
X251260D02*
X248791D01*
Y202547D01*
X251260D01*
Y206000D01*
D02*
G37*
G36*
X282398Y197500D02*
X281602D01*
X280867Y197195D01*
X280599Y196927D01*
X232591D01*
X232591Y196927D01*
X232044Y196819D01*
X231581Y196509D01*
X231581Y196509D01*
X223014Y187943D01*
X222737Y188103D01*
X221592Y188409D01*
X220408D01*
X219263Y188103D01*
X218237Y187510D01*
X217399Y186672D01*
X216807Y185646D01*
X216500Y184502D01*
Y183317D01*
X216807Y182172D01*
X217399Y181146D01*
X218237Y180308D01*
X219263Y179716D01*
X220408Y179409D01*
X221592D01*
X222737Y179716D01*
X223763Y180308D01*
X224601Y181146D01*
X225193Y182172D01*
X225500Y183317D01*
Y184502D01*
X225193Y185646D01*
X225033Y185924D01*
X233182Y194073D01*
X279618D01*
X279872Y193573D01*
X279765Y193427D01*
X249091D01*
X248544Y193319D01*
X248081Y193009D01*
X248081Y193009D01*
X243014Y187943D01*
X242737Y188103D01*
X241593Y188409D01*
X240408D01*
X239263Y188103D01*
X238237Y187510D01*
X237399Y186672D01*
X236807Y185646D01*
X236500Y184502D01*
Y183317D01*
X236807Y182173D01*
X237399Y181146D01*
X238237Y180308D01*
X239263Y179716D01*
X240408Y179409D01*
X241593D01*
X242737Y179716D01*
X243763Y180308D01*
X244601Y181146D01*
X245193Y182173D01*
X245500Y183317D01*
Y184502D01*
X245193Y185646D01*
X245033Y185924D01*
X249682Y190573D01*
X280099D01*
X280367Y190305D01*
X281102Y190000D01*
X281898D01*
X282633Y190305D01*
X283195Y190867D01*
X283500Y191602D01*
Y192398D01*
X283195Y193133D01*
X283020Y193308D01*
X283118Y193798D01*
X283133Y193805D01*
X283696Y194367D01*
X284000Y195102D01*
Y195898D01*
X283696Y196633D01*
X283133Y197195D01*
X282398Y197500D01*
D02*
G37*
G36*
X191967Y210736D02*
X190529D01*
X189119Y210456D01*
X187791Y209906D01*
X186595Y209107D01*
X185578Y208090D01*
X184780Y206894D01*
X184229Y205566D01*
X183949Y204156D01*
Y202718D01*
X184229Y201308D01*
X184780Y199979D01*
X185578Y198784D01*
X186595Y197767D01*
X187791Y196968D01*
X189119Y196418D01*
X190529Y196138D01*
X191967D01*
X193377Y196418D01*
X194705Y196968D01*
X195901Y197767D01*
X196918Y198784D01*
X197716Y199979D01*
X198267Y201308D01*
X198547Y202718D01*
Y204156D01*
X198267Y205566D01*
X197716Y206894D01*
X196918Y208090D01*
X195901Y209107D01*
X194705Y209906D01*
X193377Y210456D01*
X191967Y210736D01*
D02*
G37*
G36*
X387898Y236500D02*
X387102D01*
X386367Y236195D01*
X385805Y235633D01*
X385500Y234898D01*
Y234102D01*
X385805Y233367D01*
X386073Y233099D01*
Y188186D01*
X385763Y188103D01*
X384737Y187510D01*
X383899Y186672D01*
X383307Y185646D01*
X383000Y184502D01*
Y183317D01*
X383307Y182172D01*
X383899Y181146D01*
X384737Y180308D01*
X385763Y179716D01*
X386908Y179409D01*
X388092D01*
X389237Y179716D01*
X390263Y180308D01*
X391101Y181146D01*
X391693Y182172D01*
X392000Y183317D01*
Y184502D01*
X391693Y185646D01*
X391101Y186672D01*
X390263Y187510D01*
X389237Y188103D01*
X388927Y188186D01*
Y200091D01*
X389427Y200279D01*
X390102Y200000D01*
X390898D01*
X391633Y200305D01*
X391901Y200573D01*
X407409D01*
X411491Y196491D01*
X411491Y196491D01*
X411954Y196181D01*
X412500Y196073D01*
X412500Y196073D01*
X419099D01*
X419367Y195805D01*
X420102Y195500D01*
X420898D01*
X421633Y195805D01*
X422195Y196367D01*
X422500Y197102D01*
Y197898D01*
X422195Y198633D01*
X421633Y199196D01*
X420898Y199500D01*
X420102D01*
X419367Y199196D01*
X419099Y198927D01*
X413091D01*
X409009Y203009D01*
X408546Y203319D01*
X408000Y203427D01*
X408000Y203427D01*
X391901D01*
X391633Y203696D01*
X390898Y204000D01*
X390102D01*
X389427Y203720D01*
X388927Y203909D01*
Y233099D01*
X389195Y233367D01*
X389500Y234102D01*
Y234898D01*
X389195Y235633D01*
X388633Y236195D01*
X387898Y236500D01*
D02*
G37*
G36*
X369543Y194543D02*
X365500D01*
Y190500D01*
X369543D01*
Y194543D01*
D02*
G37*
G36*
X364500D02*
X360457D01*
Y190500D01*
X364500D01*
Y194543D01*
D02*
G37*
G36*
X369543Y189500D02*
X365500D01*
Y185457D01*
X369543D01*
Y189500D01*
D02*
G37*
G36*
X364500D02*
X360457D01*
Y185457D01*
X364500D01*
Y189500D01*
D02*
G37*
G36*
X494803Y193500D02*
X485803D01*
Y184500D01*
X494803D01*
Y193500D01*
D02*
G37*
G36*
X284092Y188409D02*
X284000D01*
Y184409D01*
X288000D01*
Y184502D01*
X287693Y185646D01*
X287101Y186672D01*
X286263Y187510D01*
X285237Y188103D01*
X284092Y188409D01*
D02*
G37*
G36*
X283000D02*
X282908D01*
X281763Y188103D01*
X280737Y187510D01*
X279899Y186672D01*
X279307Y185646D01*
X279000Y184502D01*
Y184409D01*
X283000D01*
Y188409D01*
D02*
G37*
G36*
X288000Y183410D02*
X284000D01*
Y179410D01*
X284092D01*
X285237Y179716D01*
X286263Y180309D01*
X287101Y181146D01*
X287693Y182173D01*
X288000Y183317D01*
Y183410D01*
D02*
G37*
G36*
X283000D02*
X279000D01*
Y183317D01*
X279307Y182173D01*
X279899Y181146D01*
X280737Y180309D01*
X281763Y179716D01*
X282908Y179410D01*
X283000D01*
Y183410D01*
D02*
G37*
G36*
X278000Y188409D02*
X269000D01*
Y179409D01*
X278000D01*
Y188409D01*
D02*
G37*
G36*
X265500D02*
X256500D01*
Y179409D01*
X265500D01*
Y188409D01*
D02*
G37*
G36*
X251592Y188409D02*
X250408D01*
X249263Y188103D01*
X248237Y187510D01*
X247399Y186672D01*
X246807Y185646D01*
X246500Y184502D01*
Y183317D01*
X246807Y182173D01*
X247399Y181146D01*
X248237Y180308D01*
X249263Y179716D01*
X250408Y179409D01*
X251592D01*
X252737Y179716D01*
X253763Y180308D01*
X254601Y181146D01*
X255193Y182173D01*
X255500Y183317D01*
Y184502D01*
X255193Y185646D01*
X254601Y186672D01*
X253763Y187510D01*
X252737Y188103D01*
X251592Y188409D01*
D02*
G37*
G36*
X231592Y188409D02*
X230408D01*
X229263Y188103D01*
X228237Y187510D01*
X227399Y186672D01*
X226807Y185646D01*
X226500Y184502D01*
Y183317D01*
X226807Y182173D01*
X227399Y181146D01*
X228237Y180308D01*
X229263Y179716D01*
X230408Y179409D01*
X231592D01*
X232737Y179716D01*
X233763Y180308D01*
X234601Y181146D01*
X235193Y182173D01*
X235500Y183317D01*
Y184502D01*
X235193Y185646D01*
X234601Y186672D01*
X233763Y187510D01*
X232737Y188103D01*
X231592Y188409D01*
D02*
G37*
G36*
X418092Y188409D02*
X416908D01*
X415763Y188103D01*
X414737Y187510D01*
X413899Y186672D01*
X413307Y185646D01*
X413000Y184502D01*
Y183317D01*
X413307Y182172D01*
X413899Y181146D01*
X414737Y180308D01*
X415763Y179716D01*
X416908Y179409D01*
X418092D01*
X419237Y179716D01*
X420263Y180308D01*
X421101Y181146D01*
X421693Y182172D01*
X422000Y183317D01*
Y184502D01*
X421693Y185646D01*
X421101Y186672D01*
X420263Y187510D01*
X419237Y188103D01*
X418092Y188409D01*
D02*
G37*
G36*
X393898Y199500D02*
X393102D01*
X392367Y199196D01*
X391805Y198633D01*
X391500Y197898D01*
Y197102D01*
X391805Y196367D01*
X392367Y195805D01*
X393102Y195500D01*
X393686D01*
X403392Y185794D01*
X403307Y185646D01*
X403000Y184502D01*
Y183317D01*
X403307Y182172D01*
X403899Y181146D01*
X404737Y180308D01*
X405763Y179716D01*
X406908Y179409D01*
X408092D01*
X409237Y179716D01*
X410263Y180308D01*
X411101Y181146D01*
X411693Y182172D01*
X412000Y183317D01*
Y184502D01*
X411693Y185646D01*
X411101Y186672D01*
X410263Y187510D01*
X409237Y188103D01*
X408092Y188409D01*
X406908D01*
X405763Y188103D01*
X405356Y187868D01*
X395500Y197723D01*
Y197898D01*
X395196Y198633D01*
X394633Y199196D01*
X393898Y199500D01*
D02*
G37*
G36*
X398092Y188409D02*
X396907D01*
X395763Y188103D01*
X394737Y187510D01*
X393899Y186672D01*
X393307Y185646D01*
X393000Y184502D01*
Y183317D01*
X393307Y182172D01*
X393899Y181146D01*
X394737Y180308D01*
X395763Y179716D01*
X396907Y179409D01*
X398092D01*
X399237Y179716D01*
X400263Y180308D01*
X401101Y181146D01*
X401693Y182172D01*
X402000Y183317D01*
Y184502D01*
X401693Y185646D01*
X401101Y186672D01*
X400263Y187510D01*
X399237Y188103D01*
X398092Y188409D01*
D02*
G37*
G36*
X201592D02*
X200408D01*
X199263Y188103D01*
X198237Y187510D01*
X197399Y186672D01*
X196807Y185646D01*
X196500Y184502D01*
Y183317D01*
X196807Y182172D01*
X197399Y181146D01*
X198237Y180308D01*
X199263Y179716D01*
X200408Y179409D01*
X201592D01*
X202737Y179716D01*
X203763Y180308D01*
X204601Y181146D01*
X205193Y182172D01*
X205500Y183317D01*
Y184502D01*
X205193Y185646D01*
X204601Y186672D01*
X203763Y187510D01*
X202737Y188103D01*
X201592Y188409D01*
D02*
G37*
G36*
X191592Y188409D02*
X190408D01*
X189263Y188103D01*
X188237Y187510D01*
X187399Y186672D01*
X186807Y185646D01*
X186500Y184502D01*
Y183317D01*
X186807Y182172D01*
X187399Y181146D01*
X188237Y180308D01*
X189263Y179716D01*
X190408Y179409D01*
X191592D01*
X192737Y179716D01*
X193763Y180308D01*
X194601Y181146D01*
X195193Y182172D01*
X195500Y183317D01*
Y184502D01*
X195193Y185646D01*
X194601Y186672D01*
X193763Y187510D01*
X192737Y188103D01*
X191592Y188409D01*
D02*
G37*
G36*
X412949Y326953D02*
X410480D01*
Y323500D01*
X412949D01*
Y326953D01*
D02*
G37*
G36*
X409480D02*
X407012D01*
Y323500D01*
X409480D01*
Y326953D01*
D02*
G37*
G36*
X439657Y325358D02*
X436205D01*
Y321905D01*
X436225D01*
X437230Y322175D01*
X438132Y322695D01*
X438868Y323431D01*
X439388Y324333D01*
X439657Y325338D01*
Y325358D01*
D02*
G37*
G36*
X435205D02*
X431752D01*
Y325338D01*
X432021Y324333D01*
X432542Y323431D01*
X433278Y322695D01*
X434179Y322175D01*
X435184Y321905D01*
X435205D01*
Y325358D01*
D02*
G37*
G36*
X412949Y322500D02*
X410480D01*
Y319047D01*
X412949D01*
Y322500D01*
D02*
G37*
G36*
X409480D02*
X407012D01*
Y319047D01*
X409480D01*
Y322500D01*
D02*
G37*
G36*
X447200Y315627D02*
X446654Y315519D01*
X446191Y315209D01*
X445991Y315009D01*
X445681Y314546D01*
X445573Y314000D01*
X445681Y313454D01*
X445991Y312991D01*
X446454Y312681D01*
X447000Y312573D01*
X447546Y312681D01*
X448009Y312991D01*
X448209Y313191D01*
X448519Y313654D01*
X448627Y314200D01*
X448519Y314746D01*
X448209Y315209D01*
X447746Y315519D01*
X447200Y315627D01*
D02*
G37*
G36*
X412968Y315953D02*
X410500D01*
Y312500D01*
X412968D01*
Y315953D01*
D02*
G37*
G36*
X409500D02*
X407031D01*
Y312500D01*
X409500D01*
Y315953D01*
D02*
G37*
%LPD*%
D10*
X268579Y227374D02*
Y230134D01*
X266000Y231000D02*
X267713D01*
X268579Y230134D01*
X261521Y226792D02*
X261608Y226705D01*
X262579Y224421D02*
X265724D01*
X261608Y225392D02*
Y226705D01*
Y225392D02*
X262579Y224421D01*
X252718Y222453D02*
X265724D01*
X249740Y227516D02*
X250172Y227084D01*
X249740Y227516D02*
Y228500D01*
X250172Y224999D02*
X252718Y222453D01*
X250172Y224999D02*
Y227084D01*
X281422Y216401D02*
X288649D01*
X289000Y216050D01*
Y213480D02*
Y216050D01*
X281276Y216547D02*
X281422Y216401D01*
X273500Y219303D02*
X278421Y214382D01*
Y211626D02*
Y214382D01*
X273500Y219303D02*
Y219500D01*
X275665Y221665D02*
X278318Y224318D01*
X273500Y219500D02*
X275665Y221665D01*
X278318Y227271D02*
X278421Y227374D01*
X278318Y224318D02*
Y227271D01*
X271335Y217335D02*
X273500Y219500D01*
X270547Y216547D02*
X271335Y217335D01*
X265724Y216547D02*
X270547D01*
X265724Y220484D02*
X272516D01*
X249740Y218500D02*
X249756Y218516D01*
X265724D01*
D14*
X421306Y321546D02*
Y323806D01*
X420500Y320740D02*
X421306Y321546D01*
Y323806D02*
X428600Y331100D01*
X454732D01*
X455347Y331051D02*
X455500Y330898D01*
X454781Y331051D02*
X455347D01*
X454732Y331100D02*
X454781Y331051D01*
X306740Y393500D02*
X307318D01*
X300938D02*
X306740D01*
X365500Y395336D02*
X389164D01*
X351381D02*
X365500D01*
X331000Y324500D02*
Y339145D01*
X299016Y306000D02*
Y306000D01*
X278013Y244514D02*
Y245013D01*
Y243227D02*
Y244514D01*
X431317Y353183D02*
X442764D01*
X389164Y395336D02*
X431317Y353183D01*
X278013Y245013D02*
X288160Y255160D01*
Y261000D01*
X268900Y252340D02*
Y253835D01*
Y252340D02*
X278013Y243227D01*
X266000Y363740D02*
X266240Y363500D01*
X267292Y372028D02*
X267500D01*
X266000Y370736D02*
X267292Y372028D01*
X266000Y363740D02*
Y370736D01*
X274000Y363500D02*
X276000D01*
X289000Y306000D02*
X299016D01*
X266240Y363500D02*
X274000D01*
X290904Y346596D01*
X301740Y342240D02*
Y347000D01*
X301138Y341638D02*
X303862D01*
X301138D02*
X301740Y342240D01*
X297362Y341638D02*
X301138D01*
X348500Y392455D02*
X351381Y395336D01*
X348500Y388740D02*
Y392455D01*
X339976Y408768D02*
X343268D01*
X369000Y434500D02*
Y439500D01*
X343268Y408768D02*
X369000Y434500D01*
Y439500D02*
X369000Y439500D01*
X276000Y363500D02*
X292500Y380000D01*
X290904Y343473D02*
Y346596D01*
X267500Y371481D02*
Y372028D01*
X266953Y371481D02*
X267500Y372028D01*
X231516Y374500D02*
X232260D01*
X218158D02*
X231516D01*
X353500Y296740D02*
Y300500D01*
Y296500D02*
Y296740D01*
X350500Y303500D02*
Y309177D01*
Y303500D02*
X353500Y300500D01*
X331000Y324500D02*
X343500Y312000D01*
X291500Y275500D02*
Y291000D01*
X288160Y272783D02*
X288973Y273596D01*
X289596D02*
X291500Y275500D01*
X288973Y273596D02*
X289596D01*
X232260Y374500D02*
X232500Y374260D01*
X243787D01*
X267500Y372028D02*
Y397972D01*
X295224Y339500D02*
X297362Y341638D01*
X343500Y312000D02*
X347677D01*
X350500Y309177D01*
X303862Y341638D02*
X304000Y341500D01*
X299016Y306000D02*
X300000D01*
X291000Y339500D02*
X295224D01*
X288160Y261000D02*
Y272783D01*
X290904Y343473D02*
X291000Y343376D01*
Y339500D02*
Y343376D01*
X258740Y346500D02*
X259240Y346000D01*
X379000Y439500D02*
X379000Y439500D01*
X369000Y439500D02*
X379000D01*
X258484Y397712D02*
Y397972D01*
X243787Y383015D02*
X258484Y397712D01*
X243787Y374260D02*
Y383015D01*
X307318Y393500D02*
X310500D01*
X258484Y397972D02*
Y401484D01*
X259500Y402500D01*
X291938D01*
X300938Y393500D01*
X200500Y374520D02*
X200520Y374500D01*
X212842D01*
X200000Y359874D02*
X200500Y360374D01*
Y374520D01*
X200000Y330008D02*
Y344126D01*
Y314928D02*
Y330008D01*
X210553Y324368D02*
X211134Y324949D01*
X208163Y324368D02*
X210553D01*
X208006Y324211D02*
X208163Y324368D01*
X205797Y324211D02*
X208006D01*
X200000Y330008D02*
X205797Y324211D01*
X200000Y330008D02*
Y331500D01*
X210553Y306632D02*
X211134Y306051D01*
X208295Y306632D02*
X210553D01*
X200000Y314928D02*
X208295Y306632D01*
D15*
X216254Y316618D02*
X217082D01*
X220036Y317500D02*
X220477Y317059D01*
X215575Y317297D02*
X216254Y316618D01*
X214075Y318218D02*
X214696D01*
X220036Y312500D02*
X220477Y312941D01*
X222740D01*
X214696Y318218D02*
X215575Y317340D01*
X222740Y312941D02*
X222831Y313032D01*
X215000Y315464D02*
X217965Y312500D01*
X217082Y316618D02*
X217965Y317500D01*
X220036D01*
X220477Y317059D02*
X222740D01*
X215000Y315464D02*
Y315750D01*
X214075Y316675D02*
Y316719D01*
X217965Y312500D02*
X220036D01*
X222740Y317059D02*
X222831Y316968D01*
X214075Y316675D02*
X215000Y315750D01*
X215575Y317297D02*
Y317340D01*
X211224Y318362D02*
X213931D01*
X211134Y318453D02*
X211224Y318362D01*
X213931D02*
X214075Y318218D01*
X213931Y316575D02*
X214075Y316719D01*
X211134Y316484D02*
X211224Y316575D01*
X213931D01*
X208337Y318362D02*
X211043D01*
X207583Y317608D02*
X208337Y318362D01*
X211043D02*
X211134Y318453D01*
X207583Y315360D02*
Y317608D01*
Y315360D02*
X208337Y314606D01*
X211043D01*
X211134Y314516D01*
X213931Y316394D02*
X214685Y315640D01*
X213931Y312638D02*
X214685Y313392D01*
X211224Y312638D02*
X213931D01*
X211134Y312547D02*
X211224Y312638D01*
X214685Y313392D02*
Y315640D01*
X308844Y314660D02*
X308862Y314642D01*
X305567Y314660D02*
X308844D01*
X308781Y316691D02*
X308862Y316610D01*
X305472Y316691D02*
X308781D01*
X305280Y316882D02*
X305472Y316691D01*
D16*
X333000Y236740D02*
X344129D01*
X347500Y240111D02*
Y244000D01*
X344129Y236740D02*
X347500Y240111D01*
X350500Y341000D02*
X356000Y346500D01*
X361260D01*
X281276Y224421D02*
X281432Y224578D01*
X293500Y183909D02*
Y234500D01*
X283578Y224578D02*
X293500Y234500D01*
X281432Y224578D02*
X283578D01*
X259240Y206500D02*
X265698D01*
X268521Y211568D02*
X268579Y211626D01*
X265698Y206500D02*
X268521Y209323D01*
Y211568D01*
X420500Y307860D02*
X435423D01*
X388134D02*
X420500D01*
Y313260D01*
X450000Y324712D02*
Y328500D01*
X377500Y327500D02*
X383298Y333298D01*
X470917D01*
X472215Y332000D01*
X363000Y378417D02*
Y383000D01*
X365500Y374000D02*
Y395336D01*
X361260Y369760D02*
X365500Y374000D01*
X361260Y356000D02*
Y369760D01*
X351818Y359000D02*
X354500D01*
X357500Y356000D02*
X361260D01*
X354500Y359000D02*
X357500Y356000D01*
X361260Y346500D02*
Y356000D01*
X348500Y388740D02*
X357260D01*
X363000Y383000D01*
X322332Y296252D02*
X323267D01*
X320673Y300862D02*
X320721Y300815D01*
Y297863D02*
X322332Y296252D01*
X320721Y297863D02*
Y300815D01*
X323267Y296252D02*
X323497Y296022D01*
X322808Y289317D02*
X324260D01*
X332484Y297542D01*
Y300862D01*
X322354Y289770D02*
X322808Y289317D01*
X316571Y292500D02*
X323000D01*
X321230Y289770D02*
X322354D01*
X313500Y277290D02*
X323210Y287000D01*
X324500D01*
X334500Y297000D01*
X323549Y285329D02*
X324671D01*
X313220Y275000D02*
X323549Y285329D01*
X324671D02*
X336421Y297079D01*
Y300862D01*
X334272Y300681D02*
X334453Y300862D01*
X334453Y297047D02*
X334500Y297000D01*
X324671Y285329D02*
X326000Y284000D01*
X334453Y297047D02*
Y300862D01*
X326000Y284000D02*
X339000D01*
X313500Y277290D02*
Y282500D01*
Y277249D02*
Y277290D01*
X357458Y324484D02*
X359843Y322100D01*
X366500D01*
X354138Y324484D02*
X357458D01*
X357453Y326453D02*
X359005Y324900D01*
X363500D01*
X354138Y326453D02*
X357453D01*
X338390Y350390D02*
X350000Y362000D01*
X354000D01*
X338390Y346138D02*
Y350390D01*
Y346138D02*
X338571Y346319D01*
X344295Y346138D02*
X344476Y346319D01*
X344295Y346138D02*
Y349639D01*
X351088Y348088D02*
X354500Y351500D01*
X344295Y349639D02*
X348848Y354192D01*
X350254D01*
X351735Y355673D02*
X351885D01*
X342327Y349509D02*
X351818Y359000D01*
X342327Y346138D02*
Y349509D01*
X350254Y354192D02*
X351735Y355673D01*
X340358Y343477D02*
Y346138D01*
Y343477D02*
X344335Y339500D01*
X332484Y343477D02*
Y346138D01*
Y343477D02*
X333361Y342600D01*
X334300Y341700D02*
X335533D01*
X333400Y342600D02*
X334300Y341700D01*
X333361Y342600D02*
X333400D01*
X335533Y341700D02*
X343733Y333500D01*
X347500D01*
X333139Y340400D02*
X334994D01*
X330516Y343024D02*
Y346138D01*
Y343024D02*
X333139Y340400D01*
X334994D02*
X343194Y332200D01*
X344300D01*
X293028Y336295D02*
X316099D01*
X315000Y333867D02*
Y333895D01*
X311704Y330571D02*
X315000Y333867D01*
X316099Y336295D02*
X318900Y333494D01*
X435705Y308142D02*
X461295D01*
X472215Y332000D02*
X490303D01*
X353500Y296740D02*
X363500D01*
X346771D02*
X353500D01*
X450000Y324712D02*
X462430Y312282D01*
X470021D01*
X375006Y336400D02*
X473542D01*
X464303Y339000D02*
X490303Y365000D01*
X415114Y341400D02*
X415514Y341000D01*
X473003Y337700D02*
X490303Y355000D01*
X373063Y336295D02*
X374467Y337700D01*
X372206Y333600D02*
X375006Y336400D01*
X370421Y328421D02*
X376000Y334000D01*
X473542Y336400D02*
X473829Y336687D01*
X373193Y338264D02*
X373929Y339000D01*
X374000Y341400D02*
X415114D01*
X374467Y337700D02*
X473003D01*
X354138Y338264D02*
X373193D01*
X373929Y339000D02*
X464303D01*
X495844Y336687D02*
X498000Y334531D01*
X384500Y349500D02*
X452000D01*
X368000Y366000D02*
X384500Y349500D01*
X415514Y341000D02*
X456303D01*
X490303Y375000D01*
X326579Y346138D02*
Y358310D01*
X328000Y359731D02*
Y360000D01*
X326579Y358310D02*
X328000Y359731D01*
X320673Y356067D02*
X334106Y369500D01*
X343000D01*
X360000Y302500D02*
Y308268D01*
X363060Y297180D02*
X363500Y296740D01*
X360000Y302500D02*
X363060Y299440D01*
Y297180D02*
Y299440D01*
X354138Y308736D02*
X359531D01*
X360000Y308268D01*
X346264Y297247D02*
Y300862D01*
Y297247D02*
X346771Y296740D01*
X337304Y246633D02*
Y246958D01*
X337888Y247560D02*
X340358Y250030D01*
X337304Y246958D02*
X337888Y247541D01*
Y247560D01*
X342500Y244000D02*
Y247889D01*
X340358Y250030D02*
X342500Y247889D01*
X340358Y250030D02*
Y277272D01*
X357500Y244000D02*
Y247889D01*
X343000Y250500D02*
X354889D01*
X357500Y247889D01*
X488886Y413583D02*
X490303Y415000D01*
X393000Y413583D02*
X488886D01*
X393000Y408104D02*
Y413583D01*
X347881Y373421D02*
X349421D01*
X354417Y378417D02*
X358000D01*
X349421Y373421D02*
X354417Y378417D01*
X354138Y314642D02*
X370142D01*
X373760Y322000D02*
X373816Y321944D01*
Y318316D02*
Y321944D01*
X370142Y314642D02*
X373816Y318316D01*
X300000Y298520D02*
X305020D01*
X306500Y300000D02*
Y304000D01*
X305020Y298520D02*
X306500Y300000D01*
X300969Y306969D02*
X301569Y307569D01*
X300000Y306000D02*
X300969Y306969D01*
Y308736D01*
X308862D01*
X363730Y305170D02*
X376000Y292899D01*
Y284500D02*
Y292899D01*
X367500Y304500D02*
Y307005D01*
X370000Y302000D02*
X373500D01*
X367500Y304500D02*
X370000Y302000D01*
X334000Y287740D02*
Y291500D01*
X338390Y295890D01*
Y300862D01*
X383055Y286055D02*
X388972D01*
X381500Y284500D02*
X383055Y286055D01*
X376000Y284500D02*
X381500D01*
X387417D02*
X388972Y286055D01*
X249740Y228500D02*
X253821D01*
X256464Y225857D01*
X300816Y241816D02*
Y245056D01*
X297697Y235303D02*
X299750Y233250D01*
X300816Y245056D02*
X301260Y245500D01*
X293500Y234500D02*
X300816Y241816D01*
X299750Y233250D02*
X300000Y233000D01*
X303500Y229500D01*
X301260Y245500D02*
Y262520D01*
X293240Y241565D02*
Y262020D01*
X291000Y239325D02*
X293240Y241565D01*
X279000Y245500D02*
X285760D01*
X278013Y244514D02*
X279000Y245500D01*
X268900Y238293D02*
Y252340D01*
X256464Y225857D02*
X268900Y238293D01*
X223260Y329982D02*
Y334000D01*
X213890Y320612D02*
X223260Y329982D01*
X266240Y362516D02*
Y363500D01*
Y358240D02*
Y362516D01*
X263500Y355500D02*
X266240Y358240D01*
X251260Y351260D02*
X255500Y355500D01*
X263500D01*
X251260Y346500D02*
Y351260D01*
X297447Y304432D02*
X299016Y306000D01*
X266048Y362323D02*
X266240Y362516D01*
X281205Y336295D02*
X288972D01*
X275500Y342000D02*
Y346000D01*
Y342000D02*
X281205Y336295D01*
X289500Y337606D02*
Y337606D01*
X289553Y337553D02*
X290006Y337100D01*
X289000Y338106D02*
X289053Y338053D01*
X287362Y338303D02*
X288803D01*
X289000Y338106D02*
Y338106D01*
X288803Y338303D02*
X289000Y338106D01*
X288972Y336295D02*
X289015Y336253D01*
X283699Y341966D02*
X287362Y338303D01*
X289053Y338053D02*
X289500Y337606D01*
Y337606D02*
X289553Y337553D01*
X225500Y366500D02*
X229000D01*
X232500Y370000D02*
Y374260D01*
X229000Y366500D02*
X232500Y370000D01*
X363500Y307005D02*
X363730Y306775D01*
Y305170D02*
Y306775D01*
X380980Y302000D02*
X392000D01*
X398028Y295972D01*
Y292945D02*
Y295972D01*
X398083Y293000D02*
X412760D01*
X447000Y314000D02*
X447200Y314200D01*
X253000Y295500D02*
X257687Y300187D01*
X289313D01*
X264500Y268500D02*
X268900Y264100D01*
Y261315D02*
Y264100D01*
X247295Y261358D02*
Y281205D01*
X243000Y285500D02*
X247295Y281205D01*
X263000Y273816D02*
Y285500D01*
Y273816D02*
X276807Y260008D01*
X263000Y295500D02*
X267500Y291000D01*
X291500D01*
X295205Y310705D02*
X308862D01*
X293500Y309000D02*
X295205Y310705D01*
X287500Y311000D02*
X289173Y312673D01*
X308862D01*
X306465Y304000D02*
X306500D01*
X284356Y318644D02*
X308797D01*
X282500Y320500D02*
X284356Y318644D01*
X272516Y220484D02*
X273500Y219500D01*
X219000Y315000D02*
X222831D01*
X228979Y315191D02*
X229169Y315000D01*
X225967Y315952D02*
Y324033D01*
Y315952D02*
X226729Y315191D01*
X228979D01*
X306500Y304000D02*
X306730Y303770D01*
X344300Y332200D02*
X347000Y329500D01*
X328547Y346138D02*
Y351047D01*
Y320953D02*
X340500Y309000D01*
X328547Y320953D02*
Y346138D01*
X276807Y259192D02*
Y260008D01*
Y259192D02*
X281500Y254500D01*
X288000Y261000D02*
X288160D01*
X285500Y258500D02*
X288000Y261000D01*
X310814Y302346D02*
X311469Y303000D01*
X294500Y279500D02*
X294811D01*
X296211Y278100D01*
X303639D01*
X315539Y290000D01*
X299300Y290300D02*
X312161D01*
X318705Y296472D02*
Y300862D01*
X315539Y290000D02*
X321000D01*
X314365Y293971D02*
X316736Y296342D01*
X315371Y291300D02*
X316571Y292500D01*
X315000Y291300D02*
X315371D01*
X311623Y291600D02*
X313994Y293971D01*
X312161Y290300D02*
X314533Y292671D01*
X314904D01*
X310814Y294185D02*
Y302346D01*
X313994Y293971D02*
X314365D01*
X314904Y292671D02*
X318705Y296472D01*
X304200Y280500D02*
X315000Y291300D01*
X301000Y280500D02*
X304200D01*
X316736Y296342D02*
Y300862D01*
X297900Y291600D02*
X311623D01*
X292500Y273500D02*
X295300Y276300D01*
X312551D01*
X313700Y296700D02*
Y309294D01*
X313500Y296500D02*
X313700Y296700D01*
X295000Y286000D02*
X299300Y290300D01*
X224000Y326000D02*
X225967Y324033D01*
X354138Y310705D02*
X385289D01*
X390905Y312673D02*
X391000Y312579D01*
X354138Y312673D02*
X390905D01*
X391000Y312579D02*
X391579Y312000D01*
X336465Y305964D02*
Y305982D01*
X334917Y307529D02*
X336465Y305982D01*
X334917Y307529D02*
Y308583D01*
X334623Y311200D02*
X340328Y305495D01*
X333600Y309900D02*
X334917Y308583D01*
X340500Y309000D02*
X347000D01*
X342522Y306500D02*
X345000D01*
X340328Y305300D02*
Y305495D01*
X341322Y307700D02*
X342522Y306500D01*
X329967Y311200D02*
X334623D01*
X339962Y307700D02*
X341322D01*
X329429Y312500D02*
X335161D01*
X339962Y307700D01*
X330516Y304986D02*
X332203Y306674D01*
X330516Y300862D02*
Y304986D01*
X308740Y245500D02*
X316000D01*
X322060Y237680D02*
X323000Y236740D01*
X322060Y237680D02*
Y239440D01*
X316000Y245500D02*
X322060Y239440D01*
X323000Y236740D02*
X333000D01*
X323730Y292730D02*
X328547Y297547D01*
X323230Y292730D02*
X323730D01*
X323000Y292500D02*
X323230Y292730D01*
X321000Y290000D02*
X321230Y289770D01*
X308886Y326476D02*
X315699D01*
X316175Y326000D02*
X316500D01*
X315699Y326476D02*
X316175Y326000D01*
X318900Y322400D02*
Y333494D01*
X314730Y318230D02*
X318900Y322400D01*
X320673Y319279D02*
Y346138D01*
Y356067D01*
X315494Y314100D02*
X320673Y319279D01*
X338230Y321770D02*
X344500Y315500D01*
X338000Y323500D02*
X338230Y323270D01*
Y321770D02*
Y323270D01*
X340358Y291006D02*
Y300862D01*
X342327Y290876D02*
X342700Y290503D01*
Y277775D02*
Y290503D01*
X342327Y277402D02*
X342700Y277775D01*
X340358Y291006D02*
X341400Y289965D01*
Y278313D02*
Y289965D01*
X340358Y277272D02*
X341400Y278313D01*
X342327Y290876D02*
Y300862D01*
Y264673D02*
Y277402D01*
X365000Y358860D02*
X368000Y361860D01*
X365000Y341900D02*
Y358860D01*
X241000Y183909D02*
X249091Y192000D01*
X281500D01*
X232591Y195500D02*
X282000D01*
X221000Y183909D02*
X232591Y195500D01*
X313700Y309294D02*
X316218Y311812D01*
X289313Y300187D02*
X297900Y291600D01*
X315112Y314100D02*
X315494D01*
X319597Y308597D02*
X322642Y311642D01*
X312400Y307644D02*
Y311388D01*
X315112Y314100D01*
X319597Y308403D02*
Y308597D01*
X322642Y311642D02*
Y346138D01*
X314500Y316500D02*
X314730Y316730D01*
Y318230D01*
X311469Y306713D02*
X312400Y307644D01*
X311469Y303000D02*
Y306713D01*
X322642Y346138D02*
Y353317D01*
X325500Y313500D02*
Y313825D01*
X326579Y317921D02*
X328500Y316000D01*
X324610Y314715D02*
X325500Y313825D01*
X324610Y314715D02*
Y346138D01*
X309500Y330571D02*
X311704D01*
X314087Y329442D02*
X314412D01*
X308862Y326453D02*
X308886Y326476D01*
X313066Y328421D02*
X314087Y329442D01*
X308862Y328421D02*
X313066D01*
X308862Y324484D02*
X313373D01*
X314857Y323000D01*
X315000D01*
X207000Y229000D02*
X223000Y213000D01*
X207000Y229000D02*
Y254000D01*
X200500Y225500D02*
X222000Y204000D01*
X276000Y306279D02*
X279513Y302766D01*
X276000Y306279D02*
Y309500D01*
X291313Y290813D02*
X291500Y291000D01*
X280000Y323000D02*
Y330000D01*
X277500Y320500D02*
X280000Y323000D01*
Y330000D02*
X280500Y330500D01*
X294000D01*
X290484Y322516D02*
X308862D01*
X286000Y327000D02*
X290484Y322516D01*
X295858Y332358D02*
X308862D01*
X294000Y330500D02*
X295858Y332358D01*
X246530Y334327D02*
X308862D01*
X290006Y337100D02*
X291994D01*
X243109Y330905D02*
X246530Y334327D01*
X292533Y335800D02*
X293028Y336295D01*
X295846Y338000D02*
X296110Y338264D01*
X292894Y338000D02*
X295846D01*
X296110Y338264D02*
X308862D01*
X291994Y337100D02*
X292894Y338000D01*
X301740Y347000D02*
X302602Y346138D01*
X316736D01*
X211000Y183909D02*
X225993Y198902D01*
Y218834D01*
X244659Y237500D01*
X354138Y336295D02*
X373063D01*
X364448Y334327D02*
X365175Y333600D01*
X365500D01*
X354138Y334327D02*
X364448D01*
X370000Y333600D02*
X372206D01*
X498000Y329697D02*
Y334531D01*
X473829Y336687D02*
X495844D01*
X490303Y322000D02*
X498000Y329697D01*
X368000Y366000D02*
Y378417D01*
Y361860D02*
Y366000D01*
X481500Y342000D02*
X484500Y345000D01*
X490303D01*
X342327Y251173D02*
Y264673D01*
X345500Y261500D01*
X337000Y255000D02*
Y267500D01*
X333500Y251500D02*
X337000Y255000D01*
X326500Y214500D02*
X333000Y221000D01*
X326500Y181000D02*
Y214500D01*
X329500Y177000D02*
Y213270D01*
X338049Y221819D01*
X454500Y213000D02*
Y216208D01*
X446962Y223746D02*
X454500Y216208D01*
X437730Y221958D02*
X463737Y195950D01*
X437500Y223500D02*
X437730Y223270D01*
Y221958D02*
Y223270D01*
X463737Y195950D02*
X474657D01*
X345303Y321697D02*
X345303D01*
X339500Y327500D02*
X345303Y321697D01*
X418000Y252000D02*
X434000Y236000D01*
X345100Y321494D02*
X345303Y321697D01*
X345100Y319506D02*
Y321494D01*
Y319506D02*
X346506Y318100D01*
X347000D01*
X348859Y316241D01*
Y315543D02*
Y316241D01*
X326579Y317921D02*
Y346138D01*
X477706Y199000D02*
X490303D01*
X474657Y195950D02*
X477706Y199000D01*
X431001Y232735D02*
Y233008D01*
X411218Y252792D02*
X431001Y233008D01*
X197000Y225500D02*
X214500Y208000D01*
X197000Y225500D02*
Y283500D01*
X200500Y225500D02*
Y286000D01*
X289015Y336253D02*
X289015D01*
X289467Y335800D01*
X292533D01*
X288453Y320547D02*
X308862D01*
X285697Y323303D02*
X288453Y320547D01*
X308797Y318644D02*
X308862Y318579D01*
X427500Y183909D02*
Y205500D01*
X367000Y266000D02*
X427500Y205500D01*
X349500Y280000D02*
X358200Y271300D01*
X368000Y270000D02*
X383523Y254477D01*
X345500Y288000D02*
X360900Y272600D01*
X369077D02*
X386123Y255554D01*
X358200Y271300D02*
X368538D01*
X384823Y255015D01*
X347833Y270000D02*
X368000D01*
X360900Y272600D02*
X369077D01*
X344893Y267060D02*
X347833Y270000D01*
X412500Y197500D02*
X420500D01*
X408000Y202000D02*
X412500Y197500D01*
X390500Y202000D02*
X408000D01*
X442000Y195000D02*
X447500Y189500D01*
Y183909D02*
Y189500D01*
X386000Y257515D02*
X388523Y254992D01*
Y254672D02*
Y254992D01*
X413977Y227700D02*
X453163D01*
X383523Y252601D02*
X386630Y249495D01*
X413439Y226400D02*
X415009D01*
X383523Y252601D02*
Y254477D01*
X386630Y249495D02*
X388505D01*
X386123Y253678D02*
Y255554D01*
Y253678D02*
X387706Y252095D01*
X387168Y250795D02*
X389043D01*
X387706Y252095D02*
X389582D01*
X386000Y257515D02*
Y276064D01*
X388505Y249495D02*
X437500Y200500D01*
X389043Y250795D02*
X413439Y226400D01*
X389582Y252095D02*
X413977Y227700D01*
X437500Y183909D02*
Y200500D01*
X384823Y253140D02*
Y255015D01*
Y253140D02*
X387168Y250795D01*
X415009Y226400D02*
X457500Y183909D01*
X312551Y276300D02*
X313500Y277249D01*
X387500Y183909D02*
X387500Y183909D01*
Y234500D01*
X387500Y234500D01*
X342327Y251173D02*
X343000Y250500D01*
X382879Y279185D02*
X386000Y276064D01*
X407295Y183909D02*
X407500D01*
X393705Y197500D02*
X407295Y183909D01*
X393500Y197500D02*
X393705D01*
X322642Y305713D02*
X329429Y312500D01*
X330506Y309900D02*
X333600D01*
X326579Y305973D02*
X330506Y309900D01*
X324610Y305843D02*
X329967Y311200D01*
X244659Y237500D02*
X249000D01*
X358000Y400111D02*
Y413583D01*
Y400111D02*
X359500Y398611D01*
Y398500D02*
Y398611D01*
X322642Y353317D02*
X323500Y354175D01*
Y354500D01*
X363000Y408325D02*
Y413583D01*
Y408325D02*
X363500Y407825D01*
Y407500D02*
Y407825D01*
X328547Y351047D02*
X341500Y364000D01*
X384852Y368033D02*
X388000Y371181D01*
Y378417D01*
X393000Y369559D02*
Y378417D01*
X391471Y368030D02*
X393000Y369559D01*
X391471Y367977D02*
Y368030D01*
X334453Y352769D02*
X353462Y371779D01*
X470021Y312282D02*
X490303Y292000D01*
X354138Y328421D02*
X370421D01*
X463500Y315000D02*
X486197D01*
X463303Y314803D02*
X463500Y315000D01*
X366669Y317300D02*
Y317625D01*
X364969Y319442D02*
X365617Y318794D01*
Y318676D02*
X366669Y317625D01*
X365617Y318676D02*
Y318794D01*
X361006Y319442D02*
X364969D01*
X347863Y324396D02*
X349743Y322516D01*
X354138D01*
X489197Y312000D02*
X490303D01*
X486197Y315000D02*
X489197Y312000D01*
X344335Y339500D02*
X347000D01*
X350500Y333335D02*
Y341000D01*
Y333335D02*
X351296Y332539D01*
X358000Y375795D02*
Y378417D01*
Y372307D02*
Y375795D01*
X336240Y345000D02*
X336421Y345181D01*
Y350728D02*
X358000Y372307D01*
X336421Y345181D02*
Y346138D01*
Y350728D01*
X391118Y406222D02*
X393000Y408104D01*
X334453Y346138D02*
Y352769D01*
X471863Y209000D02*
X490303D01*
X453163Y227700D02*
X471863Y209000D01*
X400500Y252500D02*
X421000Y232000D01*
X322642Y300862D02*
Y305713D01*
X324610Y300862D02*
Y305843D01*
X326579Y300862D02*
Y305973D01*
X419148Y229000D02*
X490303D01*
X395452Y252696D02*
X419148Y229000D01*
X303599Y275000D02*
X313220D01*
X328547Y297547D02*
Y300862D01*
X354114Y320524D02*
X354138Y320547D01*
X347524Y320524D02*
X354114D01*
X347500Y320500D02*
X347524Y320524D01*
X470547Y429953D02*
X485868D01*
X496291Y419530D01*
X461000Y439500D02*
X470547Y429953D01*
X496291Y374358D02*
Y419530D01*
X490303Y365000D02*
X491490Y366186D01*
Y369557D01*
X496291Y374358D01*
X485330Y428653D02*
X494991Y418992D01*
Y379687D02*
Y418992D01*
X490303Y375000D02*
X494991Y379687D01*
X451000Y439500D02*
X461847Y428653D01*
X485330D01*
X346264Y346138D02*
Y347888D01*
X346464Y348088D01*
X351088D01*
X353957Y332539D02*
X354138Y332358D01*
X351296Y332539D02*
X353957D01*
X221705Y261358D02*
X247295D01*
X258900Y261315D02*
X268900D01*
X247295Y261358D02*
X258857D01*
X258900Y261315D01*
X260746Y214579D02*
X265724D01*
X259825Y215500D02*
X260746Y214579D01*
X259500Y215500D02*
X259825D01*
X256500Y214000D02*
X259240Y211260D01*
Y206500D02*
Y211260D01*
X301539Y272940D02*
X303599Y275000D01*
X301539Y270279D02*
Y272940D01*
X301500Y270240D02*
X301539Y270279D01*
X292500Y270240D02*
Y273500D01*
X308740Y245500D02*
Y251260D01*
X307000Y253000D02*
X308740Y251260D01*
X301260Y262520D02*
X301500Y262760D01*
X292500D02*
X293240Y262020D01*
X281276Y222453D02*
X281299Y222476D01*
X286976D01*
X287000Y222500D01*
X296500Y229500D02*
X299750Y232750D01*
Y233250D01*
X291000Y239000D02*
Y239325D01*
X303500Y183909D02*
Y229500D01*
X302000Y347260D02*
Y357500D01*
X301740Y347000D02*
X302000Y347260D01*
X259240Y346000D02*
X267232D01*
X237740Y346500D02*
X251260D01*
X221634D02*
X230260D01*
X211134Y320421D02*
X211324Y320612D01*
X213890D01*
X223500Y294740D02*
Y298809D01*
X213890Y308420D02*
X223500Y298809D01*
X211324Y308420D02*
X213890D01*
X211134Y308610D02*
X211324Y308420D01*
X461295Y268008D02*
X490303Y239000D01*
X461295Y268008D02*
Y308142D01*
X354138Y318579D02*
X360143D01*
X361006Y319442D01*
X354138Y316610D02*
X361244D01*
X361675Y317042D01*
X362000D01*
X385289Y310705D02*
X388134Y307860D01*
X435423D02*
X435705Y308142D01*
X381661Y322421D02*
X391000D01*
X381240Y322000D02*
X381661Y322421D01*
X391579Y323000D02*
X402500D01*
X391000Y322421D02*
X391579Y323000D01*
Y312000D02*
X402520D01*
X420500Y313260D02*
X420795Y312965D01*
X354138Y316610D02*
X354319Y316429D01*
D26*
X368740Y346500D02*
D03*
X361260D02*
D03*
X368740Y356000D02*
D03*
X361260D02*
D03*
X230260Y346500D02*
D03*
X237740D02*
D03*
X346260Y208500D02*
D03*
X353740D02*
D03*
X242260Y228500D02*
D03*
X249740D02*
D03*
X242260Y218500D02*
D03*
X249740D02*
D03*
X251760Y206500D02*
D03*
X259240D02*
D03*
X301740Y347000D02*
D03*
X294260D02*
D03*
X302000Y357500D02*
D03*
X294520D02*
D03*
X420240Y293000D02*
D03*
X412760D02*
D03*
X373500Y302000D02*
D03*
X380980D02*
D03*
X402520Y312000D02*
D03*
X410000D02*
D03*
X223260Y334000D02*
D03*
X230740D02*
D03*
X266240Y363500D02*
D03*
X258760D02*
D03*
X299260Y376000D02*
D03*
X306740D02*
D03*
X258740Y346500D02*
D03*
X251260D02*
D03*
X402500Y323000D02*
D03*
X409980D02*
D03*
X381240Y322000D02*
D03*
X373760D02*
D03*
X308740Y245500D02*
D03*
X301260D02*
D03*
X285760D02*
D03*
X293240D02*
D03*
D27*
X346264Y300862D02*
D03*
X344295D02*
D03*
X342327D02*
D03*
X340358D02*
D03*
X338390D02*
D03*
X336421D02*
D03*
X334453D02*
D03*
X332484D02*
D03*
X330516D02*
D03*
X328547D02*
D03*
X326579D02*
D03*
X324610D02*
D03*
X322642D02*
D03*
X320673D02*
D03*
X318705D02*
D03*
X316736D02*
D03*
Y346138D02*
D03*
X318705D02*
D03*
X320673D02*
D03*
X322642D02*
D03*
X324610D02*
D03*
X326579D02*
D03*
X328547D02*
D03*
X330516D02*
D03*
X332484D02*
D03*
X334453D02*
D03*
X336421D02*
D03*
X338390D02*
D03*
X340358D02*
D03*
X342327D02*
D03*
X344295D02*
D03*
X346264D02*
D03*
D28*
X308862Y308736D02*
D03*
Y310705D02*
D03*
Y312673D02*
D03*
Y314642D02*
D03*
Y316610D02*
D03*
Y318579D02*
D03*
Y320547D02*
D03*
Y322516D02*
D03*
Y324484D02*
D03*
Y326453D02*
D03*
Y328421D02*
D03*
Y330390D02*
D03*
Y332358D02*
D03*
Y334327D02*
D03*
Y336295D02*
D03*
Y338264D02*
D03*
X354138D02*
D03*
Y336295D02*
D03*
Y334327D02*
D03*
Y332358D02*
D03*
Y330390D02*
D03*
Y328421D02*
D03*
Y326453D02*
D03*
Y324484D02*
D03*
Y322516D02*
D03*
Y320547D02*
D03*
Y318579D02*
D03*
Y316610D02*
D03*
Y314642D02*
D03*
Y312673D02*
D03*
Y310705D02*
D03*
Y308736D02*
D03*
D29*
X223500Y287260D02*
D03*
Y294740D02*
D03*
X306000Y415260D02*
D03*
Y422740D02*
D03*
X200500Y374520D02*
D03*
Y382000D02*
D03*
X334000Y280260D02*
D03*
Y287740D02*
D03*
X301500Y270240D02*
D03*
Y262760D02*
D03*
X292500Y270240D02*
D03*
Y262760D02*
D03*
X420500Y313260D02*
D03*
Y320740D02*
D03*
X268900Y261315D02*
D03*
Y253835D02*
D03*
X258900Y261315D02*
D03*
Y253835D02*
D03*
X353500Y296500D02*
D03*
Y289020D02*
D03*
X363500Y296740D02*
D03*
Y289260D02*
D03*
X300000Y298520D02*
D03*
Y306000D02*
D03*
X232500Y374260D02*
D03*
Y381740D02*
D03*
X348500Y381260D02*
D03*
Y388740D02*
D03*
X323000Y236740D02*
D03*
Y229260D02*
D03*
X333000Y236740D02*
D03*
Y229260D02*
D03*
X289000Y206000D02*
D03*
Y213480D02*
D03*
X376000Y284500D02*
D03*
Y277020D02*
D03*
D30*
X357500Y222740D02*
D03*
X342500D02*
D03*
Y244000D02*
D03*
X347500D02*
D03*
X352500D02*
D03*
X357500D02*
D03*
X352500Y222740D02*
D03*
X347500D02*
D03*
D31*
X278421Y227374D02*
D03*
X276453D02*
D03*
X274484D02*
D03*
X272516D02*
D03*
X270547D02*
D03*
X268579D02*
D03*
X278421Y211626D02*
D03*
X276453D02*
D03*
X274484D02*
D03*
X272516D02*
D03*
X270547D02*
D03*
X268579D02*
D03*
D32*
X265724Y224421D02*
D03*
Y222453D02*
D03*
Y220484D02*
D03*
Y218516D02*
D03*
Y216547D02*
D03*
Y214579D02*
D03*
X281276Y224421D02*
D03*
Y222453D02*
D03*
Y220484D02*
D03*
Y218516D02*
D03*
Y216547D02*
D03*
Y214579D02*
D03*
D33*
X273500Y219500D02*
D03*
D34*
X358000Y378417D02*
D03*
D35*
X363000D02*
D03*
X368000D02*
D03*
X373000D02*
D03*
X378000D02*
D03*
X383000D02*
D03*
X388000D02*
D03*
X393000D02*
D03*
Y413583D02*
D03*
X388000D02*
D03*
X383000D02*
D03*
X378000D02*
D03*
X373000D02*
D03*
X368000D02*
D03*
X363000D02*
D03*
X358000D02*
D03*
D36*
X221634Y346500D02*
D03*
X213366D02*
D03*
X275500Y346000D02*
D03*
X267232D02*
D03*
D37*
X286500Y421500D02*
D03*
D38*
Y439500D02*
D03*
D39*
X267500Y372028D02*
D03*
D40*
X258484Y397972D02*
D03*
X267500D02*
D03*
D41*
X276516D02*
D03*
D42*
X310500Y393500D02*
D03*
D43*
X292500D02*
D03*
D44*
X322024Y408768D02*
D03*
X339976D02*
D03*
D45*
X331000Y433571D02*
D03*
D46*
X200000Y344126D02*
D03*
Y359874D02*
D03*
D47*
X229169Y316968D02*
D03*
Y315000D02*
D03*
Y313032D02*
D03*
X222831D02*
D03*
Y315000D02*
D03*
Y316968D02*
D03*
D48*
X211134Y302902D02*
D03*
Y328098D02*
D03*
Y306051D02*
D03*
Y324949D02*
D03*
D49*
Y308610D02*
D03*
Y310579D02*
D03*
Y312547D02*
D03*
Y314516D02*
D03*
Y316484D02*
D03*
Y318453D02*
D03*
Y320421D02*
D03*
Y322390D02*
D03*
D50*
X391000Y312579D02*
D03*
Y322421D02*
D03*
D51*
X398028Y286055D02*
D03*
X388972D02*
D03*
Y292945D02*
D03*
X398028D02*
D03*
D52*
X218158Y374500D02*
D03*
X212842D02*
D03*
D53*
X251000Y416000D02*
D03*
X266748D02*
D03*
D73*
X206902Y304122D02*
D03*
Y326878D02*
D03*
D74*
X208870Y298492D02*
D03*
Y332508D02*
D03*
D75*
X192413Y298492D02*
D03*
Y332508D02*
D03*
D83*
X352121Y206409D02*
X352633D01*
X353740Y207516D01*
Y208500D01*
X345000Y190000D02*
X348888Y193888D01*
X346260Y207516D02*
X347367Y206409D01*
X347879D01*
X351112Y193888D02*
X355000Y190000D01*
X346260Y207516D02*
Y208500D01*
X351112Y193888D02*
Y205399D01*
X352121Y206409D01*
X347879D02*
X348888Y205399D01*
Y193888D02*
Y205399D01*
X347367Y210591D02*
X347879D01*
X348888Y211601D01*
X346260Y209484D02*
X347367Y210591D01*
X351112Y211601D02*
Y219482D01*
X352500Y220870D01*
Y222740D01*
X347500Y220870D02*
X348888Y219482D01*
X347500Y220870D02*
Y222740D01*
X348888Y211601D02*
Y219482D01*
X353740Y208500D02*
Y209484D01*
X352121Y210591D02*
X352633D01*
X351112Y211601D02*
X352121Y210591D01*
X352633D02*
X353740Y209484D01*
X346260Y208500D02*
Y209484D01*
X265827Y316310D02*
X266400Y316882D01*
X233000Y318000D02*
X234690Y316310D01*
X267320Y314660D02*
X305567D01*
X234690Y316310D02*
X265827D01*
X228000Y318000D02*
X233000D01*
X266400Y316882D02*
X305280D01*
X234087Y314087D02*
X266748D01*
X228000Y312000D02*
X232000D01*
X266748Y314087D02*
X267320Y314660D01*
X232000Y312000D02*
X234087Y314087D01*
D84*
X273500Y421651D02*
X276500Y418651D01*
X273500Y421651D02*
Y425500D01*
X270500Y428500D02*
X273500Y425500D01*
X270000Y428500D02*
X270500D01*
X276500Y417000D02*
Y418651D01*
Y417000D02*
X281000Y421500D01*
X275500Y416000D02*
X276500Y417000D01*
X286500Y421500D02*
X289790D01*
X281000D02*
X286500D01*
X310500Y386776D02*
Y393500D01*
X309517Y385839D02*
X309563D01*
X306740Y383063D02*
X309517Y385839D01*
X309563D02*
X310500Y386776D01*
X306740Y376000D02*
Y383063D01*
X289790Y421500D02*
X296030Y415260D01*
X266748Y416000D02*
X275500D01*
X321289Y393500D02*
X336557Y408768D01*
X339976D01*
X306984Y415260D02*
X308153Y416428D01*
X306984Y415260D02*
X317795D01*
X322024Y411031D01*
X306000Y415260D02*
X306984D01*
X296030D02*
X306000D01*
X238743Y419426D02*
X240574D01*
X244000Y416000D01*
X251000D01*
X310500Y393500D02*
X321289D01*
X322024Y408768D02*
Y411031D01*
X352959Y433459D02*
X359000Y439500D01*
X349459Y433459D02*
X352959D01*
X349000Y433000D02*
X349459Y433459D01*
X236000Y422169D02*
Y426500D01*
Y422169D02*
X238743Y419426D01*
D85*
X241000Y183909D02*
D03*
X251000Y183909D02*
D03*
X231000Y183909D02*
D03*
X221000Y183909D02*
D03*
X211000Y183909D02*
D03*
X201000Y183909D02*
D03*
X191000Y183909D02*
D03*
X185500Y272500D02*
D03*
X185500Y252500D02*
D03*
X185500Y262500D02*
D03*
X359000Y439500D02*
D03*
X369000Y439500D02*
D03*
X379000Y439500D02*
D03*
X389000Y439500D02*
D03*
X399000Y439500D02*
D03*
X419000Y439500D02*
D03*
X409000Y439500D02*
D03*
X185500Y230000D02*
D03*
X451000Y439500D02*
D03*
X471000Y439500D02*
D03*
X461000Y439500D02*
D03*
X263000Y285500D02*
D03*
X253000Y285500D02*
D03*
Y295500D02*
D03*
X263000Y295500D02*
D03*
X303500Y183909D02*
D03*
X283500Y183909D02*
D03*
X293500Y183909D02*
D03*
X490303Y332000D02*
D03*
X490303Y322000D02*
D03*
X490303Y312000D02*
D03*
X490303Y302000D02*
D03*
X490303Y292000D02*
D03*
X490303Y272000D02*
D03*
X490303Y282000D02*
D03*
X490303Y249000D02*
D03*
X490303Y239000D02*
D03*
X490303Y229000D02*
D03*
X490303Y219000D02*
D03*
X490303Y199000D02*
D03*
X490303Y209000D02*
D03*
X387500Y183909D02*
D03*
X397500Y183909D02*
D03*
X407500Y183909D02*
D03*
X417500Y183909D02*
D03*
X427500Y183909D02*
D03*
X447500Y183909D02*
D03*
X437500Y183909D02*
D03*
X490303Y345000D02*
D03*
X490303Y355000D02*
D03*
X490303Y365000D02*
D03*
X490303Y375000D02*
D03*
X490303Y385000D02*
D03*
X490303Y405000D02*
D03*
X490303Y395000D02*
D03*
D86*
X261000Y183909D02*
D03*
X429000Y439500D02*
D03*
X481000D02*
D03*
X243000Y285500D02*
D03*
Y295500D02*
D03*
X273500Y183909D02*
D03*
X457500D02*
D03*
D87*
X191248Y203437D02*
D03*
X466839D02*
D03*
X191248Y392413D02*
D03*
X466839D02*
D03*
D88*
X185500Y242500D02*
D03*
Y220000D02*
D03*
X490303Y262000D02*
D03*
Y189000D02*
D03*
Y415000D02*
D03*
D89*
X221705Y261358D02*
D03*
X461295Y308142D02*
D03*
D90*
X247295Y261358D02*
D03*
Y243642D02*
D03*
X221705D02*
D03*
X435705Y308142D02*
D03*
Y325858D02*
D03*
X461295D02*
D03*
X452000Y237000D02*
D03*
X268000Y307000D02*
D03*
X435000Y392500D02*
D03*
X217000Y396500D02*
D03*
X447000Y314000D02*
D03*
D91*
X224189Y407602D02*
D03*
D92*
X213165Y426500D02*
D03*
X236000D02*
D03*
D93*
X335000Y190000D02*
D03*
X345000D02*
D03*
X355000D02*
D03*
D94*
X365000D02*
D03*
D95*
X450000Y328500D02*
D03*
X377500Y327500D02*
D03*
X323000Y292500D02*
D03*
X354500Y351500D02*
D03*
X351885Y355673D02*
D03*
X331000Y339145D02*
D03*
X315000Y333895D02*
D03*
X455500Y330898D02*
D03*
X442764Y353183D02*
D03*
X376000Y334000D02*
D03*
X374000Y341400D02*
D03*
X328000Y360000D02*
D03*
X343000Y369500D02*
D03*
X337304Y246633D02*
D03*
X297697Y235303D02*
D03*
X283699Y341966D02*
D03*
X367500Y307005D02*
D03*
X264500Y268500D02*
D03*
X293500Y309000D02*
D03*
X289000Y306000D02*
D03*
X219000Y315000D02*
D03*
X306500Y304000D02*
D03*
X334000Y338000D02*
D03*
X281500Y254500D02*
D03*
X285500Y258500D02*
D03*
X301000Y280500D02*
D03*
X310814Y294185D02*
D03*
X313500Y296500D02*
D03*
X294500Y279500D02*
D03*
X295000Y286000D02*
D03*
X225500Y366500D02*
D03*
X224000Y326000D02*
D03*
X363500Y307005D02*
D03*
X304000Y341500D02*
D03*
X336465Y305964D02*
D03*
X340328Y305300D02*
D03*
X332203Y306674D02*
D03*
X321000Y290000D02*
D03*
X316500Y326000D02*
D03*
X338000Y323500D02*
D03*
X282500Y320500D02*
D03*
X339000Y284000D02*
D03*
X365000Y341900D02*
D03*
X281500Y192000D02*
D03*
X313500Y282500D02*
D03*
X316218Y311812D02*
D03*
X319597Y308403D02*
D03*
X314500Y316500D02*
D03*
X328500Y316000D02*
D03*
X325500Y313500D02*
D03*
X314412Y329442D02*
D03*
X315000Y323000D02*
D03*
X223000Y213000D02*
D03*
X207000Y254000D02*
D03*
X222000Y204000D02*
D03*
X279513Y302766D02*
D03*
X276000Y309500D02*
D03*
X277500Y320500D02*
D03*
X286000Y327000D02*
D03*
X282000Y195500D02*
D03*
X363500Y324900D02*
D03*
X365500Y333600D02*
D03*
X370000D02*
D03*
X452000Y349500D02*
D03*
X481500Y342000D02*
D03*
X345500Y261500D02*
D03*
X337000Y267500D02*
D03*
X333500Y251500D02*
D03*
X333000Y221000D02*
D03*
X326500Y181000D02*
D03*
X329500Y177000D02*
D03*
X338049Y221819D02*
D03*
X454500Y213000D02*
D03*
X446962Y223746D02*
D03*
X434000Y236000D02*
D03*
X418000Y252000D02*
D03*
X348859Y315543D02*
D03*
X339500Y327500D02*
D03*
X344500Y315500D02*
D03*
X437500Y223500D02*
D03*
X431001Y232735D02*
D03*
X411218Y252792D02*
D03*
X214500Y208000D02*
D03*
X197000Y283500D02*
D03*
X243109Y330905D02*
D03*
X200500Y286000D02*
D03*
X291500Y291000D02*
D03*
X285697Y323303D02*
D03*
X287500Y311000D02*
D03*
X367000Y266000D02*
D03*
X420500Y197500D02*
D03*
X442000Y195000D02*
D03*
X388523Y254672D02*
D03*
X390500Y202000D02*
D03*
X344893Y267060D02*
D03*
X345500Y288000D02*
D03*
X349500Y280000D02*
D03*
X387500Y234500D02*
D03*
X393500Y197500D02*
D03*
X323497Y296022D02*
D03*
X249000Y237500D02*
D03*
X359500Y398500D02*
D03*
X323500Y354500D02*
D03*
X363500Y407500D02*
D03*
X384852Y368033D02*
D03*
X391471Y367977D02*
D03*
X353462Y371779D02*
D03*
X341500Y364000D02*
D03*
X347000Y309000D02*
D03*
X382879Y279185D02*
D03*
X463303Y314803D02*
D03*
X366669Y317300D02*
D03*
X366500Y322100D02*
D03*
X347863Y324396D02*
D03*
X347000Y329500D02*
D03*
Y339500D02*
D03*
X347500Y333500D02*
D03*
X347881Y373421D02*
D03*
X354000Y362000D02*
D03*
X391118Y406222D02*
D03*
X421000Y232000D02*
D03*
X400500Y252500D02*
D03*
X345000Y306500D02*
D03*
X395452Y252696D02*
D03*
X347500Y320500D02*
D03*
X351381Y395336D02*
D03*
X292500Y380000D02*
D03*
X259500Y215500D02*
D03*
X256500Y214000D02*
D03*
X307000Y253000D02*
D03*
X278013Y243227D02*
D03*
X291000Y339500D02*
D03*
X256464Y225857D02*
D03*
X266000Y231000D02*
D03*
X261521Y226792D02*
D03*
X287000Y222500D02*
D03*
X296500Y229500D02*
D03*
X291000Y239000D02*
D03*
X362000Y317042D02*
D03*
D96*
X270000Y428500D02*
D03*
X349000Y433000D02*
D03*
D97*
X271335Y221665D02*
D03*
Y217335D02*
D03*
X275665D02*
D03*
Y221665D02*
D03*
M02*
