G04*
G04 #@! TF.GenerationSoftware,Altium Limited,Altium Designer,23.6.0 (18)*
G04*
G04 Layer_Color=65535*
%FSLAX25Y25*%
%MOIN*%
G70*
G04*
G04 #@! TF.SameCoordinates,CC12AEB3-2111-4EF4-9384-BB861815B030*
G04*
G04*
G04 #@! TF.FilePolarity,Positive*
G04*
G01*
G75*
%ADD10C,0.00600*%
%ADD11C,0.00500*%
%ADD12C,0.00984*%
%ADD13C,0.01968*%
%ADD14C,0.01200*%
%ADD15C,0.01000*%
%ADD16C,0.00800*%
%ADD17C,0.00787*%
%ADD18C,0.00400*%
%ADD19R,0.09962X0.10000*%
%ADD20R,0.10000X0.09962*%
%ADD21R,0.09962X0.10000*%
%ADD22R,0.15748X0.03150*%
%ADD23R,0.03150X0.15748*%
%ADD24R,0.09962X0.10000*%
%ADD25R,0.09962X0.10000*%
G36*
X317955Y297512D02*
X319455D01*
Y296512D01*
X317955D01*
Y297512D01*
D02*
G37*
G36*
X305512Y323734D02*
X304512D01*
Y325234D01*
X305512D01*
Y323734D01*
D02*
G37*
G36*
X319923Y349488D02*
X321423D01*
Y350488D01*
X319923D01*
Y349488D01*
D02*
G37*
G36*
X337640Y297512D02*
X339140D01*
Y296512D01*
X337640D01*
Y297512D01*
D02*
G37*
G36*
X357488Y325703D02*
X358488D01*
Y327203D01*
X357488D01*
Y325703D01*
D02*
G37*
G36*
X339608Y349488D02*
X341108D01*
Y350488D01*
X339608D01*
Y349488D01*
D02*
G37*
D10*
X358772Y308736D02*
G03*
X358772Y308736I-300J0D01*
G01*
X311300Y303300D02*
Y306829D01*
Y343700D02*
X314829D01*
X351700Y340171D02*
Y343700D01*
Y303300D02*
Y306829D01*
X311300Y303300D02*
X314829D01*
X311300Y340171D02*
Y343700D01*
X348171D02*
X351700D01*
X348171Y303300D02*
X351700D01*
X478266Y283932D02*
X477599Y284599D01*
X476266D01*
X475600Y283932D01*
Y281266D01*
X476266Y280600D01*
X477599D01*
X478266Y281266D01*
X482265Y280600D02*
X479599D01*
X482265Y283266D01*
Y283932D01*
X481598Y284599D01*
X480265D01*
X479599Y283932D01*
X475600Y343600D02*
Y346266D01*
X476933Y347599D01*
X478266Y346266D01*
Y343600D01*
Y345599D01*
X475600D01*
X479599Y346932D02*
X480265Y347599D01*
X481598D01*
X482265Y346932D01*
Y344266D01*
X481598Y343600D01*
X480265D01*
X479599Y344266D01*
Y346932D01*
X476266Y210932D02*
X475599Y211599D01*
X474266D01*
X473600Y210932D01*
Y208266D01*
X474266Y207600D01*
X475599D01*
X476266Y208266D01*
X477599Y207600D02*
X478932D01*
X478265D01*
Y211599D01*
X477599Y210932D01*
X480931D02*
X481597Y211599D01*
X482930D01*
X483597Y210932D01*
Y208266D01*
X482930Y207600D01*
X481597D01*
X480931Y208266D01*
Y210932D01*
X476266Y240932D02*
X475599Y241599D01*
X474266D01*
X473600Y240932D01*
Y238266D01*
X474266Y237600D01*
X475599D01*
X476266Y238266D01*
X477599Y237600D02*
X478932D01*
X478265D01*
Y241599D01*
X477599Y240932D01*
X480931D02*
X481597Y241599D01*
X482930D01*
X483597Y240932D01*
Y240266D01*
X482930Y239599D01*
X482264D01*
X482930D01*
X483597Y238933D01*
Y238266D01*
X482930Y237600D01*
X481597D01*
X480931Y238266D01*
X478266Y273932D02*
X477599Y274599D01*
X476266D01*
X475600Y273932D01*
Y271266D01*
X476266Y270600D01*
X477599D01*
X478266Y271266D01*
X479599Y270600D02*
X480932D01*
X480265D01*
Y274599D01*
X479599Y273932D01*
X476266Y220932D02*
X475599Y221599D01*
X474266D01*
X473600Y220932D01*
Y218266D01*
X474266Y217600D01*
X475599D01*
X476266Y218266D01*
X477599Y217600D02*
X478932D01*
X478265D01*
Y221599D01*
X477599Y220932D01*
X480931Y217600D02*
X482264D01*
X481597D01*
Y221599D01*
X480931Y220932D01*
X475600Y413600D02*
Y416266D01*
X476933Y417599D01*
X478266Y416266D01*
Y413600D01*
Y415599D01*
X475600D01*
X479599Y417599D02*
X482265D01*
Y416932D01*
X479599Y414266D01*
Y413600D01*
X476266Y230932D02*
X475599Y231599D01*
X474266D01*
X473600Y230932D01*
Y228266D01*
X474266Y227600D01*
X475599D01*
X476266Y228266D01*
X477599Y227600D02*
X478932D01*
X478265D01*
Y231599D01*
X477599Y230932D01*
X483597Y227600D02*
X480931D01*
X483597Y230266D01*
Y230932D01*
X482930Y231599D01*
X481597D01*
X480931Y230932D01*
X473600Y251599D02*
Y247600D01*
X475599D01*
X476266Y248266D01*
Y250932D01*
X475599Y251599D01*
X473600D01*
X480265Y247600D02*
X477599D01*
X480265Y250266D01*
Y250932D01*
X479598Y251599D01*
X478265D01*
X477599Y250932D01*
X475600Y403600D02*
Y406266D01*
X476933Y407599D01*
X478266Y406266D01*
Y403600D01*
Y405599D01*
X475600D01*
X482265Y407599D02*
X480932Y406932D01*
X479599Y405599D01*
Y404266D01*
X480265Y403600D01*
X481598D01*
X482265Y404266D01*
Y404933D01*
X481598Y405599D01*
X479599D01*
X478266Y303932D02*
X477599Y304599D01*
X476266D01*
X475600Y303932D01*
Y301266D01*
X476266Y300600D01*
X477599D01*
X478266Y301266D01*
X481598Y300600D02*
Y304599D01*
X479599Y302599D01*
X482265D01*
X475600Y353600D02*
Y356266D01*
X476933Y357599D01*
X478266Y356266D01*
Y353600D01*
Y355599D01*
X475600D01*
X479599Y353600D02*
X480932D01*
X480265D01*
Y357599D01*
X479599Y356932D01*
X478266Y293932D02*
X477599Y294599D01*
X476266D01*
X475600Y293932D01*
Y291266D01*
X476266Y290600D01*
X477599D01*
X478266Y291266D01*
X479599Y293932D02*
X480265Y294599D01*
X481598D01*
X482265Y293932D01*
Y293266D01*
X481598Y292599D01*
X480932D01*
X481598D01*
X482265Y291933D01*
Y291266D01*
X481598Y290600D01*
X480265D01*
X479599Y291266D01*
X476266Y200932D02*
X475599Y201599D01*
X474266D01*
X473600Y200932D01*
Y198266D01*
X474266Y197600D01*
X475599D01*
X476266Y198266D01*
X477599D02*
X478265Y197600D01*
X479598D01*
X480265Y198266D01*
Y200932D01*
X479598Y201599D01*
X478265D01*
X477599Y200932D01*
Y200266D01*
X478265Y199599D01*
X480265D01*
X475600Y393600D02*
Y396266D01*
X476933Y397599D01*
X478266Y396266D01*
Y393600D01*
Y395599D01*
X475600D01*
X482265Y397599D02*
X479599D01*
Y395599D01*
X480932Y396266D01*
X481598D01*
X482265Y395599D01*
Y394266D01*
X481598Y393600D01*
X480265D01*
X479599Y394266D01*
X478266Y263932D02*
X477599Y264599D01*
X476266D01*
X475600Y263932D01*
Y261266D01*
X476266Y260600D01*
X477599D01*
X478266Y261266D01*
X479599Y263932D02*
X480265Y264599D01*
X481598D01*
X482265Y263932D01*
Y261266D01*
X481598Y260600D01*
X480265D01*
X479599Y261266D01*
Y263932D01*
X475600Y383600D02*
Y386266D01*
X476933Y387599D01*
X478266Y386266D01*
Y383600D01*
Y385599D01*
X475600D01*
X481598Y383600D02*
Y387599D01*
X479599Y385599D01*
X482265D01*
X475600Y373600D02*
Y376266D01*
X476933Y377599D01*
X478266Y376266D01*
Y373600D01*
Y375599D01*
X475600D01*
X479599Y376932D02*
X480265Y377599D01*
X481598D01*
X482265Y376932D01*
Y376266D01*
X481598Y375599D01*
X480932D01*
X481598D01*
X482265Y374933D01*
Y374266D01*
X481598Y373600D01*
X480265D01*
X479599Y374266D01*
X475600Y363600D02*
Y366266D01*
X476933Y367599D01*
X478266Y366266D01*
Y363600D01*
Y365599D01*
X475600D01*
X482265Y363600D02*
X479599D01*
X482265Y366266D01*
Y366932D01*
X481598Y367599D01*
X480265D01*
X479599Y366932D01*
X478266Y333932D02*
X477599Y334599D01*
X476266D01*
X475600Y333932D01*
Y331266D01*
X476266Y330600D01*
X477599D01*
X478266Y331266D01*
X479599Y334599D02*
X482265D01*
Y333932D01*
X479599Y331266D01*
Y330600D01*
X476266Y190932D02*
X475599Y191599D01*
X474266D01*
X473600Y190932D01*
Y188267D01*
X474266Y187600D01*
X475599D01*
X476266Y188267D01*
X477599Y190932D02*
X478265Y191599D01*
X479598D01*
X480265Y190932D01*
Y190266D01*
X479598Y189599D01*
X480265Y188933D01*
Y188267D01*
X479598Y187600D01*
X478265D01*
X477599Y188267D01*
Y188933D01*
X478265Y189599D01*
X477599Y190266D01*
Y190932D01*
X478265Y189599D02*
X479598D01*
X478266Y323932D02*
X477599Y324599D01*
X476266D01*
X475600Y323932D01*
Y321266D01*
X476266Y320600D01*
X477599D01*
X478266Y321266D01*
X482265Y324599D02*
X480932Y323932D01*
X479599Y322599D01*
Y321266D01*
X480265Y320600D01*
X481598D01*
X482265Y321266D01*
Y321933D01*
X481598Y322599D01*
X479599D01*
X478266Y313932D02*
X477599Y314599D01*
X476266D01*
X475600Y313932D01*
Y311266D01*
X476266Y310600D01*
X477599D01*
X478266Y311266D01*
X482265Y314599D02*
X479599D01*
Y312599D01*
X480932Y313266D01*
X481598D01*
X482265Y312599D01*
Y311266D01*
X481598Y310600D01*
X480265D01*
X479599Y311266D01*
X177901Y179600D02*
X181900D01*
Y181599D01*
X181234Y182266D01*
X180567D01*
X179901Y181599D01*
Y179600D01*
Y181599D01*
X179234Y182266D01*
X178568D01*
X177901Y181599D01*
Y179600D01*
X178568Y183599D02*
X177901Y184265D01*
Y185598D01*
X178568Y186265D01*
X179234D01*
X179901Y185598D01*
X180567Y186265D01*
X181234D01*
X181900Y185598D01*
Y184265D01*
X181234Y183599D01*
X180567D01*
X179901Y184265D01*
X179234Y183599D01*
X178568D01*
X179901Y184265D02*
Y185598D01*
X248172Y194176D02*
X251000Y191349D01*
X252414Y192762D01*
Y193705D01*
X251942Y194176D01*
X251000D01*
X249586Y192762D01*
X251000Y194176D01*
Y195118D01*
X250529Y195590D01*
X249586D01*
X248172Y194176D01*
X253828D02*
X254770Y195119D01*
X254299Y194647D01*
X251471Y197475D01*
Y196532D01*
X257597Y197946D02*
X254770Y200774D01*
Y197946D01*
X256655Y199831D01*
X258172Y194176D02*
X261000Y191349D01*
X262414Y192762D01*
Y193705D01*
X261943Y194176D01*
X261000D01*
X259586Y192762D01*
X261000Y194176D01*
Y195118D01*
X260529Y195590D01*
X259586D01*
X258172Y194176D01*
X263827D02*
X264770Y195119D01*
X264299Y194647D01*
X261471Y197475D01*
Y196532D01*
X265241Y201245D02*
X263356Y199360D01*
X264770Y197946D01*
X265241Y199360D01*
X265712Y199831D01*
X266655D01*
X267598Y198889D01*
Y197946D01*
X266655Y197004D01*
X265712D01*
X303029Y195590D02*
X302086D01*
X301144Y194647D01*
Y193705D01*
X301615Y193234D01*
X302557D01*
X303500Y194176D01*
X304443D01*
X304914Y193705D01*
Y192762D01*
X303971Y191820D01*
X303029D01*
X305856Y198417D02*
X304914D01*
X303971Y197475D01*
Y196532D01*
X305856Y194647D01*
X306799D01*
X307741Y195590D01*
Y196532D01*
X306328Y199831D02*
X309155Y197004D01*
X311040Y198889D01*
X293029Y195590D02*
X292086D01*
X291144Y194647D01*
Y193705D01*
X291615Y193234D01*
X292558D01*
X293500Y194176D01*
X294443D01*
X294914Y193705D01*
Y192762D01*
X293971Y191820D01*
X293029D01*
X293500Y197004D02*
X296327Y194176D01*
X297741Y195590D01*
Y196532D01*
X295856Y198417D01*
X294914D01*
X293500Y197004D01*
X299155D02*
X297270Y198889D01*
Y200774D01*
X299155Y200774D01*
X301040Y198889D01*
X299626Y200302D01*
X297741Y198417D01*
X283029Y195590D02*
X282086D01*
X281144Y194647D01*
Y193705D01*
X283029Y191820D01*
X283971D01*
X284914Y192762D01*
Y193705D01*
X283971Y194647D01*
X283029Y193705D01*
X286328Y194176D02*
X283500Y197004D01*
X288212Y196061D01*
X285385Y198889D01*
X286328Y199831D02*
X289155Y197004D01*
X290569Y198417D01*
Y199360D01*
X288684Y201245D01*
X287741D01*
X286328Y199831D01*
X271144Y193705D02*
Y194647D01*
X272086Y195590D01*
X273029D01*
X273500Y195119D01*
Y194176D01*
X273029Y193705D01*
X273500Y194176D01*
X274443D01*
X274914Y193705D01*
Y192762D01*
X273971Y191820D01*
X273029D01*
X273500Y197004D02*
X275385Y195119D01*
X277270D01*
Y197004D01*
X275385Y198889D01*
X276799Y199360D02*
Y200302D01*
X277741Y201245D01*
X278684D01*
X279155Y200774D01*
Y199831D01*
X278684Y199360D01*
X279155Y199831D01*
X280098D01*
X280569Y199360D01*
Y198417D01*
X279626Y197475D01*
X278684D01*
X238173Y194176D02*
X241000Y191349D01*
X242414Y192762D01*
Y193705D01*
X241943Y194176D01*
X241000D01*
X239586Y192762D01*
X241000Y194176D01*
Y195118D01*
X240529Y195590D01*
X239586D01*
X238173Y194176D01*
X243828D02*
X244770Y195119D01*
X244299Y194647D01*
X241471Y197475D01*
Y196532D01*
X243828Y198889D02*
Y199831D01*
X244770Y200774D01*
X245712D01*
X246184Y200302D01*
Y199360D01*
X245712Y198889D01*
X246184Y199360D01*
X247126D01*
X247598Y198889D01*
Y197946D01*
X246655Y197004D01*
X245712D01*
X228172Y194176D02*
X231000Y191349D01*
X232414Y192762D01*
Y193705D01*
X231943Y194176D01*
X231000D01*
X229586Y192762D01*
X231000Y194176D01*
Y195118D01*
X230529Y195590D01*
X229586D01*
X228172Y194176D01*
X233827D02*
X234770Y195119D01*
X234299Y194647D01*
X231471Y197475D01*
Y196532D01*
X238069Y198417D02*
X236184Y196532D01*
Y200302D01*
X235713Y200774D01*
X234770D01*
X233827Y199831D01*
Y198889D01*
X218173Y194176D02*
X221000Y191349D01*
X222414Y192762D01*
Y193705D01*
X221942Y194176D01*
X221000D01*
X219586Y192762D01*
X221000Y194176D01*
Y195118D01*
X220529Y195590D01*
X219586D01*
X218173Y194176D01*
X223828D02*
X224770Y195119D01*
X224299Y194647D01*
X221471Y197475D01*
Y196532D01*
X226184D02*
X227126Y197475D01*
X226655Y197004D01*
X223828Y199831D01*
Y198889D01*
X208172Y194176D02*
X211000Y191349D01*
X212414Y192762D01*
Y193705D01*
X211943Y194176D01*
X211000D01*
X209586Y192762D01*
X211000Y194176D01*
Y195118D01*
X210529Y195590D01*
X209586D01*
X208172Y194176D01*
X213827D02*
X214770Y195119D01*
X214299Y194647D01*
X211471Y197475D01*
Y196532D01*
X213827Y198889D02*
Y199831D01*
X214770Y200774D01*
X215712D01*
X217598Y198889D01*
Y197946D01*
X216655Y197004D01*
X215712D01*
X213827Y198889D01*
X198172Y194676D02*
X201000Y191849D01*
X202414Y193262D01*
Y194205D01*
X201942Y194676D01*
X201000D01*
X199586Y193262D01*
X201000Y194676D01*
Y195618D01*
X200529Y196090D01*
X199586D01*
X198172Y194676D01*
X203356Y195147D02*
X204299D01*
X205241Y196090D01*
Y197032D01*
X203356Y198917D01*
X202414D01*
X201471Y197975D01*
Y197032D01*
X201942Y196561D01*
X202885D01*
X204299Y197975D01*
X193600Y218600D02*
Y221266D01*
X194933Y222599D01*
X196266Y221266D01*
Y218600D01*
Y220599D01*
X193600D01*
X197599Y222599D02*
Y219266D01*
X198265Y218600D01*
X199598D01*
X200264Y219266D01*
Y222599D01*
X201597D02*
X204263Y218600D01*
Y222599D02*
X201597Y218600D01*
X212261Y221932D02*
X211594Y222599D01*
X210261D01*
X209595Y221932D01*
Y221266D01*
X210261Y220599D01*
X211594D01*
X212261Y219933D01*
Y219266D01*
X211594Y218600D01*
X210261D01*
X209595Y219266D01*
X216259Y221932D02*
X215593Y222599D01*
X214260D01*
X213593Y221932D01*
Y219266D01*
X214260Y218600D01*
X215593D01*
X216259Y219266D01*
X217592Y222599D02*
Y218600D01*
X220258D01*
X193600Y228600D02*
Y231266D01*
X194933Y232599D01*
X196266Y231266D01*
Y228600D01*
Y230599D01*
X193600D01*
X197599Y232599D02*
Y229266D01*
X198265Y228600D01*
X199598D01*
X200264Y229266D01*
Y232599D01*
X201597D02*
X204263Y228600D01*
Y232599D02*
X201597Y228600D01*
X212261Y231932D02*
X211594Y232599D01*
X210261D01*
X209595Y231932D01*
Y231266D01*
X210261Y230599D01*
X211594D01*
X212261Y229933D01*
Y229266D01*
X211594Y228600D01*
X210261D01*
X209595Y229266D01*
X213593Y232599D02*
Y228600D01*
X215593D01*
X216259Y229266D01*
Y231932D01*
X215593Y232599D01*
X213593D01*
X217592Y228600D02*
Y231266D01*
X218925Y232599D01*
X220258Y231266D01*
Y228600D01*
Y230599D01*
X217592D01*
X193600Y241100D02*
Y243766D01*
X194933Y245099D01*
X196266Y243766D01*
Y241100D01*
Y243099D01*
X193600D01*
X197599Y241100D02*
X198932D01*
X198265D01*
Y245099D01*
X197599Y244432D01*
X203597Y245099D02*
X200931D01*
Y243099D01*
X202264Y243766D01*
X202930D01*
X203597Y243099D01*
Y241766D01*
X202930Y241100D01*
X201597D01*
X200931Y241766D01*
X193600Y251100D02*
Y253766D01*
X194933Y255099D01*
X196266Y253766D01*
Y251100D01*
Y253099D01*
X193600D01*
X197599Y251100D02*
X198932D01*
X198265D01*
Y255099D01*
X197599Y254432D01*
X200931D02*
X201597Y255099D01*
X202930D01*
X203597Y254432D01*
Y251766D01*
X202930Y251100D01*
X201597D01*
X200931Y251766D01*
Y254432D01*
X193600Y261100D02*
Y263766D01*
X194933Y265099D01*
X196266Y263766D01*
Y261100D01*
Y263099D01*
X193600D01*
X197599Y261766D02*
X198265Y261100D01*
X199598D01*
X200264Y261766D01*
Y264432D01*
X199598Y265099D01*
X198265D01*
X197599Y264432D01*
Y263766D01*
X198265Y263099D01*
X200264D01*
X193600Y271100D02*
Y273766D01*
X194933Y275099D01*
X196266Y273766D01*
Y271100D01*
Y273099D01*
X193600D01*
X197599Y274432D02*
X198265Y275099D01*
X199598D01*
X200264Y274432D01*
Y273766D01*
X199598Y273099D01*
X200264Y272433D01*
Y271766D01*
X199598Y271100D01*
X198265D01*
X197599Y271766D01*
Y272433D01*
X198265Y273099D01*
X197599Y273766D01*
Y274432D01*
X198265Y273099D02*
X199598D01*
X454901Y192009D02*
X458900D01*
Y194009D01*
X458234Y194675D01*
X457567D01*
X456901Y194009D01*
Y192009D01*
Y194009D01*
X456234Y194675D01*
X455568D01*
X454901Y194009D01*
Y192009D01*
Y196008D02*
Y198674D01*
X455568D01*
X458234Y196008D01*
X458900D01*
X444901Y192009D02*
X448900D01*
Y194009D01*
X448234Y194675D01*
X447567D01*
X446901Y194009D01*
Y192009D01*
Y194009D01*
X446234Y194675D01*
X445568D01*
X444901Y194009D01*
Y192009D01*
Y198674D02*
X445568Y197341D01*
X446901Y196008D01*
X448234D01*
X448900Y196675D01*
Y198007D01*
X448234Y198674D01*
X447567D01*
X446901Y198007D01*
Y196008D01*
X434901Y192009D02*
X438900D01*
Y194009D01*
X438234Y194675D01*
X437567D01*
X436901Y194009D01*
Y192009D01*
Y194009D01*
X436234Y194675D01*
X435568D01*
X434901Y194009D01*
Y192009D01*
Y198674D02*
Y196008D01*
X436901D01*
X436234Y197341D01*
Y198007D01*
X436901Y198674D01*
X438234D01*
X438900Y198007D01*
Y196675D01*
X438234Y196008D01*
X424901Y192009D02*
X428900D01*
Y194009D01*
X428234Y194675D01*
X427567D01*
X426901Y194009D01*
Y192009D01*
Y194009D01*
X426234Y194675D01*
X425568D01*
X424901Y194009D01*
Y192009D01*
X428900Y198007D02*
X424901D01*
X426901Y196008D01*
Y198674D01*
X414901Y192009D02*
X418900D01*
Y194009D01*
X418234Y194675D01*
X417567D01*
X416901Y194009D01*
Y192009D01*
Y194009D01*
X416234Y194675D01*
X415568D01*
X414901Y194009D01*
Y192009D01*
X415568Y196008D02*
X414901Y196675D01*
Y198007D01*
X415568Y198674D01*
X416234D01*
X416901Y198007D01*
Y197341D01*
Y198007D01*
X417567Y198674D01*
X418234D01*
X418900Y198007D01*
Y196675D01*
X418234Y196008D01*
X404901Y192009D02*
X408900D01*
Y194009D01*
X408234Y194675D01*
X407567D01*
X406901Y194009D01*
Y192009D01*
Y194009D01*
X406234Y194675D01*
X405568D01*
X404901Y194009D01*
Y192009D01*
X408900Y198674D02*
Y196008D01*
X406234Y198674D01*
X405568D01*
X404901Y198007D01*
Y196675D01*
X405568Y196008D01*
X394901Y192009D02*
X398900D01*
Y194009D01*
X398234Y194675D01*
X397567D01*
X396901Y194009D01*
Y192009D01*
Y194009D01*
X396234Y194675D01*
X395568D01*
X394901Y194009D01*
Y192009D01*
X398900Y196008D02*
Y197341D01*
Y196675D01*
X394901D01*
X395568Y196008D01*
X384901Y192009D02*
X388900D01*
Y194009D01*
X388234Y194675D01*
X387567D01*
X386901Y194009D01*
Y192009D01*
Y194009D01*
X386234Y194675D01*
X385568D01*
X384901Y194009D01*
Y192009D01*
X385568Y196008D02*
X384901Y196675D01*
Y198007D01*
X385568Y198674D01*
X388234D01*
X388900Y198007D01*
Y196675D01*
X388234Y196008D01*
X385568D01*
X449600Y431400D02*
X453599D01*
Y429401D01*
X452932Y428734D01*
X451599D01*
X450933Y429401D01*
Y431400D01*
Y430067D02*
X449600Y428734D01*
X453599Y427401D02*
X449600Y424735D01*
X453599D02*
X449600Y427401D01*
X463599Y431400D02*
Y428734D01*
Y430067D01*
X459600D01*
X463599Y427401D02*
X459600Y424735D01*
X463599D02*
X459600Y427401D01*
X482932Y431400D02*
X483599Y430734D01*
Y429401D01*
X482932Y428734D01*
X482266D01*
X481599Y429401D01*
Y430067D01*
Y429401D01*
X480933Y428734D01*
X480266D01*
X479600Y429401D01*
Y430734D01*
X480266Y431400D01*
X483599Y427401D02*
X480933D01*
X479600Y426068D01*
X480933Y424735D01*
X483599D01*
X482932Y423403D02*
X483599Y422736D01*
Y421403D01*
X482932Y420737D01*
X482266D01*
X481599Y421403D01*
Y422070D01*
Y421403D01*
X480933Y420737D01*
X480266D01*
X479600Y421403D01*
Y422736D01*
X480266Y423403D01*
X472932Y428734D02*
X473599Y429401D01*
Y430734D01*
X472932Y431400D01*
X470266D01*
X469600Y430734D01*
Y429401D01*
X470266Y428734D01*
X471599D01*
Y430067D01*
X469600Y427401D02*
X473599D01*
X469600Y424735D01*
X473599D01*
Y423403D02*
X469600D01*
Y421403D01*
X470266Y420737D01*
X472932D01*
X473599Y421403D01*
Y423403D01*
X430932Y428734D02*
X431599Y429401D01*
Y430734D01*
X430932Y431400D01*
X428266D01*
X427600Y430734D01*
Y429401D01*
X428266Y428734D01*
X429599D01*
Y430067D01*
X427600Y427401D02*
X431599D01*
X427600Y424735D01*
X431599D01*
Y423403D02*
X427600D01*
Y421403D01*
X428266Y420737D01*
X430932D01*
X431599Y421403D01*
Y423403D01*
X381599Y428734D02*
Y431400D01*
X379599D01*
X380266Y430067D01*
Y429401D01*
X379599Y428734D01*
X378266D01*
X377600Y429401D01*
Y430734D01*
X378266Y431400D01*
X381599Y427401D02*
X378933D01*
X377600Y426068D01*
X378933Y424735D01*
X381599D01*
X371599Y428734D02*
Y431400D01*
X369599D01*
X370266Y430067D01*
Y429401D01*
X369599Y428734D01*
X368266D01*
X367600Y429401D01*
Y430734D01*
X368266Y431400D01*
X371599Y427401D02*
X368933D01*
X367600Y426068D01*
X368933Y424735D01*
X371599D01*
X361599Y431400D02*
X358933D01*
X357600Y430067D01*
X358933Y428734D01*
X361599D01*
Y427401D02*
Y426068D01*
Y426735D01*
X357600D01*
Y427401D01*
Y426068D01*
Y424069D02*
X361599D01*
X357600Y421403D01*
X361599D01*
X390932Y431400D02*
X391599Y430734D01*
Y429401D01*
X390932Y428734D01*
X390266D01*
X389599Y429401D01*
Y430067D01*
Y429401D01*
X388933Y428734D01*
X388266D01*
X387600Y429401D01*
Y430734D01*
X388266Y431400D01*
X391599Y427401D02*
X388933D01*
X387600Y426068D01*
X388933Y424735D01*
X391599D01*
X390932Y423403D02*
X391599Y422736D01*
Y421403D01*
X390932Y420737D01*
X390266D01*
X389599Y421403D01*
Y422070D01*
Y421403D01*
X388933Y420737D01*
X388266D01*
X387600Y421403D01*
Y422736D01*
X388266Y423403D01*
X400932Y431400D02*
X401599Y430734D01*
Y429401D01*
X400932Y428734D01*
X400266D01*
X399599Y429401D01*
Y430067D01*
Y429401D01*
X398933Y428734D01*
X398266D01*
X397600Y429401D01*
Y430734D01*
X398266Y431400D01*
X401599Y427401D02*
X398933D01*
X397600Y426068D01*
X398933Y424735D01*
X401599D01*
X400932Y423403D02*
X401599Y422736D01*
Y421403D01*
X400932Y420737D01*
X400266D01*
X399599Y421403D01*
Y422070D01*
Y421403D01*
X398933Y420737D01*
X398266D01*
X397600Y421403D01*
Y422736D01*
X398266Y423403D01*
X410932Y428734D02*
X411599Y429401D01*
Y430734D01*
X410932Y431400D01*
X408266D01*
X407600Y430734D01*
Y429401D01*
X408266Y428734D01*
X409599D01*
Y430067D01*
X407600Y427401D02*
X411599D01*
X407600Y424735D01*
X411599D01*
Y423403D02*
X407600D01*
Y421403D01*
X408266Y420737D01*
X410932D01*
X411599Y421403D01*
Y423403D01*
X420932Y428734D02*
X421599Y429401D01*
Y430734D01*
X420932Y431400D01*
X418266D01*
X417600Y430734D01*
Y429401D01*
X418266Y428734D01*
X419599D01*
Y430067D01*
X417600Y427401D02*
X421599D01*
X417600Y424735D01*
X421599D01*
Y423403D02*
X417600D01*
Y421403D01*
X418266Y420737D01*
X420932D01*
X421599Y421403D01*
Y423403D01*
X220668Y326499D02*
Y322501D01*
X222667D01*
X223334Y323167D01*
Y325833D01*
X222667Y326499D01*
X220668D01*
X227332D02*
X224667D01*
Y324500D01*
X225999Y325166D01*
X226666D01*
X227332Y324500D01*
Y323167D01*
X226666Y322501D01*
X225333D01*
X224667Y323167D01*
X386200Y303899D02*
Y303232D01*
X387533Y301899D01*
X388866Y303232D01*
Y303899D01*
X387533Y301899D02*
Y299900D01*
X392864D02*
X390199D01*
X392864Y302566D01*
Y303232D01*
X392198Y303899D01*
X390865D01*
X390199Y303232D01*
X387100Y331999D02*
Y331332D01*
X388433Y329999D01*
X389766Y331332D01*
Y331999D01*
X388433Y329999D02*
Y328000D01*
X391099D02*
X392432D01*
X391765D01*
Y331999D01*
X391099Y331332D01*
X215999Y283502D02*
X212001D01*
Y285501D01*
X212667Y286167D01*
X214000D01*
X214666Y285501D01*
Y283502D01*
Y284835D02*
X215999Y286167D01*
Y287500D02*
Y288833D01*
Y288167D01*
X212001D01*
X212667Y287500D01*
X215999Y292832D02*
X212001D01*
X214000Y290833D01*
Y293498D01*
X236502Y327501D02*
Y331499D01*
X238501D01*
X239167Y330833D01*
Y329500D01*
X238501Y328834D01*
X236502D01*
X237835D02*
X239167Y327501D01*
X240500D02*
X241833D01*
X241167D01*
Y331499D01*
X240500Y330833D01*
X243833D02*
X244499Y331499D01*
X245832D01*
X246498Y330833D01*
Y330166D01*
X245832Y329500D01*
X245165D01*
X245832D01*
X246498Y328834D01*
Y328167D01*
X245832Y327501D01*
X244499D01*
X243833Y328167D01*
X237002Y336001D02*
Y339999D01*
X239001D01*
X239667Y339333D01*
Y338000D01*
X239001Y337334D01*
X237002D01*
X238334D02*
X239667Y336001D01*
X241000D02*
X242333D01*
X241667D01*
Y339999D01*
X241000Y339333D01*
X246998Y336001D02*
X244333D01*
X246998Y338666D01*
Y339333D01*
X246332Y339999D01*
X244999D01*
X244333Y339333D01*
X265168Y243501D02*
Y247499D01*
X267167D01*
X267834Y246833D01*
Y245500D01*
X267167Y244834D01*
X265168D01*
X266501D02*
X267834Y243501D01*
X269167D02*
X270500D01*
X269833D01*
Y247499D01*
X269167Y246833D01*
X272499Y243501D02*
X273832D01*
X273165D01*
Y247499D01*
X272499Y246833D01*
X370502Y308001D02*
Y311999D01*
X372501D01*
X373167Y311333D01*
Y310000D01*
X372501Y309334D01*
X370502D01*
X371834D02*
X373167Y308001D01*
X374500D02*
X375833D01*
X375167D01*
Y311999D01*
X374500Y311333D01*
X377833D02*
X378499Y311999D01*
X379832D01*
X380498Y311333D01*
Y308667D01*
X379832Y308001D01*
X378499D01*
X377833Y308667D01*
Y311333D01*
X248400Y353500D02*
Y357499D01*
X250399D01*
X251066Y356832D01*
Y355499D01*
X250399Y354833D01*
X248400D01*
X249733D02*
X251066Y353500D01*
X252399Y354166D02*
X253065Y353500D01*
X254398D01*
X255065Y354166D01*
Y356832D01*
X254398Y357499D01*
X253065D01*
X252399Y356832D01*
Y356166D01*
X253065Y355499D01*
X255065D01*
X334999Y268168D02*
X331001D01*
Y270167D01*
X331667Y270834D01*
X333000D01*
X333666Y270167D01*
Y268168D01*
Y269501D02*
X334999Y270834D01*
X331667Y272166D02*
X331001Y272833D01*
Y274166D01*
X331667Y274832D01*
X332334D01*
X333000Y274166D01*
X333666Y274832D01*
X334333D01*
X334999Y274166D01*
Y272833D01*
X334333Y272166D01*
X333666D01*
X333000Y272833D01*
X332334Y272166D01*
X331667D01*
X333000Y272833D02*
Y274166D01*
X309668Y260501D02*
Y264499D01*
X311667D01*
X312334Y263833D01*
Y262500D01*
X311667Y261834D01*
X309668D01*
X311001D02*
X312334Y260501D01*
X313667Y264499D02*
X316332D01*
Y263833D01*
X313667Y261167D01*
Y260501D01*
X277668D02*
Y264499D01*
X279667D01*
X280334Y263833D01*
Y262500D01*
X279667Y261834D01*
X277668D01*
X279001D02*
X280334Y260501D01*
X284332Y264499D02*
X282999Y263833D01*
X281666Y262500D01*
Y261167D01*
X282333Y260501D01*
X283666D01*
X284332Y261167D01*
Y261834D01*
X283666Y262500D01*
X281666D01*
X298400Y252500D02*
Y256499D01*
X300399D01*
X301066Y255832D01*
Y254499D01*
X300399Y253833D01*
X298400D01*
X299733D02*
X301066Y252500D01*
X305065Y256499D02*
X302399D01*
Y254499D01*
X303732Y255166D01*
X304398D01*
X305065Y254499D01*
Y253166D01*
X304398Y252500D01*
X303065D01*
X302399Y253166D01*
X283000Y252500D02*
Y256499D01*
X284999D01*
X285666Y255832D01*
Y254499D01*
X284999Y253833D01*
X283000D01*
X284333D02*
X285666Y252500D01*
X288998D02*
Y256499D01*
X286999Y254499D01*
X289665D01*
X370900Y329000D02*
Y332999D01*
X372899D01*
X373566Y332332D01*
Y330999D01*
X372899Y330333D01*
X370900D01*
X372233D02*
X373566Y329000D01*
X374899Y332332D02*
X375565Y332999D01*
X376898D01*
X377565Y332332D01*
Y331666D01*
X376898Y330999D01*
X376232D01*
X376898D01*
X377565Y330333D01*
Y329666D01*
X376898Y329000D01*
X375565D01*
X374899Y329666D01*
X417168Y327501D02*
Y331499D01*
X419167D01*
X419834Y330833D01*
Y329500D01*
X419167Y328834D01*
X417168D01*
X418501D02*
X419834Y327501D01*
X423832D02*
X421167D01*
X423832Y330166D01*
Y330833D01*
X423166Y331499D01*
X421833D01*
X421167Y330833D01*
X358834Y206001D02*
Y209999D01*
X360834D01*
X361500Y209333D01*
Y208000D01*
X360834Y207334D01*
X358834D01*
X360167D02*
X361500Y206001D01*
X362833D02*
X364166D01*
X363499D01*
Y209999D01*
X362833Y209333D01*
X214066Y384299D02*
X211400D01*
Y382299D01*
X212733D01*
X211400D01*
Y380300D01*
X215399Y384299D02*
Y380300D01*
X217398D01*
X218064Y380966D01*
Y381633D01*
X217398Y382299D01*
X215399D01*
X217398D01*
X218064Y382966D01*
Y383632D01*
X217398Y384299D01*
X215399D01*
X219397Y380300D02*
X220730D01*
X220064D01*
Y384299D01*
X219397Y383632D01*
X208168Y340999D02*
Y337001D01*
X210167D01*
X210834Y337667D01*
Y340333D01*
X210167Y340999D01*
X208168D01*
X214832Y337001D02*
X212167D01*
X214832Y339666D01*
Y340333D01*
X214166Y340999D01*
X212833D01*
X212167Y340333D01*
X265000Y356099D02*
Y352100D01*
X266999D01*
X267666Y352766D01*
Y355432D01*
X266999Y356099D01*
X265000D01*
X268999Y352100D02*
X270332D01*
X269665D01*
Y356099D01*
X268999Y355432D01*
X268667Y430334D02*
X268001Y429668D01*
Y428335D01*
X268667Y427668D01*
X271333D01*
X271999Y428335D01*
Y429668D01*
X271333Y430334D01*
X271999Y434333D02*
Y431667D01*
X269334Y434333D01*
X268667D01*
X268001Y433666D01*
Y432334D01*
X268667Y431667D01*
X268001Y438332D02*
X268667Y436999D01*
X270000Y435666D01*
X271333D01*
X271999Y436332D01*
Y437665D01*
X271333Y438332D01*
X270666D01*
X270000Y437665D01*
Y435666D01*
X304334Y432333D02*
X303668Y432999D01*
X302335D01*
X301668Y432333D01*
Y429667D01*
X302335Y429001D01*
X303668D01*
X304334Y429667D01*
X308333Y429001D02*
X305667D01*
X308333Y431666D01*
Y432333D01*
X307666Y432999D01*
X306334D01*
X305667Y432333D01*
X312332Y432999D02*
X309666D01*
Y431000D01*
X310999Y431666D01*
X311665D01*
X312332Y431000D01*
Y429667D01*
X311665Y429001D01*
X310332D01*
X309666Y429667D01*
X315834Y377833D02*
X315168Y378499D01*
X313835D01*
X313168Y377833D01*
Y375167D01*
X313835Y374501D01*
X315168D01*
X315834Y375167D01*
X319833Y374501D02*
X317167D01*
X319833Y377166D01*
Y377833D01*
X319166Y378499D01*
X317834D01*
X317167Y377833D01*
X323165Y374501D02*
Y378499D01*
X321166Y376500D01*
X323832D01*
X321833Y396666D02*
X322499Y397332D01*
Y398665D01*
X321833Y399332D01*
X319167D01*
X318501Y398665D01*
Y397332D01*
X319167Y396666D01*
X318501Y392667D02*
Y395333D01*
X321166Y392667D01*
X321833D01*
X322499Y393334D01*
Y394666D01*
X321833Y395333D01*
Y391334D02*
X322499Y390668D01*
Y389335D01*
X321833Y388668D01*
X321166D01*
X320500Y389335D01*
Y390001D01*
Y389335D01*
X319834Y388668D01*
X319167D01*
X318501Y389335D01*
Y390668D01*
X319167Y391334D01*
X244334Y367333D02*
X243668Y367999D01*
X242335D01*
X241668Y367333D01*
Y364667D01*
X242335Y364001D01*
X243668D01*
X244334Y364667D01*
X248333Y364001D02*
X245667D01*
X248333Y366666D01*
Y367333D01*
X247666Y367999D01*
X246334D01*
X245667Y367333D01*
X252332Y364001D02*
X249666D01*
X252332Y366666D01*
Y367333D01*
X251665Y367999D01*
X250332D01*
X249666Y367333D01*
X231667Y391001D02*
X231001Y390334D01*
Y389001D01*
X231667Y388335D01*
X234333D01*
X234999Y389001D01*
Y390334D01*
X234333Y391001D01*
X234999Y394999D02*
Y392334D01*
X232334Y394999D01*
X231667D01*
X231001Y394333D01*
Y393000D01*
X231667Y392334D01*
X234999Y396332D02*
Y397665D01*
Y396999D01*
X231001D01*
X231667Y396332D01*
X202667Y391834D02*
X202001Y391168D01*
Y389835D01*
X202667Y389168D01*
X205333D01*
X205999Y389835D01*
Y391168D01*
X205333Y391834D01*
X205999Y395833D02*
Y393167D01*
X203333Y395833D01*
X202667D01*
X202001Y395166D01*
Y393834D01*
X202667Y393167D01*
Y397166D02*
X202001Y397832D01*
Y399165D01*
X202667Y399832D01*
X205333D01*
X205999Y399165D01*
Y397832D01*
X205333Y397166D01*
X202667D01*
X256667Y240667D02*
X256001Y240001D01*
Y238668D01*
X256667Y238002D01*
X259333D01*
X259999Y238668D01*
Y240001D01*
X259333Y240667D01*
X259999Y242000D02*
Y243333D01*
Y242667D01*
X256001D01*
X256667Y242000D01*
X259333Y245333D02*
X259999Y245999D01*
Y247332D01*
X259333Y247998D01*
X256667D01*
X256001Y247332D01*
Y245999D01*
X256667Y245333D01*
X257334D01*
X258000Y245999D01*
Y247998D01*
X417167Y302333D02*
X416501Y302999D01*
X415168D01*
X414502Y302333D01*
Y299667D01*
X415168Y299001D01*
X416501D01*
X417167Y299667D01*
X418500Y299001D02*
X419833D01*
X419167D01*
Y302999D01*
X418500Y302333D01*
X421833D02*
X422499Y302999D01*
X423832D01*
X424498Y302333D01*
Y301666D01*
X423832Y301000D01*
X424498Y300334D01*
Y299667D01*
X423832Y299001D01*
X422499D01*
X421833Y299667D01*
Y300334D01*
X422499Y301000D01*
X421833Y301666D01*
Y302333D01*
X422499Y301000D02*
X423832D01*
X289667Y299667D02*
X289001Y299001D01*
Y297668D01*
X289667Y297002D01*
X292333D01*
X292999Y297668D01*
Y299001D01*
X292333Y299667D01*
X292999Y301000D02*
Y302333D01*
Y301667D01*
X289001D01*
X289667Y301000D01*
X289001Y304333D02*
Y306998D01*
X289667D01*
X292333Y304333D01*
X292999D01*
X282167Y351833D02*
X281501Y352499D01*
X280168D01*
X279502Y351833D01*
Y349167D01*
X280168Y348501D01*
X281501D01*
X282167Y349167D01*
X283500Y348501D02*
X284833D01*
X284167D01*
Y352499D01*
X283500Y351833D01*
X289498Y352499D02*
X288165Y351833D01*
X286833Y350500D01*
Y349167D01*
X287499Y348501D01*
X288832D01*
X289498Y349167D01*
Y349834D01*
X288832Y350500D01*
X286833D01*
X362167Y275667D02*
X361501Y275001D01*
Y273668D01*
X362167Y273002D01*
X364833D01*
X365499Y273668D01*
Y275001D01*
X364833Y275667D01*
X365499Y277000D02*
Y278333D01*
Y277667D01*
X361501D01*
X362167Y277000D01*
X361501Y282998D02*
Y280333D01*
X363500D01*
X362834Y281665D01*
Y282332D01*
X363500Y282998D01*
X364833D01*
X365499Y282332D01*
Y280999D01*
X364833Y280333D01*
X376167Y355833D02*
X375501Y356499D01*
X374168D01*
X373502Y355833D01*
Y353167D01*
X374168Y352501D01*
X375501D01*
X376167Y353167D01*
X377500Y352501D02*
X378833D01*
X378167D01*
Y356499D01*
X377500Y355833D01*
X382832Y352501D02*
Y356499D01*
X380833Y354500D01*
X383498D01*
X376667Y346833D02*
X376001Y347499D01*
X374668D01*
X374002Y346833D01*
Y344167D01*
X374668Y343501D01*
X376001D01*
X376667Y344167D01*
X378000Y343501D02*
X379333D01*
X378667D01*
Y347499D01*
X378000Y346833D01*
X381333D02*
X381999Y347499D01*
X383332D01*
X383998Y346833D01*
Y346166D01*
X383332Y345500D01*
X382665D01*
X383332D01*
X383998Y344834D01*
Y344167D01*
X383332Y343501D01*
X381999D01*
X381333Y344167D01*
X351667Y275667D02*
X351001Y275001D01*
Y273668D01*
X351667Y273002D01*
X354333D01*
X354999Y273668D01*
Y275001D01*
X354333Y275667D01*
X354999Y277000D02*
Y278333D01*
Y277667D01*
X351001D01*
X351667Y277000D01*
X354999Y282998D02*
Y280333D01*
X352334Y282998D01*
X351667D01*
X351001Y282332D01*
Y280999D01*
X351667Y280333D01*
X374866Y293832D02*
X374199Y294499D01*
X372866D01*
X372200Y293832D01*
Y291166D01*
X372866Y290500D01*
X374199D01*
X374866Y291166D01*
X376199Y290500D02*
X377532D01*
X376865D01*
Y294499D01*
X376199Y293832D01*
X379531Y290500D02*
X380864D01*
X380197D01*
Y294499D01*
X379531Y293832D01*
X282167Y360333D02*
X281501Y360999D01*
X280168D01*
X279502Y360333D01*
Y357667D01*
X280168Y357001D01*
X281501D01*
X282167Y357667D01*
X283500Y357001D02*
X284833D01*
X284167D01*
Y360999D01*
X283500Y360333D01*
X286833D02*
X287499Y360999D01*
X288832D01*
X289498Y360333D01*
Y357667D01*
X288832Y357001D01*
X287499D01*
X286833Y357667D01*
Y360333D01*
X402366Y333332D02*
X401699Y333999D01*
X400366D01*
X399700Y333332D01*
Y330666D01*
X400366Y330000D01*
X401699D01*
X402366Y330666D01*
X403699D02*
X404365Y330000D01*
X405698D01*
X406364Y330666D01*
Y333332D01*
X405698Y333999D01*
X404365D01*
X403699Y333332D01*
Y332666D01*
X404365Y331999D01*
X406364D01*
X403834Y303833D02*
X403167Y304499D01*
X401834D01*
X401168Y303833D01*
Y301167D01*
X401834Y300501D01*
X403167D01*
X403834Y301167D01*
X405166Y303833D02*
X405833Y304499D01*
X407166D01*
X407832Y303833D01*
Y303166D01*
X407166Y302500D01*
X407832Y301834D01*
Y301167D01*
X407166Y300501D01*
X405833D01*
X405166Y301167D01*
Y301834D01*
X405833Y302500D01*
X405166Y303166D01*
Y303833D01*
X405833Y302500D02*
X407166D01*
X231834Y229333D02*
X231167Y229999D01*
X229834D01*
X229168Y229333D01*
Y226667D01*
X229834Y226001D01*
X231167D01*
X231834Y226667D01*
X233167Y229999D02*
X235832D01*
Y229333D01*
X233167Y226667D01*
Y226001D01*
X287866Y222832D02*
X287199Y223499D01*
X285866D01*
X285200Y222832D01*
Y220166D01*
X285866Y219500D01*
X287199D01*
X287866Y220166D01*
X291864Y223499D02*
X290532Y222832D01*
X289199Y221499D01*
Y220166D01*
X289865Y219500D01*
X291198D01*
X291864Y220166D01*
Y220833D01*
X291198Y221499D01*
X289199D01*
X241834Y210833D02*
X241167Y211499D01*
X239834D01*
X239168Y210833D01*
Y208167D01*
X239834Y207501D01*
X241167D01*
X241834Y208167D01*
X245832Y211499D02*
X243166D01*
Y209500D01*
X244499Y210166D01*
X245166D01*
X245832Y209500D01*
Y208167D01*
X245166Y207501D01*
X243833D01*
X243166Y208167D01*
X231834Y219833D02*
X231167Y220499D01*
X229834D01*
X229168Y219833D01*
Y217167D01*
X229834Y216501D01*
X231167D01*
X231834Y217167D01*
X235166Y216501D02*
Y220499D01*
X233167Y218500D01*
X235832D01*
X338667Y384074D02*
X338001Y383407D01*
Y382074D01*
X338667Y381408D01*
X341333D01*
X341999Y382074D01*
Y383407D01*
X341333Y384074D01*
X338667Y385407D02*
X338001Y386073D01*
Y387406D01*
X338667Y388072D01*
X339334D01*
X340000Y387406D01*
Y386739D01*
Y387406D01*
X340666Y388072D01*
X341333D01*
X341999Y387406D01*
Y386073D01*
X341333Y385407D01*
X321667Y220334D02*
X321001Y219667D01*
Y218334D01*
X321667Y217668D01*
X324333D01*
X324999Y218334D01*
Y219667D01*
X324333Y220334D01*
X324999Y224332D02*
Y221667D01*
X322334Y224332D01*
X321667D01*
X321001Y223666D01*
Y222333D01*
X321667Y221667D01*
X331167Y221500D02*
X330501Y220834D01*
Y219501D01*
X331167Y218834D01*
X333833D01*
X334499Y219501D01*
Y220834D01*
X333833Y221500D01*
X334499Y222833D02*
Y224166D01*
Y223499D01*
X330501D01*
X331167Y222833D01*
D11*
X359075Y236124D02*
G03*
X359075Y230616I-98J-2754D01*
G01*
X296835Y430402D02*
G03*
X296835Y430402I-10335J0D01*
G01*
X311933Y393500D02*
G03*
X311933Y393500I-10335J0D01*
G01*
X340669Y226776D02*
Y239965D01*
Y226776D02*
X359370D01*
Y239965D01*
X340669D02*
X359370D01*
X283449Y417311D02*
Y419870D01*
X292996D02*
X296933Y423807D01*
Y419870D02*
Y440736D01*
X286500Y419870D02*
X296933D01*
X276067Y423807D02*
X280004Y419870D01*
X276067D02*
Y440736D01*
Y419870D02*
X286500D01*
X276067Y440736D02*
X296933D01*
X289551Y417311D02*
Y419870D01*
X283449Y440736D02*
Y443394D01*
X289551Y440736D02*
Y443394D01*
X312130Y390449D02*
X314689D01*
X308193Y403933D02*
X312130Y399996D01*
X291264Y403933D02*
X312130D01*
Y393500D02*
Y403933D01*
X308193Y383067D02*
X312130Y387004D01*
X291264Y383067D02*
X312130D01*
Y393500D01*
X291264Y383067D02*
Y403933D01*
X312130Y396551D02*
X314689D01*
X288606Y390449D02*
X291264D01*
X288606Y396551D02*
X291264D01*
D12*
X278913Y231114D02*
G03*
X278913Y231114I-492J0D01*
G01*
X358492Y372760D02*
G03*
X358492Y372760I-492J0D01*
G01*
X217079Y261358D02*
G03*
X217079Y261358I-492J0D01*
G01*
X281772Y397972D02*
G03*
X281772Y397972I-492J0D01*
G01*
X318480Y408768D02*
G03*
X318480Y408768I-492J0D01*
G01*
X200492Y366961D02*
G03*
X200492Y366961I-492J0D01*
G01*
X219012Y316929D02*
G03*
X219012Y316929I-492J0D01*
G01*
X216055Y328354D02*
G03*
X216055Y328354I-492J0D01*
G01*
X373067Y190000D02*
G03*
X373067Y190000I-500J0D01*
G01*
X466905Y308142D02*
G03*
X466905Y308142I-492J0D01*
G01*
X403342Y292945D02*
G03*
X403342Y292945I-492J0D01*
G01*
X274327Y416000D02*
G03*
X274327Y416000I-492J0D01*
G01*
D13*
X359161Y387027D02*
G03*
X359161Y387027I-984J0D01*
G01*
D14*
X234000Y303000D02*
X235000D01*
X234000Y302000D02*
Y303000D01*
Y302000D02*
X235000D01*
Y303000D01*
D15*
X358400Y350400D02*
X362650D01*
X367350D02*
X371700D01*
Y342600D02*
Y350400D01*
X367450Y342600D02*
X371700D01*
X358400D02*
Y350400D01*
Y342600D02*
X362550D01*
X358400Y359900D02*
X362650D01*
X367350D02*
X371700D01*
Y352100D02*
Y359900D01*
X367450Y352100D02*
X371700D01*
X358400D02*
Y359900D01*
Y352100D02*
X362550D01*
X227400Y293350D02*
Y297600D01*
Y284300D02*
Y288650D01*
X219600Y284300D02*
X227400D01*
X219600D02*
Y288550D01*
Y297600D02*
X227400D01*
X219600Y293450D02*
Y297600D01*
X309900Y421350D02*
Y425600D01*
Y412300D02*
Y416650D01*
X302100Y412300D02*
X309900D01*
X302100D02*
Y416550D01*
Y425600D02*
X309900D01*
X302100Y421450D02*
Y425600D01*
X236350Y342600D02*
X240600D01*
X227300D02*
X231650D01*
X227300D02*
Y350400D01*
X231550D01*
X240600Y342600D02*
Y350400D01*
X236450D02*
X240600D01*
X204400Y371660D02*
Y375810D01*
X196600Y371660D02*
X204400D01*
Y380710D02*
Y384960D01*
X196600D02*
X204400D01*
X196600Y380610D02*
Y384960D01*
Y371660D02*
Y375910D01*
X343400Y204600D02*
X347550D01*
X343400D02*
Y212400D01*
X352450Y204600D02*
X356700D01*
Y212400D01*
X352350D02*
X356700D01*
X343400D02*
X347650D01*
X337900Y277400D02*
Y281550D01*
X330100Y277400D02*
X337900D01*
Y286450D02*
Y290700D01*
X330100D02*
X337900D01*
X330100Y286350D02*
Y290700D01*
Y277400D02*
Y281650D01*
X239400Y224600D02*
X243550D01*
X239400D02*
Y232400D01*
X248450Y224600D02*
X252700D01*
Y232400D01*
X248350D02*
X252700D01*
X239400D02*
X243650D01*
X239400Y214600D02*
X243550D01*
X239400D02*
Y222400D01*
X248450Y214600D02*
X252700D01*
Y222400D01*
X248350D02*
X252700D01*
X239400D02*
X243650D01*
X248900Y202600D02*
X253050D01*
X248900D02*
Y210400D01*
X257950Y202600D02*
X262200D01*
Y210400D01*
X257850D02*
X262200D01*
X248900D02*
X253150D01*
X297600Y268950D02*
Y273100D01*
X305400D01*
X297600Y259800D02*
Y264050D01*
Y259800D02*
X305400D01*
Y264150D01*
Y268850D02*
Y273100D01*
X288600Y268950D02*
Y273100D01*
X296400D01*
X288600Y259800D02*
Y264050D01*
Y259800D02*
X296400D01*
Y264150D01*
Y268850D02*
Y273100D01*
X424400Y310400D02*
Y314550D01*
X416600Y310400D02*
X424400D01*
Y319450D02*
Y323700D01*
X416600D02*
X424400D01*
X416600Y319350D02*
Y323700D01*
Y310400D02*
Y314650D01*
X265000Y260025D02*
Y264175D01*
X272800D01*
X265000Y250875D02*
Y255125D01*
Y250875D02*
X272800D01*
Y255225D01*
Y259925D02*
Y264175D01*
X255000Y260025D02*
Y264175D01*
X262800D01*
X255000Y250875D02*
Y255125D01*
Y250875D02*
X262800D01*
Y255225D01*
Y259925D02*
Y264175D01*
X349600Y295210D02*
Y299360D01*
X357400D01*
X349600Y286060D02*
Y290310D01*
Y286060D02*
X357400D01*
Y290410D01*
Y295110D02*
Y299360D01*
X359600Y295450D02*
Y299600D01*
X367400D01*
X359600Y286300D02*
Y290550D01*
Y286300D02*
X367400D01*
Y290650D01*
Y295350D02*
Y299600D01*
X303900Y295660D02*
Y299810D01*
X296100Y295660D02*
X303900D01*
Y304710D02*
Y308960D01*
X296100D02*
X303900D01*
X296100Y304610D02*
Y308960D01*
Y295660D02*
Y299910D01*
X300450Y350900D02*
X304600D01*
Y343100D02*
Y350900D01*
X291300D02*
X295550D01*
X291300Y343100D02*
Y350900D01*
Y343100D02*
X295650D01*
X300350D02*
X304600D01*
X300710Y361400D02*
X304860D01*
Y353600D02*
Y361400D01*
X291560D02*
X295810D01*
X291560Y353600D02*
Y361400D01*
Y353600D02*
X295910D01*
X300610D02*
X304860D01*
X418950Y296900D02*
X423100D01*
Y289100D02*
Y296900D01*
X409800D02*
X414050D01*
X409800Y289100D02*
Y296900D01*
Y289100D02*
X414150D01*
X418850D02*
X423100D01*
X370640Y298100D02*
X374790D01*
X370640D02*
Y305900D01*
X379690Y298100D02*
X383940D01*
Y305900D01*
X379590D02*
X383940D01*
X370640D02*
X374890D01*
X399660Y308100D02*
X403810D01*
X399660D02*
Y315900D01*
X408710Y308100D02*
X412960D01*
Y315900D01*
X408610D02*
X412960D01*
X399660D02*
X403910D01*
X220400Y330100D02*
X224550D01*
X220400D02*
Y337900D01*
X229450Y330100D02*
X233700D01*
Y337900D01*
X229350D02*
X233700D01*
X220400D02*
X224650D01*
X264950Y367400D02*
X269100D01*
Y359600D02*
Y367400D01*
X255800D02*
X260050D01*
X255800Y359600D02*
Y367400D01*
Y359600D02*
X260150D01*
X264850D02*
X269100D01*
X296400Y372100D02*
X300550D01*
X296400D02*
Y379900D01*
X305450Y372100D02*
X309700D01*
Y379900D01*
X305350D02*
X309700D01*
X296400D02*
X300650D01*
X236400Y371400D02*
Y375550D01*
X228600Y371400D02*
X236400D01*
Y380450D02*
Y384700D01*
X228600D02*
X236400D01*
X228600Y380350D02*
Y384700D01*
Y371400D02*
Y375650D01*
X352400Y378400D02*
Y382550D01*
X344600Y378400D02*
X352400D01*
Y387450D02*
Y391700D01*
X344600D02*
X352400D01*
X344600Y387350D02*
Y391700D01*
Y378400D02*
Y382650D01*
X319100Y235450D02*
Y239600D01*
X326900D01*
X319100Y226300D02*
Y230550D01*
Y226300D02*
X326900D01*
Y230650D01*
Y235350D02*
Y239600D01*
X329100Y235450D02*
Y239600D01*
X336900D01*
X329100Y226300D02*
Y230550D01*
Y226300D02*
X336900D01*
Y230650D01*
Y235350D02*
Y239600D01*
X292900Y203140D02*
Y207290D01*
X285100Y203140D02*
X292900D01*
Y212190D02*
Y216440D01*
X285100D02*
X292900D01*
X285100Y212090D02*
Y216440D01*
Y203140D02*
Y207390D01*
X257450Y350400D02*
X261600D01*
Y342600D02*
Y350400D01*
X248300D02*
X252550D01*
X248300Y342600D02*
Y350400D01*
Y342600D02*
X252650D01*
X257350D02*
X261600D01*
X399640Y319100D02*
X403790D01*
X399640D02*
Y326900D01*
X408690Y319100D02*
X412940D01*
Y326900D01*
X408590D02*
X412940D01*
X399640D02*
X403890D01*
X379950Y325900D02*
X384100D01*
Y318100D02*
Y325900D01*
X370800D02*
X375050D01*
X370800Y318100D02*
Y325900D01*
Y318100D02*
X375150D01*
X379850D02*
X384100D01*
X372100Y283210D02*
Y287360D01*
X379900D01*
X372100Y274060D02*
Y278310D01*
Y274060D02*
X379900D01*
Y278410D01*
Y283110D02*
Y287360D01*
X307450Y249400D02*
X311600D01*
Y241600D02*
Y249400D01*
X298300D02*
X302550D01*
X298300Y241600D02*
Y249400D01*
Y241600D02*
X302650D01*
X307350D02*
X311600D01*
X282900D02*
X287050D01*
X282900D02*
Y249400D01*
X291950Y241600D02*
X296200D01*
Y249400D01*
X291850D02*
X296200D01*
X282900D02*
X287150D01*
X299000Y211498D02*
X300999D01*
X300000D01*
Y205500D01*
X299000D01*
X300999D01*
X307997D02*
X303998D01*
X307997Y209499D01*
Y210498D01*
X306997Y211498D01*
X304998D01*
X303998Y210498D01*
X313995D02*
X312996Y211498D01*
X310996D01*
X309996Y210498D01*
Y206500D01*
X310996Y205500D01*
X312996D01*
X313995Y206500D01*
X242999Y309998D02*
X241999Y310998D01*
X240000D01*
X239000Y309998D01*
Y308999D01*
X240000Y307999D01*
X241999D01*
X242999Y306999D01*
Y306000D01*
X241999Y305000D01*
X240000D01*
X239000Y306000D01*
X244998Y310998D02*
Y305000D01*
X246997Y306999D01*
X248997Y305000D01*
Y310998D01*
X250996D02*
Y305000D01*
X253995D01*
X254995Y306000D01*
Y309998D01*
X253995Y310998D01*
X250996D01*
X340000Y258997D02*
Y252999D01*
X342999D01*
X343999Y253999D01*
Y257998D01*
X342999Y258997D01*
X340000D01*
X348997Y252999D02*
X346998D01*
X345998Y253999D01*
Y255998D01*
X346998Y256998D01*
X348997D01*
X349997Y255998D01*
Y254999D01*
X345998D01*
X351996Y252999D02*
X354995D01*
X355995Y253999D01*
X354995Y254999D01*
X352996D01*
X351996Y255998D01*
X352996Y256998D01*
X355995D01*
X357994Y252999D02*
X359994D01*
X358994D01*
Y256998D01*
X357994D01*
X364992Y251000D02*
X365992D01*
X366991Y252000D01*
Y256998D01*
X363992D01*
X362993Y255998D01*
Y253999D01*
X363992Y252999D01*
X366991D01*
X368991D02*
Y256998D01*
X371990D01*
X372989Y255998D01*
Y252999D01*
X377988D02*
X375988D01*
X374989Y253999D01*
Y255998D01*
X375988Y256998D01*
X377988D01*
X378987Y255998D01*
Y254999D01*
X374989D01*
X384985Y258997D02*
Y252999D01*
X381986D01*
X380987Y253999D01*
Y255998D01*
X381986Y256998D01*
X384985D01*
X392983Y252999D02*
X394982D01*
X393983D01*
Y256998D01*
X392983D01*
X397981Y252999D02*
Y256998D01*
X400980D01*
X401980Y255998D01*
Y252999D01*
X409977D02*
Y258997D01*
X412976D01*
X413976Y257998D01*
Y255998D01*
X412976Y254999D01*
X409977D01*
X416975Y252999D02*
X418974D01*
X419974Y253999D01*
Y255998D01*
X418974Y256998D01*
X416975D01*
X415975Y255998D01*
Y253999D01*
X416975Y252999D01*
X421974D02*
X423973D01*
X422973D01*
Y258997D01*
X421974D01*
X427972Y256998D02*
X429971D01*
X430971Y255998D01*
Y252999D01*
X427972D01*
X426972Y253999D01*
X427972Y254999D01*
X430971D01*
X432970Y252999D02*
Y256998D01*
X435969D01*
X436969Y255998D01*
Y252999D01*
X442967Y258997D02*
Y252999D01*
X439968D01*
X438968Y253999D01*
Y255998D01*
X439968Y256998D01*
X442967D01*
X342999Y267998D02*
X341999Y268998D01*
X340000D01*
X339000Y267998D01*
Y266999D01*
X340000Y265999D01*
X341999D01*
X342999Y264999D01*
Y264000D01*
X341999Y263000D01*
X340000D01*
X339000Y264000D01*
X344998Y268998D02*
X348997D01*
X346997D01*
Y263000D01*
X350996D02*
Y268998D01*
X352995Y266999D01*
X354995Y268998D01*
Y263000D01*
X356994Y267998D02*
X357994Y268998D01*
X359993D01*
X360993Y267998D01*
Y266999D01*
X359993Y265999D01*
X358994D01*
X359993D01*
X360993Y264999D01*
Y264000D01*
X359993Y263000D01*
X357994D01*
X356994Y264000D01*
X366991Y263000D02*
X362992D01*
X366991Y266999D01*
Y267998D01*
X365991Y268998D01*
X363992D01*
X362992Y267998D01*
X368990Y268998D02*
Y263000D01*
X372989D01*
X377987D02*
Y268998D01*
X374988Y265999D01*
X378987D01*
X390983Y267998D02*
X389984Y268998D01*
X387984D01*
X386984Y267998D01*
Y266999D01*
X387984Y265999D01*
X389984D01*
X390983Y264999D01*
Y264000D01*
X389984Y263000D01*
X387984D01*
X386984Y264000D01*
X395982Y263000D02*
X393982D01*
X392983Y264000D01*
Y265999D01*
X393982Y266999D01*
X395982D01*
X396981Y265999D01*
Y264999D01*
X392983D01*
X398981Y266999D02*
Y263000D01*
Y264999D01*
X399980Y265999D01*
X400980Y266999D01*
X401980D01*
X404979Y263000D02*
X406978D01*
X405978D01*
Y266999D01*
X404979D01*
X412976Y263000D02*
X410977D01*
X409977Y264000D01*
Y265999D01*
X410977Y266999D01*
X412976D01*
X413976Y265999D01*
Y264999D01*
X409977D01*
X415975Y263000D02*
X418974D01*
X419974Y264000D01*
X418974Y264999D01*
X416975D01*
X415975Y265999D01*
X416975Y266999D01*
X419974D01*
X427971Y268998D02*
Y263000D01*
X430970D01*
X431970Y264000D01*
Y264999D01*
X430970Y265999D01*
X427971D01*
X430970D01*
X431970Y266999D01*
Y267998D01*
X430970Y268998D01*
X427971D01*
X434969Y263000D02*
X436968D01*
X437968Y264000D01*
Y265999D01*
X436968Y266999D01*
X434969D01*
X433969Y265999D01*
Y264000D01*
X434969Y263000D01*
X440967Y266999D02*
X442966D01*
X443966Y265999D01*
Y263000D01*
X440967D01*
X439967Y264000D01*
X440967Y264999D01*
X443966D01*
X445965Y266999D02*
Y263000D01*
Y264999D01*
X446965Y265999D01*
X447965Y266999D01*
X448964D01*
X455962Y268998D02*
Y263000D01*
X452963D01*
X451964Y264000D01*
Y265999D01*
X452963Y266999D01*
X455962D01*
X242500Y447498D02*
Y441500D01*
X245499D01*
X246499Y442500D01*
Y446498D01*
X245499Y447498D01*
X242500D01*
X252497Y446498D02*
X251497Y447498D01*
X249498D01*
X248498Y446498D01*
Y442500D01*
X249498Y441500D01*
X251497D01*
X252497Y442500D01*
X254496Y441500D02*
X256495D01*
X255496D01*
Y447498D01*
X254496Y446498D01*
X263493Y441500D02*
X259494D01*
X263493Y445499D01*
Y446498D01*
X262493Y447498D01*
X260494D01*
X259494Y446498D01*
X265493Y447498D02*
Y443499D01*
X267492Y441500D01*
X269491Y443499D01*
Y447498D01*
X182500Y291998D02*
Y287000D01*
X183500Y286000D01*
X185499D01*
X186499Y287000D01*
Y291998D01*
X192497Y290998D02*
X191497Y291998D01*
X189498D01*
X188498Y290998D01*
Y289999D01*
X189498Y288999D01*
X191497D01*
X192497Y287999D01*
Y287000D01*
X191497Y286000D01*
X189498D01*
X188498Y287000D01*
X194496Y291998D02*
Y286000D01*
X197495D01*
X198495Y287000D01*
Y287999D01*
X197495Y288999D01*
X194496D01*
X197495D01*
X198495Y289999D01*
Y290998D01*
X197495Y291998D01*
X194496D01*
X401500Y411500D02*
Y417498D01*
X404499D01*
X405499Y416498D01*
Y414499D01*
X404499Y413499D01*
X401500D01*
X410497Y417498D02*
X408498D01*
X407498Y416498D01*
Y412500D01*
X408498Y411500D01*
X410497D01*
X411497Y412500D01*
Y416498D01*
X410497Y417498D01*
X413496D02*
Y411500D01*
X415495Y413499D01*
X417495Y411500D01*
Y417498D01*
X423493D02*
X419494D01*
Y411500D01*
X423493D01*
X419494Y414499D02*
X421493D01*
X425492Y411500D02*
Y417498D01*
X428491D01*
X429491Y416498D01*
Y414499D01*
X428491Y413499D01*
X425492D01*
X427492D02*
X429491Y411500D01*
X442500Y417498D02*
Y412500D01*
X443500Y411500D01*
X445499D01*
X446499Y412500D01*
Y417498D01*
X448498Y411500D02*
Y415499D01*
X450497Y417498D01*
X452497Y415499D01*
Y411500D01*
Y414499D01*
X448498D01*
X454496Y411500D02*
Y417498D01*
X457495D01*
X458495Y416498D01*
Y414499D01*
X457495Y413499D01*
X454496D01*
X456496D02*
X458495Y411500D01*
X460494Y417498D02*
X464493D01*
X462494D01*
Y411500D01*
X203500Y204500D02*
Y210498D01*
X206499D01*
X207499Y209498D01*
Y207499D01*
X206499Y206499D01*
X203500D01*
X212497Y210498D02*
X210498D01*
X209498Y209498D01*
Y205500D01*
X210498Y204500D01*
X212497D01*
X213497Y205500D01*
Y209498D01*
X212497Y210498D01*
X215496Y204500D02*
Y210498D01*
X218495D01*
X219495Y209498D01*
Y207499D01*
X218495Y206499D01*
X215496D01*
X217495D02*
X219495Y204500D01*
X221494Y210498D02*
X225493D01*
X223494D01*
Y204500D01*
X227492Y210498D02*
Y204500D01*
X230491D01*
X231491Y205500D01*
Y206499D01*
X230491Y207499D01*
X227492D01*
X230491D01*
X231491Y208499D01*
Y209498D01*
X230491Y210498D01*
X227492D01*
X206500Y277000D02*
X212498D01*
Y274001D01*
X211498Y273001D01*
X209499D01*
X208499Y274001D01*
Y277000D01*
X212498Y268003D02*
Y270002D01*
X211498Y271002D01*
X207500D01*
X206500Y270002D01*
Y268003D01*
X207500Y267003D01*
X211498D01*
X212498Y268003D01*
X206500Y265004D02*
X212498D01*
Y262005D01*
X211498Y261005D01*
X209499D01*
X208499Y262005D01*
Y265004D01*
Y263004D02*
X206500Y261005D01*
X212498Y259006D02*
Y255007D01*
Y257007D01*
X206500D01*
Y253008D02*
X210499D01*
X212498Y251008D01*
X210499Y249009D01*
X206500D01*
X209499D01*
Y253008D01*
X384500Y205000D02*
Y210998D01*
X387499D01*
X388499Y209998D01*
Y207999D01*
X387499Y206999D01*
X384500D01*
X393497Y210998D02*
X391498D01*
X390498Y209998D01*
Y206000D01*
X391498Y205000D01*
X393497D01*
X394497Y206000D01*
Y209998D01*
X393497Y210998D01*
X396496Y205000D02*
Y210998D01*
X399495D01*
X400495Y209998D01*
Y207999D01*
X399495Y206999D01*
X396496D01*
X398496D02*
X400495Y205000D01*
X402494Y210998D02*
X406493D01*
X404494D01*
Y205000D01*
X408492Y210998D02*
Y205000D01*
X411491D01*
X412491Y206000D01*
Y206999D01*
X411491Y207999D01*
X408492D01*
X411491D01*
X412491Y208999D01*
Y209998D01*
X411491Y210998D01*
X408492D01*
X466500Y246500D02*
X460502D01*
Y249499D01*
X461502Y250499D01*
X463501D01*
X464501Y249499D01*
Y246500D01*
X460502Y255497D02*
Y253498D01*
X461502Y252498D01*
X465500D01*
X466500Y253498D01*
Y255497D01*
X465500Y256497D01*
X461502D01*
X460502Y255497D01*
X466500Y258496D02*
X460502D01*
Y261495D01*
X461502Y262495D01*
X463501D01*
X464501Y261495D01*
Y258496D01*
Y260495D02*
X466500Y262495D01*
X460502Y264494D02*
Y268493D01*
Y266494D01*
X466500D01*
X461502Y274491D02*
X460502Y273491D01*
Y271492D01*
X461502Y270492D01*
X465500D01*
X466500Y271492D01*
Y273491D01*
X465500Y274491D01*
X468500Y342500D02*
X462502D01*
Y345499D01*
X463502Y346499D01*
X465501D01*
X466501Y345499D01*
Y342500D01*
X462502Y351497D02*
Y349498D01*
X463502Y348498D01*
X467500D01*
X468500Y349498D01*
Y351497D01*
X467500Y352497D01*
X463502D01*
X462502Y351497D01*
X468500Y354496D02*
X462502D01*
Y357495D01*
X463502Y358495D01*
X465501D01*
X466501Y357495D01*
Y354496D01*
Y356495D02*
X468500Y358495D01*
X462502Y360494D02*
Y364493D01*
Y362493D01*
X468500D01*
Y366492D02*
X464501D01*
X462502Y368492D01*
X464501Y370491D01*
X468500D01*
X465501D01*
Y366492D01*
X406998Y393001D02*
Y397000D01*
X403999D01*
Y395001D01*
Y397000D01*
X401000D01*
X406998Y391002D02*
X401000D01*
Y387003D01*
Y385004D02*
X404999D01*
X406998Y383004D01*
X404999Y381005D01*
X401000D01*
X403999D01*
Y385004D01*
X405998Y375007D02*
X406998Y376007D01*
Y378006D01*
X405998Y379006D01*
X404999D01*
X403999Y378006D01*
Y376007D01*
X402999Y375007D01*
X402000D01*
X401000Y376007D01*
Y378006D01*
X402000Y379006D01*
X406998Y373008D02*
X401000D01*
X403999D01*
Y369009D01*
X406998D01*
X401000D01*
X313000Y353000D02*
Y358998D01*
X314999Y356999D01*
X316999Y358998D01*
Y353000D01*
X322997Y357998D02*
X321997Y358998D01*
X319998D01*
X318998Y357998D01*
Y354000D01*
X319998Y353000D01*
X321997D01*
X322997Y354000D01*
X324996Y358998D02*
Y354000D01*
X325996Y353000D01*
X327995D01*
X328995Y354000D01*
Y358998D01*
X426499Y340998D02*
X425499Y341998D01*
X423500D01*
X422500Y340998D01*
Y339999D01*
X423500Y338999D01*
X425499D01*
X426499Y337999D01*
Y337000D01*
X425499Y336000D01*
X423500D01*
X422500Y337000D01*
X428498Y341998D02*
Y336000D01*
X430497Y337999D01*
X432497Y336000D01*
Y341998D01*
X434496D02*
X436495D01*
X435496D01*
Y336000D01*
X434496D01*
X436495D01*
X439495Y341998D02*
X443493D01*
X441494D01*
Y336000D01*
X449491Y340998D02*
X448492Y341998D01*
X446492D01*
X445493Y340998D01*
Y337000D01*
X446492Y336000D01*
X448492D01*
X449491Y337000D01*
X451491Y341998D02*
Y336000D01*
Y338999D01*
X455489D01*
Y341998D01*
Y336000D01*
X322002Y187499D02*
X321002Y186499D01*
Y184500D01*
X322002Y183500D01*
X326000D01*
X327000Y184500D01*
Y186499D01*
X326000Y187499D01*
X327000Y189498D02*
X323001D01*
X321002Y191497D01*
X323001Y193497D01*
X327000D01*
X324001D01*
Y189498D01*
X327000Y195496D02*
X321002D01*
X327000Y199495D01*
X321002D01*
X211000Y354000D02*
Y359998D01*
X213999D01*
X214999Y358998D01*
Y356999D01*
X213999Y355999D01*
X211000D01*
X219997Y359998D02*
X217998D01*
X216998Y358998D01*
Y355000D01*
X217998Y354000D01*
X219997D01*
X220997Y355000D01*
Y358998D01*
X219997Y359998D01*
X222996D02*
Y354000D01*
X224995Y355999D01*
X226995Y354000D01*
Y359998D01*
X232993D02*
X228994D01*
Y354000D01*
X232993D01*
X228994Y356999D02*
X230994D01*
X234992Y354000D02*
Y359998D01*
X237991D01*
X238991Y358998D01*
Y356999D01*
X237991Y355999D01*
X234992D01*
X236992D02*
X238991Y354000D01*
X221000Y269000D02*
Y274998D01*
X223999D01*
X224999Y273998D01*
Y271999D01*
X223999Y270999D01*
X221000D01*
X222999D02*
X224999Y269000D01*
X230997Y274998D02*
X226998D01*
Y269000D01*
X230997D01*
X226998Y271999D02*
X228997D01*
X236995Y273998D02*
X235995Y274998D01*
X233996D01*
X232996Y273998D01*
Y272999D01*
X233996Y271999D01*
X235995D01*
X236995Y270999D01*
Y270000D01*
X235995Y269000D01*
X233996D01*
X232996Y270000D01*
X242993Y274998D02*
X238994D01*
Y269000D01*
X242993D01*
X238994Y271999D02*
X240993D01*
X244992Y274998D02*
X248991D01*
X246992D01*
Y269000D01*
X304502Y445499D02*
Y440501D01*
X305501Y439501D01*
X307501D01*
X308500Y440501D01*
Y445499D01*
X314498D02*
X310500D01*
Y442500D01*
X312499Y443500D01*
X313499D01*
X314498Y442500D01*
Y440501D01*
X313499Y439501D01*
X311499D01*
X310500Y440501D01*
X272002Y408999D02*
Y404001D01*
X273001Y403001D01*
X275001D01*
X276000Y404001D01*
Y408999D01*
X280999Y403001D02*
Y408999D01*
X278000Y406000D01*
X281998D01*
X264002Y238499D02*
Y233501D01*
X265001Y232501D01*
X267001D01*
X268000Y233501D01*
Y238499D01*
X273998Y232501D02*
X270000D01*
X273998Y236500D01*
Y237499D01*
X272999Y238499D01*
X270999D01*
X270000Y237499D01*
X363001Y235999D02*
Y231001D01*
X364001Y230001D01*
X366000D01*
X367000Y231001D01*
Y235999D01*
X368999Y230001D02*
X370999D01*
X369999D01*
Y235999D01*
X368999Y234999D01*
X180502Y357499D02*
Y351501D01*
X183501D01*
X184500Y352501D01*
Y356499D01*
X183501Y357499D01*
X180502D01*
X189499Y351501D02*
Y357499D01*
X186500Y354500D01*
X190498D01*
X246300Y431498D02*
Y425500D01*
X249299D01*
X250299Y426500D01*
Y430498D01*
X249299Y431498D01*
X246300D01*
X252298Y430498D02*
X253298Y431498D01*
X255297D01*
X256297Y430498D01*
Y429499D01*
X255297Y428499D01*
X254297D01*
X255297D01*
X256297Y427499D01*
Y426500D01*
X255297Y425500D01*
X253298D01*
X252298Y426500D01*
D16*
X186000Y178909D02*
Y188910D01*
X266000Y188909D02*
X266000Y178909D01*
X186000Y178909D02*
X266000Y178909D01*
X236000Y178909D02*
Y188909D01*
X186000Y188910D02*
X266000Y188909D01*
X226000Y178909D02*
Y188909D01*
Y178909D02*
Y188909D01*
X216000Y178909D02*
Y188909D01*
Y178909D02*
Y188909D01*
X206000Y178909D02*
Y188909D01*
Y178909D02*
Y188909D01*
X196000Y178909D02*
Y188909D01*
Y178909D02*
Y188909D01*
X186000Y178909D02*
Y188909D01*
Y178909D02*
Y188909D01*
X246000Y178909D02*
Y188909D01*
X256000Y178910D02*
Y188909D01*
X180500Y247500D02*
X190500D01*
X180500Y257500D02*
X190500D01*
X180600Y277500D02*
X190600D01*
X180500D02*
X190500D01*
X180500D02*
X190500D01*
X190500Y237500D02*
X190500Y277500D01*
X180500Y267500D02*
X190500D01*
X180500Y277500D02*
X180500Y237500D01*
X190500Y237500D01*
X424000Y434500D02*
Y444500D01*
X414000Y434500D02*
Y444500D01*
X354000Y434500D02*
Y444500D01*
Y434500D02*
Y444500D01*
X364000Y434500D02*
Y444500D01*
Y434500D02*
Y444500D01*
X374000Y434500D02*
Y444500D01*
Y434500D02*
Y444500D01*
X384000Y434500D02*
Y444500D01*
Y434500D02*
Y444500D01*
X394000Y434500D02*
Y444500D01*
Y434500D02*
Y444500D01*
X354000Y444500D02*
X434000Y444500D01*
X404000Y434500D02*
Y444500D01*
X354000Y434500D02*
X434000Y434500D01*
X434000Y444500D02*
X434000Y434500D01*
X354000Y434500D02*
Y444500D01*
X190500Y215000D02*
Y235000D01*
X180500Y215000D02*
Y235000D01*
Y215000D02*
X190500Y215000D01*
X180500Y235000D02*
X190500D01*
X180500Y225000D02*
X190500D01*
X476000Y434500D02*
Y444500D01*
X466000Y434500D02*
Y444500D01*
X446000Y434600D02*
Y444600D01*
Y434500D02*
Y444500D01*
Y434500D02*
Y444500D01*
Y444500D02*
X486000Y444500D01*
X456000Y434500D02*
Y444500D01*
X446000Y434500D02*
X486000Y434500D01*
X486000Y444500D02*
X486000Y434500D01*
X238000Y290500D02*
X238000Y280500D01*
X238000D02*
X268000Y280500D01*
X258000Y280500D02*
Y290500D01*
X248000Y280500D02*
Y290500D01*
X268000Y280500D02*
Y290500D01*
Y280500D02*
Y290500D01*
Y290500D02*
Y300500D01*
Y290500D02*
Y300500D01*
X248000Y290500D02*
Y300500D01*
X258000Y290500D02*
Y300500D01*
X238000Y300500D02*
X268000Y300500D01*
X238000Y300500D02*
X238000Y290500D01*
X278500Y178909D02*
Y188909D01*
X288500Y178909D02*
Y188909D01*
X308500Y178810D02*
Y188810D01*
Y178910D02*
Y188909D01*
Y178909D02*
Y188909D01*
X268500Y178910D02*
X308500Y178909D01*
X298500Y178909D02*
Y188909D01*
X268500Y188909D02*
X308500Y188909D01*
X268500Y188909D02*
X268500Y178910D01*
X485303Y267000D02*
X495303D01*
X485303Y277000D02*
X495303D01*
X485303Y337000D02*
X495303D01*
X485303D02*
X495303D01*
X485303Y327000D02*
X495303D01*
X485303D02*
X495303D01*
X485303Y317000D02*
X495303D01*
X485303D02*
X495303D01*
X485303Y307000D02*
X495303D01*
X485303D02*
X495303D01*
X485303Y297000D02*
X495303D01*
X485303D02*
X495303D01*
X495303Y257000D02*
X495303Y337000D01*
X485303Y287000D02*
X495303D01*
X485303Y337000D02*
X485303Y257000D01*
X495303Y257000D01*
X485303Y337000D02*
X495303D01*
X485303Y194000D02*
X495303D01*
X485303Y204000D02*
X495303D01*
X485303Y254000D02*
X495303D01*
X485303D02*
X495303D01*
X485303Y244000D02*
X495303D01*
X485303D02*
X495303D01*
X485303Y234000D02*
X495303D01*
X485303D02*
X495303D01*
X485303Y224000D02*
X495303D01*
X485303D02*
X495303D01*
X495303Y184000D02*
X495303Y254000D01*
X485303Y214000D02*
X495303D01*
X485303Y254000D02*
X485303Y184000D01*
X495303Y184000D01*
X485303Y254000D02*
X495303D01*
X452500Y178910D02*
Y188909D01*
X442500Y178909D02*
Y188909D01*
X382500Y178909D02*
Y188909D01*
Y178909D02*
Y188909D01*
X392500Y178909D02*
Y188909D01*
Y178909D02*
Y188909D01*
X402500Y178909D02*
Y188909D01*
Y178909D02*
Y188909D01*
X412500Y178909D02*
Y188909D01*
Y178909D02*
Y188909D01*
X422500Y178909D02*
Y188909D01*
Y178909D02*
Y188909D01*
X382500Y188910D02*
X462500Y188909D01*
X432500Y178909D02*
Y188909D01*
X382500Y178909D02*
X462500Y178909D01*
X462500Y188909D02*
X462500Y178909D01*
X382500Y178909D02*
Y188910D01*
X485303Y410000D02*
X495303D01*
X485303Y400000D02*
X495303D01*
X485303Y340000D02*
X495303D01*
X485303D02*
X495303D01*
X485303Y350000D02*
X495303D01*
X485303D02*
X495303D01*
X485303Y360000D02*
X495303D01*
X485303D02*
X495303D01*
X485303Y370000D02*
X495303D01*
X485303D02*
X495303D01*
X485303Y380000D02*
X495303D01*
X485303D02*
X495303D01*
X485303Y340000D02*
X485303Y420000D01*
X485303Y390000D02*
X495303D01*
X495303Y420000D02*
X495303Y340000D01*
X485303Y420000D02*
X495303Y420000D01*
X485303Y340000D02*
X495303D01*
D17*
X280685Y227965D02*
X281965D01*
Y226685D02*
Y227965D01*
X265035D02*
X266315D01*
X265035Y226685D02*
Y227965D01*
Y211035D02*
Y212315D01*
Y211035D02*
X266315D01*
X280685D02*
X281965D01*
Y212315D01*
X355224Y384075D02*
Y407925D01*
X395776D01*
Y384075D02*
Y407925D01*
X355224Y384075D02*
X395776D01*
X216910Y344531D02*
Y348468D01*
Y344531D02*
X218091D01*
X216910Y348468D02*
X218091D01*
X226232Y264311D02*
X243862D01*
X246311Y248063D02*
Y256937D01*
X225138Y240689D02*
X243862D01*
X222689Y248063D02*
Y256831D01*
X254695Y391900D02*
X280305D01*
X254695Y378100D02*
Y391900D01*
Y378100D02*
X280305D01*
Y391900D01*
X318008Y417626D02*
Y419201D01*
X343992Y417626D02*
Y419201D01*
X318008Y417626D02*
X343992D01*
X204823Y361055D02*
X205748D01*
X194252D02*
X195177D01*
X194252Y342945D02*
Y361055D01*
X204823Y342945D02*
X205748D01*
X194252D02*
X195177D01*
X205748D02*
Y361055D01*
X223441Y310669D02*
X228559D01*
X223441Y319331D02*
X228559D01*
X197433Y334653D02*
X203260D01*
X181882D02*
X187394D01*
X181882Y296346D02*
Y334653D01*
X197433Y296346D02*
X203260D01*
X181882D02*
X187394D01*
X182457Y444216D02*
X239543D01*
X182457Y408783D02*
Y444216D01*
X239543Y435555D02*
Y444216D01*
Y408783D02*
Y417445D01*
X182457Y408783D02*
X215134D01*
X233244D02*
X239543D01*
X330000Y202520D02*
X370000D01*
Y180000D02*
Y202520D01*
X330000Y180000D02*
X370000D01*
X330000D02*
Y202520D01*
X439138Y305189D02*
X456768D01*
X436689Y312563D02*
Y321437D01*
X439138Y328811D02*
X457862D01*
X460311Y312669D02*
Y321437D01*
X270776Y344032D02*
X271957D01*
X270776Y347969D02*
X271957D01*
Y344032D02*
Y347969D01*
X387850Y316220D02*
Y318779D01*
X394150Y316220D02*
Y318779D01*
X386807Y282118D02*
X400193D01*
X386807Y296882D02*
X400193D01*
X212055Y371646D02*
X218945D01*
X212055Y377354D02*
X218945D01*
X267929Y410252D02*
Y411177D01*
Y420823D02*
Y421748D01*
X249819D02*
X267929D01*
X249819Y410252D02*
Y411177D01*
Y420823D02*
Y421748D01*
Y410252D02*
X267929D01*
D18*
X283471Y422035D02*
Y424368D01*
X282305Y423202D02*
X284637D01*
X309965Y390471D02*
X307632D01*
X308798Y389305D02*
Y391637D01*
D19*
X261019Y183909D02*
D03*
X242981Y285500D02*
D03*
D20*
X185500Y242481D02*
D03*
Y219981D02*
D03*
X490303Y261981D02*
D03*
Y188981D02*
D03*
Y415019D02*
D03*
D21*
X429019Y439500D02*
D03*
D22*
X286500Y434535D02*
D03*
D23*
X297465Y393500D02*
D03*
D24*
X481019Y439500D02*
D03*
X242981Y295500D02*
D03*
D25*
X273481Y183909D02*
D03*
X457519D02*
D03*
M02*
