G04*
G04 #@! TF.GenerationSoftware,Altium Limited,Altium Designer,23.6.0 (18)*
G04*
G04 Layer_Color=8421504*
%FSLAX25Y25*%
%MOIN*%
G70*
G04*
G04 #@! TF.SameCoordinates,CC12AEB3-2111-4EF4-9384-BB861815B030*
G04*
G04*
G04 #@! TF.FilePolarity,Positive*
G04*
G01*
G75*
%ADD26R,0.03937X0.05906*%
%ADD27R,0.01200X0.04700*%
%ADD28R,0.04700X0.01200*%
%ADD29R,0.05906X0.03937*%
%ADD30R,0.02362X0.06102*%
%ADD31R,0.01378X0.03150*%
%ADD32R,0.03347X0.01378*%
%ADD33R,0.10236X0.10630*%
%ADD34R,0.02134X0.07378*%
G04:AMPARAMS|DCode=35|XSize=73.78mil|YSize=21.34mil|CornerRadius=10.67mil|HoleSize=0mil|Usage=FLASHONLY|Rotation=90.000|XOffset=0mil|YOffset=0mil|HoleType=Round|Shape=RoundedRectangle|*
%AMROUNDEDRECTD35*
21,1,0.07378,0.00000,0,0,90.0*
21,1,0.05244,0.02134,0,0,90.0*
1,1,0.02134,0.00000,0.02622*
1,1,0.02134,0.00000,-0.02622*
1,1,0.02134,0.00000,-0.02622*
1,1,0.02134,0.00000,0.02622*
%
%ADD35ROUNDEDRECTD35*%
%ADD36R,0.04331X0.04724*%
%ADD37R,0.02756X0.11811*%
%ADD38O,0.02756X0.11811*%
G04:AMPARAMS|DCode=39|XSize=39.54mil|YSize=125.28mil|CornerRadius=17.2mil|HoleSize=0mil|Usage=FLASHONLY|Rotation=270.000|XOffset=0mil|YOffset=0mil|HoleType=Round|Shape=RoundedRectangle|*
%AMROUNDEDRECTD39*
21,1,0.03954,0.09088,0,0,270.0*
21,1,0.00514,0.12528,0,0,270.0*
1,1,0.03440,-0.04544,-0.00257*
1,1,0.03440,-0.04544,0.00257*
1,1,0.03440,0.04544,0.00257*
1,1,0.03440,0.04544,-0.00257*
%
%ADD39ROUNDEDRECTD39*%
G04:AMPARAMS|DCode=40|XSize=39.54mil|YSize=34.34mil|CornerRadius=17.17mil|HoleSize=0mil|Usage=FLASHONLY|Rotation=270.000|XOffset=0mil|YOffset=0mil|HoleType=Round|Shape=RoundedRectangle|*
%AMROUNDEDRECTD40*
21,1,0.03954,0.00000,0,0,270.0*
21,1,0.00520,0.03434,0,0,270.0*
1,1,0.03434,0.00000,-0.00260*
1,1,0.03434,0.00000,0.00260*
1,1,0.03434,0.00000,0.00260*
1,1,0.03434,0.00000,-0.00260*
%
%ADD40ROUNDEDRECTD40*%
%ADD41R,0.03434X0.03954*%
%ADD42R,0.11811X0.02756*%
%ADD43O,0.11811X0.02756*%
%ADD44R,0.03740X0.08268*%
%ADD45R,0.21654X0.25591*%
%ADD46R,0.06693X0.09843*%
%ADD47R,0.03898X0.01181*%
%ADD48R,0.04528X0.02362*%
%ADD49R,0.04528X0.01181*%
%ADD50R,0.07480X0.04331*%
%ADD51R,0.05118X0.04134*%
%ADD52R,0.02559X0.02756*%
%ADD53R,0.09843X0.06693*%
D26*
X368740Y346500D02*
D03*
X361260D02*
D03*
X368740Y356000D02*
D03*
X361260D02*
D03*
X230260Y346500D02*
D03*
X237740D02*
D03*
X346260Y208500D02*
D03*
X353740D02*
D03*
X242260Y228500D02*
D03*
X249740D02*
D03*
X242260Y218500D02*
D03*
X249740D02*
D03*
X251760Y206500D02*
D03*
X259240D02*
D03*
X301740Y347000D02*
D03*
X294260D02*
D03*
X302000Y357500D02*
D03*
X294520D02*
D03*
X420240Y293000D02*
D03*
X412760D02*
D03*
X373500Y302000D02*
D03*
X380980D02*
D03*
X402520Y312000D02*
D03*
X410000D02*
D03*
X223260Y334000D02*
D03*
X230740D02*
D03*
X266240Y363500D02*
D03*
X258760D02*
D03*
X299260Y376000D02*
D03*
X306740D02*
D03*
X258740Y346500D02*
D03*
X251260D02*
D03*
X402500Y323000D02*
D03*
X409980D02*
D03*
X381240Y322000D02*
D03*
X373760D02*
D03*
X308740Y245500D02*
D03*
X301260D02*
D03*
X285760D02*
D03*
X293240D02*
D03*
D27*
X346264Y300862D02*
D03*
X344295D02*
D03*
X342327D02*
D03*
X340358D02*
D03*
X338390D02*
D03*
X336421D02*
D03*
X334453D02*
D03*
X332484D02*
D03*
X330516D02*
D03*
X328547D02*
D03*
X326579D02*
D03*
X324610D02*
D03*
X322642D02*
D03*
X320673D02*
D03*
X318705D02*
D03*
X316736D02*
D03*
Y346138D02*
D03*
X318705D02*
D03*
X320673D02*
D03*
X322642D02*
D03*
X324610D02*
D03*
X326579D02*
D03*
X328547D02*
D03*
X330516D02*
D03*
X332484D02*
D03*
X334453D02*
D03*
X336421D02*
D03*
X338390D02*
D03*
X340358D02*
D03*
X342327D02*
D03*
X344295D02*
D03*
X346264D02*
D03*
D28*
X308862Y308736D02*
D03*
Y310705D02*
D03*
Y312673D02*
D03*
Y314642D02*
D03*
Y316610D02*
D03*
Y318579D02*
D03*
Y320547D02*
D03*
Y322516D02*
D03*
Y324484D02*
D03*
Y326453D02*
D03*
Y328421D02*
D03*
Y330390D02*
D03*
Y332358D02*
D03*
Y334327D02*
D03*
Y336295D02*
D03*
Y338264D02*
D03*
X354138D02*
D03*
Y336295D02*
D03*
Y334327D02*
D03*
Y332358D02*
D03*
Y330390D02*
D03*
Y328421D02*
D03*
Y326453D02*
D03*
Y324484D02*
D03*
Y322516D02*
D03*
Y320547D02*
D03*
Y318579D02*
D03*
Y316610D02*
D03*
Y314642D02*
D03*
Y312673D02*
D03*
Y310705D02*
D03*
Y308736D02*
D03*
D29*
X223500Y287260D02*
D03*
Y294740D02*
D03*
X306000Y415260D02*
D03*
Y422740D02*
D03*
X200500Y374520D02*
D03*
Y382000D02*
D03*
X334000Y280260D02*
D03*
Y287740D02*
D03*
X301500Y270240D02*
D03*
Y262760D02*
D03*
X292500Y270240D02*
D03*
Y262760D02*
D03*
X420500Y313260D02*
D03*
Y320740D02*
D03*
X268900Y261315D02*
D03*
Y253835D02*
D03*
X258900Y261315D02*
D03*
Y253835D02*
D03*
X353500Y296500D02*
D03*
Y289020D02*
D03*
X363500Y296740D02*
D03*
Y289260D02*
D03*
X300000Y298520D02*
D03*
Y306000D02*
D03*
X232500Y374260D02*
D03*
Y381740D02*
D03*
X348500Y381260D02*
D03*
Y388740D02*
D03*
X323000Y236740D02*
D03*
Y229260D02*
D03*
X333000Y236740D02*
D03*
Y229260D02*
D03*
X289000Y206000D02*
D03*
Y213480D02*
D03*
X376000Y284500D02*
D03*
Y277020D02*
D03*
D30*
X357500Y222740D02*
D03*
X342500D02*
D03*
Y244000D02*
D03*
X347500D02*
D03*
X352500D02*
D03*
X357500D02*
D03*
X352500Y222740D02*
D03*
X347500D02*
D03*
D31*
X278421Y227374D02*
D03*
X276453D02*
D03*
X274484D02*
D03*
X272516D02*
D03*
X270547D02*
D03*
X268579D02*
D03*
X278421Y211626D02*
D03*
X276453D02*
D03*
X274484D02*
D03*
X272516D02*
D03*
X270547D02*
D03*
X268579D02*
D03*
D32*
X265724Y224421D02*
D03*
Y222453D02*
D03*
Y220484D02*
D03*
Y218516D02*
D03*
Y216547D02*
D03*
Y214579D02*
D03*
X281276Y224421D02*
D03*
Y222453D02*
D03*
Y220484D02*
D03*
Y218516D02*
D03*
Y216547D02*
D03*
Y214579D02*
D03*
D33*
X273500Y219500D02*
D03*
D34*
X358000Y378417D02*
D03*
D35*
X363000D02*
D03*
X368000D02*
D03*
X373000D02*
D03*
X378000D02*
D03*
X383000D02*
D03*
X388000D02*
D03*
X393000D02*
D03*
Y413583D02*
D03*
X388000D02*
D03*
X383000D02*
D03*
X378000D02*
D03*
X373000D02*
D03*
X368000D02*
D03*
X363000D02*
D03*
X358000D02*
D03*
D36*
X221634Y346500D02*
D03*
X213366D02*
D03*
X275500Y346000D02*
D03*
X267232D02*
D03*
D37*
X286500Y421500D02*
D03*
D38*
Y439500D02*
D03*
D39*
X267500Y372028D02*
D03*
D40*
X258484Y397972D02*
D03*
X267500D02*
D03*
D41*
X276516D02*
D03*
D42*
X310500Y393500D02*
D03*
D43*
X292500D02*
D03*
D44*
X322024Y408768D02*
D03*
X339976D02*
D03*
D45*
X331000Y433571D02*
D03*
D46*
X200000Y344126D02*
D03*
Y359874D02*
D03*
D47*
X229169Y316968D02*
D03*
Y315000D02*
D03*
Y313032D02*
D03*
X222831D02*
D03*
Y315000D02*
D03*
Y316968D02*
D03*
D48*
X211134Y302902D02*
D03*
Y328098D02*
D03*
Y306051D02*
D03*
Y324949D02*
D03*
D49*
Y308610D02*
D03*
Y310579D02*
D03*
Y312547D02*
D03*
Y314516D02*
D03*
Y316484D02*
D03*
Y318453D02*
D03*
Y320421D02*
D03*
Y322390D02*
D03*
D50*
X391000Y312579D02*
D03*
Y322421D02*
D03*
D51*
X398028Y286055D02*
D03*
X388972D02*
D03*
Y292945D02*
D03*
X398028D02*
D03*
D52*
X218158Y374500D02*
D03*
X212842D02*
D03*
D53*
X251000Y416000D02*
D03*
X266748D02*
D03*
M02*
