G04*
G04 #@! TF.GenerationSoftware,Altium Limited,Altium Designer,23.6.0 (18)*
G04*
G04 Layer_Color=8388736*
%FSLAX25Y25*%
%MOIN*%
G70*
G04*
G04 #@! TF.SameCoordinates,CC12AEB3-2111-4EF4-9384-BB861815B030*
G04*
G04*
G04 #@! TF.FilePolarity,Negative*
G04*
G01*
G75*
%ADD27R,0.01200X0.04700*%
%ADD28R,0.04700X0.01200*%
%ADD34R,0.02134X0.07378*%
G04:AMPARAMS|DCode=35|XSize=73.78mil|YSize=21.34mil|CornerRadius=10.67mil|HoleSize=0mil|Usage=FLASHONLY|Rotation=90.000|XOffset=0mil|YOffset=0mil|HoleType=Round|Shape=RoundedRectangle|*
%AMROUNDEDRECTD35*
21,1,0.07378,0.00000,0,0,90.0*
21,1,0.05244,0.02134,0,0,90.0*
1,1,0.02134,0.00000,0.02622*
1,1,0.02134,0.00000,-0.02622*
1,1,0.02134,0.00000,-0.02622*
1,1,0.02134,0.00000,0.02622*
%
%ADD35ROUNDEDRECTD35*%
G04:AMPARAMS|DCode=39|XSize=39.54mil|YSize=125.28mil|CornerRadius=17.2mil|HoleSize=0mil|Usage=FLASHONLY|Rotation=270.000|XOffset=0mil|YOffset=0mil|HoleType=Round|Shape=RoundedRectangle|*
%AMROUNDEDRECTD39*
21,1,0.03954,0.09088,0,0,270.0*
21,1,0.00514,0.12528,0,0,270.0*
1,1,0.03440,-0.04544,-0.00257*
1,1,0.03440,-0.04544,0.00257*
1,1,0.03440,0.04544,0.00257*
1,1,0.03440,0.04544,-0.00257*
%
%ADD39ROUNDEDRECTD39*%
G04:AMPARAMS|DCode=40|XSize=39.54mil|YSize=34.34mil|CornerRadius=17.17mil|HoleSize=0mil|Usage=FLASHONLY|Rotation=270.000|XOffset=0mil|YOffset=0mil|HoleType=Round|Shape=RoundedRectangle|*
%AMROUNDEDRECTD40*
21,1,0.03954,0.00000,0,0,270.0*
21,1,0.00520,0.03434,0,0,270.0*
1,1,0.03434,0.00000,-0.00260*
1,1,0.03434,0.00000,0.00260*
1,1,0.03434,0.00000,0.00260*
1,1,0.03434,0.00000,-0.00260*
%
%ADD40ROUNDEDRECTD40*%
%ADD41R,0.03434X0.03954*%
%ADD46R,0.06693X0.09843*%
%ADD47R,0.03898X0.01181*%
%ADD48R,0.04528X0.02362*%
%ADD49R,0.04528X0.01181*%
%ADD50R,0.07480X0.04331*%
%ADD51R,0.05118X0.04134*%
%ADD52R,0.02559X0.02756*%
%ADD53R,0.09843X0.06693*%
%ADD54R,0.04737X0.06706*%
%ADD55R,0.06706X0.04737*%
%ADD56R,0.03162X0.06902*%
%ADD57R,0.02178X0.03950*%
%ADD58R,0.04147X0.02178*%
%ADD59R,0.11036X0.11430*%
%ADD60R,0.05131X0.05524*%
%ADD61R,0.03556X0.12611*%
%ADD62O,0.03556X0.12611*%
%ADD63R,0.12611X0.03556*%
%ADD64O,0.12611X0.03556*%
%ADD65R,0.04540X0.09068*%
%ADD66R,0.22453X0.26391*%
%ADD67C,0.07800*%
%ADD68R,0.07800X0.07800*%
%ADD69C,0.13398*%
%ADD70R,0.07800X0.07800*%
%ADD71R,0.06706X0.06706*%
%ADD72C,0.06706*%
%ADD73C,0.02559*%
G04:AMPARAMS|DCode=74|XSize=39.37mil|YSize=82.68mil|CornerRadius=19.68mil|HoleSize=0mil|Usage=FLASHONLY|Rotation=270.000|XOffset=0mil|YOffset=0mil|HoleType=Round|Shape=RoundedRectangle|*
%AMROUNDEDRECTD74*
21,1,0.03937,0.04331,0,0,270.0*
21,1,0.00000,0.08268,0,0,270.0*
1,1,0.03937,-0.02165,0.00000*
1,1,0.03937,-0.02165,0.00000*
1,1,0.03937,0.02165,0.00000*
1,1,0.03937,0.02165,0.00000*
%
%ADD74ROUNDEDRECTD74*%
G04:AMPARAMS|DCode=75|XSize=39.37mil|YSize=70.87mil|CornerRadius=19.68mil|HoleSize=0mil|Usage=FLASHONLY|Rotation=270.000|XOffset=0mil|YOffset=0mil|HoleType=Round|Shape=RoundedRectangle|*
%AMROUNDEDRECTD75*
21,1,0.03937,0.03150,0,0,270.0*
21,1,0.00000,0.07087,0,0,270.0*
1,1,0.03937,-0.01575,0.00000*
1,1,0.03937,-0.01575,0.00000*
1,1,0.03937,0.01575,0.00000*
1,1,0.03937,0.01575,0.00000*
%
%ADD75ROUNDEDRECTD75*%
%ADD76R,0.16548X0.07887*%
%ADD77R,0.07887X0.16548*%
%ADD78C,0.07887*%
%ADD79R,0.07887X0.07887*%
%ADD80C,0.02800*%
%ADD81C,0.04800*%
%ADD82C,0.02769*%
D27*
X346264Y300862D02*
D03*
X344295D02*
D03*
X342327D02*
D03*
X340358D02*
D03*
X338390D02*
D03*
X336421D02*
D03*
X334453D02*
D03*
X332484D02*
D03*
X330516D02*
D03*
X328547D02*
D03*
X326579D02*
D03*
X324610D02*
D03*
X322642D02*
D03*
X320673D02*
D03*
X318705D02*
D03*
X316736D02*
D03*
Y346138D02*
D03*
X318705D02*
D03*
X320673D02*
D03*
X322642D02*
D03*
X324610D02*
D03*
X326579D02*
D03*
X328547D02*
D03*
X330516D02*
D03*
X332484D02*
D03*
X334453D02*
D03*
X336421D02*
D03*
X338390D02*
D03*
X340358D02*
D03*
X342327D02*
D03*
X344295D02*
D03*
X346264D02*
D03*
D28*
X308862Y308736D02*
D03*
Y310705D02*
D03*
Y312673D02*
D03*
Y314642D02*
D03*
Y316610D02*
D03*
Y318579D02*
D03*
Y320547D02*
D03*
Y322516D02*
D03*
Y324484D02*
D03*
Y326453D02*
D03*
Y328421D02*
D03*
Y330390D02*
D03*
Y332358D02*
D03*
Y334327D02*
D03*
Y336295D02*
D03*
Y338264D02*
D03*
X354138D02*
D03*
Y336295D02*
D03*
Y334327D02*
D03*
Y332358D02*
D03*
Y330390D02*
D03*
Y328421D02*
D03*
Y326453D02*
D03*
Y324484D02*
D03*
Y322516D02*
D03*
Y320547D02*
D03*
Y318579D02*
D03*
Y316610D02*
D03*
Y314642D02*
D03*
Y312673D02*
D03*
Y310705D02*
D03*
Y308736D02*
D03*
D34*
X358000Y378417D02*
D03*
D35*
X363000D02*
D03*
X368000D02*
D03*
X373000D02*
D03*
X378000D02*
D03*
X383000D02*
D03*
X388000D02*
D03*
X393000D02*
D03*
Y413583D02*
D03*
X388000D02*
D03*
X383000D02*
D03*
X378000D02*
D03*
X373000D02*
D03*
X368000D02*
D03*
X363000D02*
D03*
X358000D02*
D03*
D39*
X267500Y372028D02*
D03*
D40*
X258484Y397972D02*
D03*
X267500D02*
D03*
D41*
X276516D02*
D03*
D46*
X200000Y344126D02*
D03*
Y359874D02*
D03*
D47*
X229169Y316968D02*
D03*
Y315000D02*
D03*
Y313032D02*
D03*
X222831D02*
D03*
Y315000D02*
D03*
Y316968D02*
D03*
D48*
X211134Y302902D02*
D03*
Y328098D02*
D03*
Y306051D02*
D03*
Y324949D02*
D03*
D49*
Y308610D02*
D03*
Y310579D02*
D03*
Y312547D02*
D03*
Y314516D02*
D03*
Y316484D02*
D03*
Y318453D02*
D03*
Y320421D02*
D03*
Y322390D02*
D03*
D50*
X391000Y312579D02*
D03*
Y322421D02*
D03*
D51*
X398028Y286055D02*
D03*
X388972D02*
D03*
Y292945D02*
D03*
X398028D02*
D03*
D52*
X218158Y374500D02*
D03*
X212842D02*
D03*
D53*
X251000Y416000D02*
D03*
X266748D02*
D03*
D54*
X368740Y346500D02*
D03*
X361260D02*
D03*
X368740Y356000D02*
D03*
X361260D02*
D03*
X230260Y346500D02*
D03*
X237740D02*
D03*
X346260Y208500D02*
D03*
X353740D02*
D03*
X242260Y228500D02*
D03*
X249740D02*
D03*
X242260Y218500D02*
D03*
X249740D02*
D03*
X251760Y206500D02*
D03*
X259240D02*
D03*
X301740Y347000D02*
D03*
X294260D02*
D03*
X302000Y357500D02*
D03*
X294520D02*
D03*
X420240Y293000D02*
D03*
X412760D02*
D03*
X373500Y302000D02*
D03*
X380980D02*
D03*
X402520Y312000D02*
D03*
X410000D02*
D03*
X223260Y334000D02*
D03*
X230740D02*
D03*
X266240Y363500D02*
D03*
X258760D02*
D03*
X299260Y376000D02*
D03*
X306740D02*
D03*
X258740Y346500D02*
D03*
X251260D02*
D03*
X402500Y323000D02*
D03*
X409980D02*
D03*
X381240Y322000D02*
D03*
X373760D02*
D03*
X308740Y245500D02*
D03*
X301260D02*
D03*
X285760D02*
D03*
X293240D02*
D03*
D55*
X223500Y287260D02*
D03*
Y294740D02*
D03*
X306000Y415260D02*
D03*
Y422740D02*
D03*
X200500Y374520D02*
D03*
Y382000D02*
D03*
X334000Y280260D02*
D03*
Y287740D02*
D03*
X301500Y270240D02*
D03*
Y262760D02*
D03*
X292500Y270240D02*
D03*
Y262760D02*
D03*
X420500Y313260D02*
D03*
Y320740D02*
D03*
X268900Y261315D02*
D03*
Y253835D02*
D03*
X258900Y261315D02*
D03*
Y253835D02*
D03*
X353500Y296500D02*
D03*
Y289020D02*
D03*
X363500Y296740D02*
D03*
Y289260D02*
D03*
X300000Y298520D02*
D03*
Y306000D02*
D03*
X232500Y374260D02*
D03*
Y381740D02*
D03*
X348500Y381260D02*
D03*
Y388740D02*
D03*
X323000Y236740D02*
D03*
Y229260D02*
D03*
X333000Y236740D02*
D03*
Y229260D02*
D03*
X289000Y206000D02*
D03*
Y213480D02*
D03*
X376000Y284500D02*
D03*
Y277020D02*
D03*
D56*
X357500Y222740D02*
D03*
X342500D02*
D03*
Y244000D02*
D03*
X347500D02*
D03*
X352500D02*
D03*
X357500D02*
D03*
X352500Y222740D02*
D03*
X347500D02*
D03*
D57*
X278421Y227374D02*
D03*
X276453D02*
D03*
X274484D02*
D03*
X272516D02*
D03*
X270547D02*
D03*
X268579D02*
D03*
X278421Y211626D02*
D03*
X276453D02*
D03*
X274484D02*
D03*
X272516D02*
D03*
X270547D02*
D03*
X268579D02*
D03*
D58*
X265724Y224421D02*
D03*
Y222453D02*
D03*
Y220484D02*
D03*
Y218516D02*
D03*
Y216547D02*
D03*
Y214579D02*
D03*
X281276Y224421D02*
D03*
Y222453D02*
D03*
Y220484D02*
D03*
Y218516D02*
D03*
Y216547D02*
D03*
Y214579D02*
D03*
D59*
X273500Y219500D02*
D03*
D60*
X221634Y346500D02*
D03*
X213366D02*
D03*
X275500Y346000D02*
D03*
X267232D02*
D03*
D61*
X286500Y421500D02*
D03*
D62*
Y439500D02*
D03*
D63*
X310500Y393500D02*
D03*
D64*
X292500D02*
D03*
D65*
X322024Y408768D02*
D03*
X339976D02*
D03*
D66*
X331000Y433571D02*
D03*
D67*
X241000Y183909D02*
D03*
X251000Y183909D02*
D03*
X231000Y183909D02*
D03*
X221000Y183909D02*
D03*
X211000Y183909D02*
D03*
X201000Y183909D02*
D03*
X191000Y183909D02*
D03*
X185500Y272500D02*
D03*
X185500Y252500D02*
D03*
X185500Y262500D02*
D03*
X359000Y439500D02*
D03*
X369000Y439500D02*
D03*
X379000Y439500D02*
D03*
X389000Y439500D02*
D03*
X399000Y439500D02*
D03*
X419000Y439500D02*
D03*
X409000Y439500D02*
D03*
X185500Y230000D02*
D03*
X451000Y439500D02*
D03*
X471000Y439500D02*
D03*
X461000Y439500D02*
D03*
X263000Y285500D02*
D03*
X253000Y285500D02*
D03*
Y295500D02*
D03*
X263000Y295500D02*
D03*
X303500Y183909D02*
D03*
X283500Y183909D02*
D03*
X293500Y183909D02*
D03*
X490303Y332000D02*
D03*
X490303Y322000D02*
D03*
X490303Y312000D02*
D03*
X490303Y302000D02*
D03*
X490303Y292000D02*
D03*
X490303Y272000D02*
D03*
X490303Y282000D02*
D03*
X490303Y249000D02*
D03*
X490303Y239000D02*
D03*
X490303Y229000D02*
D03*
X490303Y219000D02*
D03*
X490303Y199000D02*
D03*
X490303Y209000D02*
D03*
X387500Y183909D02*
D03*
X397500Y183909D02*
D03*
X407500Y183909D02*
D03*
X417500Y183909D02*
D03*
X427500Y183909D02*
D03*
X447500Y183909D02*
D03*
X437500Y183909D02*
D03*
X490303Y345000D02*
D03*
X490303Y355000D02*
D03*
X490303Y365000D02*
D03*
X490303Y375000D02*
D03*
X490303Y385000D02*
D03*
X490303Y405000D02*
D03*
X490303Y395000D02*
D03*
D68*
X261000Y183909D02*
D03*
X429000Y439500D02*
D03*
X481000D02*
D03*
X243000Y285500D02*
D03*
Y295500D02*
D03*
X273500Y183909D02*
D03*
X457500D02*
D03*
D69*
X191248Y203437D02*
D03*
X466839D02*
D03*
X191248Y392413D02*
D03*
X466839D02*
D03*
D70*
X185500Y242500D02*
D03*
Y220000D02*
D03*
X490303Y262000D02*
D03*
Y189000D02*
D03*
Y415000D02*
D03*
D71*
X221705Y261358D02*
D03*
X461295Y308142D02*
D03*
D72*
X247295Y261358D02*
D03*
Y243642D02*
D03*
X221705D02*
D03*
X435705Y308142D02*
D03*
Y325858D02*
D03*
X461295D02*
D03*
X452000Y237000D02*
D03*
X268000Y307000D02*
D03*
X435000Y392500D02*
D03*
X217000Y396500D02*
D03*
X447000Y314000D02*
D03*
D73*
X206902Y304122D02*
D03*
Y326878D02*
D03*
D74*
X208870Y298492D02*
D03*
Y332508D02*
D03*
D75*
X192413Y298492D02*
D03*
Y332508D02*
D03*
D76*
X224189Y407602D02*
D03*
D77*
X213165Y426500D02*
D03*
X236000D02*
D03*
D78*
X335000Y190000D02*
D03*
X345000D02*
D03*
X355000D02*
D03*
D79*
X365000D02*
D03*
D80*
X450000Y328500D02*
D03*
X377500Y327500D02*
D03*
X323000Y292500D02*
D03*
X354500Y351500D02*
D03*
X351885Y355673D02*
D03*
X331000Y339145D02*
D03*
X315000Y333895D02*
D03*
X455500Y330898D02*
D03*
X442764Y353183D02*
D03*
X376000Y334000D02*
D03*
X374000Y341400D02*
D03*
X328000Y360000D02*
D03*
X343000Y369500D02*
D03*
X337304Y246633D02*
D03*
X297697Y235303D02*
D03*
X283699Y341966D02*
D03*
X367500Y307005D02*
D03*
X264500Y268500D02*
D03*
X293500Y309000D02*
D03*
X289000Y306000D02*
D03*
X219000Y315000D02*
D03*
X306500Y304000D02*
D03*
X334000Y338000D02*
D03*
X281500Y254500D02*
D03*
X285500Y258500D02*
D03*
X301000Y280500D02*
D03*
X310814Y294185D02*
D03*
X313500Y296500D02*
D03*
X294500Y279500D02*
D03*
X295000Y286000D02*
D03*
X225500Y366500D02*
D03*
X224000Y326000D02*
D03*
X363500Y307005D02*
D03*
X304000Y341500D02*
D03*
X336465Y305964D02*
D03*
X340328Y305300D02*
D03*
X332203Y306674D02*
D03*
X321000Y290000D02*
D03*
X316500Y326000D02*
D03*
X338000Y323500D02*
D03*
X282500Y320500D02*
D03*
X339000Y284000D02*
D03*
X365000Y341900D02*
D03*
X281500Y192000D02*
D03*
X313500Y282500D02*
D03*
X316218Y311812D02*
D03*
X319597Y308403D02*
D03*
X314500Y316500D02*
D03*
X328500Y316000D02*
D03*
X325500Y313500D02*
D03*
X314412Y329442D02*
D03*
X315000Y323000D02*
D03*
X223000Y213000D02*
D03*
X207000Y254000D02*
D03*
X222000Y204000D02*
D03*
X279513Y302766D02*
D03*
X276000Y309500D02*
D03*
X277500Y320500D02*
D03*
X286000Y327000D02*
D03*
X282000Y195500D02*
D03*
X363500Y324900D02*
D03*
X365500Y333600D02*
D03*
X370000D02*
D03*
X452000Y349500D02*
D03*
X481500Y342000D02*
D03*
X345500Y261500D02*
D03*
X337000Y267500D02*
D03*
X333500Y251500D02*
D03*
X333000Y221000D02*
D03*
X326500Y181000D02*
D03*
X329500Y177000D02*
D03*
X338049Y221819D02*
D03*
X454500Y213000D02*
D03*
X446962Y223746D02*
D03*
X434000Y236000D02*
D03*
X418000Y252000D02*
D03*
X348859Y315543D02*
D03*
X339500Y327500D02*
D03*
X344500Y315500D02*
D03*
X437500Y223500D02*
D03*
X431001Y232735D02*
D03*
X411218Y252792D02*
D03*
X214500Y208000D02*
D03*
X197000Y283500D02*
D03*
X243109Y330905D02*
D03*
X200500Y286000D02*
D03*
X291500Y291000D02*
D03*
X285697Y323303D02*
D03*
X287500Y311000D02*
D03*
X367000Y266000D02*
D03*
X420500Y197500D02*
D03*
X442000Y195000D02*
D03*
X388523Y254672D02*
D03*
X390500Y202000D02*
D03*
X344893Y267060D02*
D03*
X345500Y288000D02*
D03*
X349500Y280000D02*
D03*
X387500Y234500D02*
D03*
X393500Y197500D02*
D03*
X323497Y296022D02*
D03*
X249000Y237500D02*
D03*
X359500Y398500D02*
D03*
X323500Y354500D02*
D03*
X363500Y407500D02*
D03*
X384852Y368033D02*
D03*
X391471Y367977D02*
D03*
X353462Y371779D02*
D03*
X341500Y364000D02*
D03*
X347000Y309000D02*
D03*
X382879Y279185D02*
D03*
X463303Y314803D02*
D03*
X366669Y317300D02*
D03*
X366500Y322100D02*
D03*
X347863Y324396D02*
D03*
X347000Y329500D02*
D03*
Y339500D02*
D03*
X347500Y333500D02*
D03*
X347881Y373421D02*
D03*
X354000Y362000D02*
D03*
X391118Y406222D02*
D03*
X421000Y232000D02*
D03*
X400500Y252500D02*
D03*
X345000Y306500D02*
D03*
X395452Y252696D02*
D03*
X347500Y320500D02*
D03*
X351381Y395336D02*
D03*
X292500Y380000D02*
D03*
X259500Y215500D02*
D03*
X256500Y214000D02*
D03*
X307000Y253000D02*
D03*
X278013Y243227D02*
D03*
X291000Y339500D02*
D03*
X256464Y225857D02*
D03*
X266000Y231000D02*
D03*
X261521Y226792D02*
D03*
X287000Y222500D02*
D03*
X296500Y229500D02*
D03*
X291000Y239000D02*
D03*
X362000Y317042D02*
D03*
D81*
X270000Y428500D02*
D03*
X349000Y433000D02*
D03*
D82*
X271335Y221665D02*
D03*
Y217335D02*
D03*
X275665D02*
D03*
Y221665D02*
D03*
M02*
