G04*
G04 #@! TF.GenerationSoftware,Altium Limited,Altium Designer,23.6.0 (18)*
G04*
G04 Layer_Color=16711935*
%FSLAX25Y25*%
%MOIN*%
G70*
G04*
G04 #@! TF.SameCoordinates,CC12AEB3-2111-4EF4-9384-BB861815B030*
G04*
G04*
G04 #@! TF.FilePolarity,Positive*
G04*
G01*
G75*
%ADD17C,0.00787*%
%ADD98C,0.00000*%
%ADD99C,0.00100*%
%ADD100C,0.00394*%
D17*
X355224Y381197D02*
Y410803D01*
X395776D01*
Y381197D02*
Y410803D01*
X355224Y381197D02*
X395776D01*
X254695Y391900D02*
X280305D01*
X254695Y378100D02*
Y391900D01*
Y378100D02*
X280305D01*
Y391900D01*
X194252Y361055D02*
X205748D01*
X194252Y342945D02*
Y361055D01*
Y342945D02*
X205748D01*
Y361055D01*
X223441Y311653D02*
Y318347D01*
Y311653D02*
X228559D01*
Y318347D01*
X223441D02*
X228559D01*
X181882Y334653D02*
X212118D01*
X181882Y296346D02*
Y334653D01*
Y296346D02*
X212118D01*
Y334653D01*
X387850Y323996D02*
X394150D01*
X387850Y311004D02*
Y323996D01*
Y311004D02*
X394150D01*
Y323996D01*
X400193Y284185D02*
Y294815D01*
X386807D02*
X400193D01*
X386807Y284185D02*
Y294815D01*
Y284185D02*
X400193D01*
X212055Y372630D02*
Y376370D01*
Y372630D02*
X218945D01*
Y376370D01*
X212055D02*
X218945D01*
X267929Y410252D02*
Y421748D01*
X249819D02*
X267929D01*
X249819Y410252D02*
Y421748D01*
Y410252D02*
X267929D01*
D98*
X349588Y308736D02*
G03*
X349588Y308736I-300J0D01*
G01*
D99*
X351200Y303800D02*
Y343200D01*
X311800Y303800D02*
X351200D01*
X311800D02*
Y343200D01*
X351200D01*
X346200Y303800D02*
X351200Y308800D01*
D100*
X281374Y211626D02*
Y227374D01*
X265626D02*
X281374D01*
X265626Y211626D02*
Y227374D01*
Y211626D02*
X281374D01*
X213366Y343843D02*
X221634D01*
X213366Y349158D02*
X221634D01*
Y343843D02*
Y349158D01*
X213366Y343843D02*
Y349158D01*
X222689Y240689D02*
X246311D01*
X222689Y264311D02*
X246311D01*
Y240689D02*
Y264311D01*
X222689Y240689D02*
Y264311D01*
X318008Y417626D02*
X343992D01*
X318008Y442035D02*
X343992D01*
X318008Y417626D02*
Y442035D01*
X343992Y417626D02*
Y442035D01*
X239543Y408783D02*
Y444216D01*
X182457Y408783D02*
X239543D01*
X182457D02*
Y444216D01*
X239543D01*
X330000Y180000D02*
Y202520D01*
Y180000D02*
X370000D01*
Y202520D01*
X330000D02*
X370000D01*
X436689Y328811D02*
X460311D01*
X436689Y305189D02*
X460311D01*
X436689D02*
Y328811D01*
X460311Y305189D02*
Y328811D01*
X275500Y343342D02*
Y348657D01*
X267232Y343342D02*
Y348657D01*
Y343342D02*
X275500D01*
X267232Y348657D02*
X275500D01*
M02*
