G04*
G04 #@! TF.GenerationSoftware,Altium Limited,Altium Designer,23.6.0 (18)*
G04*
G04 Layer_Color=128*
%FSLAX25Y25*%
%MOIN*%
G70*
G04*
G04 #@! TF.SameCoordinates,CC12AEB3-2111-4EF4-9384-BB861815B030*
G04*
G04*
G04 #@! TF.FilePolarity,Positive*
G04*
G01*
G75*
%ADD11C,0.00500*%
D11*
X239000Y183909D02*
X243000D01*
X241000Y181909D02*
Y185909D01*
X259000Y183909D02*
X263000D01*
X261000Y181909D02*
Y185909D01*
X249000Y183909D02*
X253000D01*
X251000Y181909D02*
Y185909D01*
X229000Y183909D02*
X233000D01*
X231000Y181909D02*
Y185909D01*
X219000Y183909D02*
X223000D01*
X221000Y181909D02*
Y185909D01*
X209000Y183909D02*
X213000D01*
X211000Y181909D02*
Y185909D01*
X199000Y183909D02*
X203000D01*
X201000Y181909D02*
Y185909D01*
X189000Y183909D02*
X193000D01*
X191000Y181909D02*
Y185909D01*
X184949Y203437D02*
X197547D01*
X191248Y197138D02*
Y209736D01*
X183500Y272500D02*
X187500D01*
X185500Y270500D02*
Y274500D01*
X183500Y252500D02*
X187500D01*
X185500Y250500D02*
Y254500D01*
X183500Y242500D02*
X187500D01*
X185500Y240500D02*
Y244500D01*
X183500Y262500D02*
X187500D01*
X185500Y260500D02*
Y264500D01*
X357000Y439500D02*
X361000D01*
X359000Y437500D02*
Y441500D01*
X367000Y439500D02*
X371000D01*
X369000Y437500D02*
Y441500D01*
X377000Y439500D02*
X381000D01*
X379000Y437500D02*
Y441500D01*
X387000Y439500D02*
X391000D01*
X389000Y437500D02*
Y441500D01*
X397000Y439500D02*
X401000D01*
X399000Y437500D02*
Y441500D01*
X417000Y439500D02*
X421000D01*
X419000Y437500D02*
Y441500D01*
X427000Y439500D02*
X431000D01*
X429000Y437500D02*
Y441500D01*
X407000Y439500D02*
X411000D01*
X409000Y437500D02*
Y441500D01*
X183500Y220000D02*
X187500D01*
X185500Y218000D02*
Y222000D01*
X183500Y230000D02*
X187500D01*
X185500Y228000D02*
Y232000D01*
X219736Y261358D02*
X223673D01*
X221705Y259390D02*
Y263327D01*
X245327Y261358D02*
X249264D01*
X247295Y259390D02*
Y263327D01*
X245327Y243642D02*
X249264D01*
X247295Y241673D02*
Y245610D01*
X219736Y243642D02*
X223673D01*
X221705Y241673D02*
Y245610D01*
X205622Y304122D02*
X208181D01*
X206902Y302842D02*
Y305402D01*
X205622Y326878D02*
X208181D01*
X206902Y325598D02*
Y328157D01*
X205524Y298492D02*
X212216D01*
X208870Y295146D02*
Y301839D01*
X205524Y332508D02*
X212216D01*
X208870Y329161D02*
Y335854D01*
X189657Y298492D02*
X195169D01*
X192413Y295736D02*
Y301248D01*
X189657Y332508D02*
X195169D01*
X192413Y329752D02*
Y335264D01*
X222614Y407602D02*
X225764D01*
X224189Y406028D02*
Y409177D01*
X211591Y426500D02*
X214740D01*
X213165Y424925D02*
Y428075D01*
X234425Y426500D02*
X237575D01*
X236000Y424925D02*
Y428075D01*
X332500Y190000D02*
X337500D01*
X335000Y187500D02*
Y192500D01*
X342500Y190000D02*
X347500D01*
X345000Y187500D02*
Y192500D01*
X352500Y190000D02*
X357500D01*
X355000Y187500D02*
Y192500D01*
X362500Y190000D02*
X367500D01*
X365000Y187500D02*
Y192500D01*
X449000Y439500D02*
X453000D01*
X451000Y437500D02*
Y441500D01*
X469000Y439500D02*
X473000D01*
X471000Y437500D02*
Y441500D01*
X479000Y439500D02*
X483000D01*
X481000Y437500D02*
Y441500D01*
X459000Y439500D02*
X463000D01*
X461000Y437500D02*
Y441500D01*
X261000Y285500D02*
X265000D01*
X263000Y283500D02*
Y287500D01*
X241000Y285500D02*
X245000D01*
X243000Y283500D02*
Y287500D01*
X251000Y285500D02*
X255000D01*
X253000Y283500D02*
Y287500D01*
X251000Y295500D02*
X255000D01*
X253000Y293500D02*
Y297500D01*
X241000Y295500D02*
X245000D01*
X243000Y293500D02*
Y297500D01*
X261000Y295500D02*
X265000D01*
X263000Y293500D02*
Y297500D01*
X301500Y183909D02*
X305500D01*
X303500Y181910D02*
Y185909D01*
X281500Y183909D02*
X285500D01*
X283500Y181910D02*
Y185909D01*
X271500Y183909D02*
X275500D01*
X273500Y181909D02*
Y185909D01*
X291500Y183909D02*
X295500D01*
X293500Y181910D02*
Y185909D01*
X459327Y308142D02*
X463264D01*
X461295Y306173D02*
Y310110D01*
X433736Y308142D02*
X437673D01*
X435705Y306173D02*
Y310110D01*
X433736Y325858D02*
X437673D01*
X435705Y323890D02*
Y327827D01*
X459327Y325858D02*
X463264D01*
X461295Y323890D02*
Y327827D01*
X488303Y332000D02*
X492303D01*
X490303Y330000D02*
Y334000D01*
X488303Y322000D02*
X492303D01*
X490303Y320000D02*
Y324000D01*
X488303Y312000D02*
X492303D01*
X490303Y310000D02*
Y314000D01*
X488303Y302000D02*
X492303D01*
X490303Y300000D02*
Y304000D01*
X488303Y292000D02*
X492303D01*
X490303Y290000D02*
Y294000D01*
X488303Y272000D02*
X492303D01*
X490303Y270000D02*
Y274000D01*
X488303Y262000D02*
X492303D01*
X490303Y260000D02*
Y264000D01*
X488303Y282000D02*
X492303D01*
X490303Y280000D02*
Y284000D01*
X488303Y249000D02*
X492303D01*
X490303Y247000D02*
Y251000D01*
X488303Y239000D02*
X492303D01*
X490303Y237000D02*
Y241000D01*
X488303Y229000D02*
X492303D01*
X490303Y227000D02*
Y231000D01*
X488303Y219000D02*
X492303D01*
X490303Y217000D02*
Y221000D01*
X488303Y199000D02*
X492303D01*
X490303Y197000D02*
Y201000D01*
X488303Y189000D02*
X492303D01*
X490303Y187000D02*
Y191000D01*
X488303Y209000D02*
X492303D01*
X490303Y207000D02*
Y211000D01*
X385500Y183909D02*
X389500D01*
X387500Y181909D02*
Y185909D01*
X395500Y183909D02*
X399500D01*
X397500Y181909D02*
Y185909D01*
X405500Y183909D02*
X409500D01*
X407500Y181909D02*
Y185909D01*
X415500Y183909D02*
X419500D01*
X417500Y181909D02*
Y185909D01*
X425500Y183909D02*
X429500D01*
X427500Y181909D02*
Y185909D01*
X445500Y183909D02*
X449500D01*
X447500Y181909D02*
Y185909D01*
X455500Y183909D02*
X459500D01*
X457500Y181909D02*
Y185909D01*
X435500Y183909D02*
X439500D01*
X437500Y181909D02*
Y185909D01*
X488303Y345000D02*
X492303D01*
X490303Y343000D02*
Y347000D01*
X488303Y355000D02*
X492303D01*
X490303Y353000D02*
Y357000D01*
X488303Y365000D02*
X492303D01*
X490303Y363000D02*
Y367000D01*
X488303Y375000D02*
X492303D01*
X490303Y373000D02*
Y377000D01*
X488303Y385000D02*
X492303D01*
X490303Y383000D02*
Y387000D01*
X488303Y405000D02*
X492303D01*
X490303Y403000D02*
Y407000D01*
X488303Y415000D02*
X492303D01*
X490303Y413000D02*
Y417000D01*
X488303Y395000D02*
X492303D01*
X490303Y393000D02*
Y397000D01*
X460539Y203437D02*
X473138D01*
X466839Y197138D02*
Y209736D01*
X184949Y392413D02*
X197547D01*
X191248Y386114D02*
Y398713D01*
X460539Y392413D02*
X473138D01*
X466839Y386114D02*
Y398713D01*
X449500Y328500D02*
X450500D01*
X450000Y328000D02*
Y329000D01*
X377000Y327500D02*
X378000D01*
X377500Y327000D02*
Y328000D01*
X269000Y428500D02*
X271000D01*
X270000Y427500D02*
Y429500D01*
X322500Y292500D02*
X323500D01*
X323000Y292000D02*
Y293000D01*
X354000Y351500D02*
X355000D01*
X354500Y351000D02*
Y352000D01*
X351385Y355673D02*
X352385D01*
X351885Y355173D02*
Y356173D01*
X330500Y339145D02*
X331500D01*
X331000Y338645D02*
Y339645D01*
X314500Y333895D02*
X315500D01*
X315000Y333395D02*
Y334395D01*
X455000Y330898D02*
X456000D01*
X455500Y330398D02*
Y331398D01*
X442264Y353183D02*
X443264D01*
X442764Y352683D02*
Y353683D01*
X375500Y334000D02*
X376500D01*
X376000Y333500D02*
Y334500D01*
X373500Y341400D02*
X374500D01*
X374000Y340900D02*
Y341900D01*
X327500Y360000D02*
X328500D01*
X328000Y359500D02*
Y360500D01*
X342500Y369500D02*
X343500D01*
X343000Y369000D02*
Y370000D01*
X336805Y246633D02*
X337805D01*
X337304Y246133D02*
Y247133D01*
X297197Y235303D02*
X298197D01*
X297697Y234803D02*
Y235803D01*
X283200Y341966D02*
X284200D01*
X283699Y341466D02*
Y342466D01*
X367000Y307005D02*
X368000D01*
X367500Y306505D02*
Y307505D01*
X450032Y237000D02*
X453968D01*
X452000Y235032D02*
Y238968D01*
X266032Y307000D02*
X269969D01*
X268000Y305031D02*
Y308968D01*
X433032Y392500D02*
X436969D01*
X435000Y390531D02*
Y394468D01*
X215032Y396500D02*
X218969D01*
X217000Y394531D02*
Y398468D01*
X445031Y314000D02*
X448969D01*
X447000Y312032D02*
Y315968D01*
X264000Y268500D02*
X265000D01*
X264500Y268000D02*
Y269000D01*
X270941Y221665D02*
X271728D01*
X271335Y221272D02*
Y222059D01*
X270941Y217335D02*
X271728D01*
X271335Y216941D02*
Y217728D01*
X275272Y217335D02*
X276059D01*
X275665Y216941D02*
Y217728D01*
X275272Y221665D02*
X276059D01*
X275665Y221272D02*
Y222059D01*
X293000Y309000D02*
X294000D01*
X293500Y308500D02*
Y309500D01*
X288500Y306000D02*
X289500D01*
X289000Y305500D02*
Y306500D01*
X218500Y315000D02*
X219500D01*
X219000Y314500D02*
Y315500D01*
X306000Y304000D02*
X307000D01*
X306500Y303500D02*
Y304500D01*
X333500Y338000D02*
X334500D01*
X334000Y337500D02*
Y338500D01*
X281000Y254500D02*
X282000D01*
X281500Y254000D02*
Y255000D01*
X285000Y258500D02*
X286000D01*
X285500Y258000D02*
Y259000D01*
X300500Y280500D02*
X301500D01*
X301000Y280000D02*
Y281000D01*
X310314Y294185D02*
X311315D01*
X310814Y293686D02*
Y294686D01*
X313000Y296500D02*
X314000D01*
X313500Y296000D02*
Y297000D01*
X294000Y279500D02*
X295000D01*
X294500Y279000D02*
Y280000D01*
Y286000D02*
X295500D01*
X295000Y285500D02*
Y286500D01*
X225000Y366500D02*
X226000D01*
X225500Y366000D02*
Y367000D01*
X223500Y326000D02*
X224500D01*
X224000Y325500D02*
Y326500D01*
X363000Y307005D02*
X364000D01*
X363500Y306505D02*
Y307505D01*
X303500Y341500D02*
X304500D01*
X304000Y341000D02*
Y342000D01*
X335964Y305964D02*
X336965D01*
X336465Y305465D02*
Y306465D01*
X339828Y305300D02*
X340828D01*
X340328Y304800D02*
Y305800D01*
X331703Y306674D02*
X332703D01*
X332203Y306174D02*
Y307174D01*
X320500Y290000D02*
X321500D01*
X321000Y289500D02*
Y290500D01*
X316000Y326000D02*
X317000D01*
X316500Y325500D02*
Y326500D01*
X337500Y323500D02*
X338500D01*
X338000Y323000D02*
Y324000D01*
X282000Y320500D02*
X283000D01*
X282500Y320000D02*
Y321000D01*
X338500Y284000D02*
X339500D01*
X339000Y283500D02*
Y284500D01*
X364500Y341900D02*
X365500D01*
X365000Y341400D02*
Y342400D01*
X281000Y192000D02*
X282000D01*
X281500Y191500D02*
Y192500D01*
X313000Y282500D02*
X314000D01*
X313500Y282000D02*
Y283000D01*
X315718Y311812D02*
X316718D01*
X316218Y311312D02*
Y312312D01*
X319097Y308403D02*
X320097D01*
X319597Y307903D02*
Y308903D01*
X314000Y316500D02*
X315000D01*
X314500Y316000D02*
Y317000D01*
X328000Y316000D02*
X329000D01*
X328500Y315500D02*
Y316500D01*
X325000Y313500D02*
X326000D01*
X325500Y313000D02*
Y314000D01*
X313912Y329442D02*
X314912D01*
X314412Y328942D02*
Y329942D01*
X314500Y323000D02*
X315500D01*
X315000Y322500D02*
Y323500D01*
X222500Y213000D02*
X223500D01*
X223000Y212500D02*
Y213500D01*
X206500Y254000D02*
X207500D01*
X207000Y253500D02*
Y254500D01*
X221500Y204000D02*
X222500D01*
X222000Y203500D02*
Y204500D01*
X279013Y302766D02*
X280013D01*
X279513Y302266D02*
Y303266D01*
X275500Y309500D02*
X276500D01*
X276000Y309000D02*
Y310000D01*
X277000Y320500D02*
X278000D01*
X277500Y320000D02*
Y321000D01*
X285500Y327000D02*
X286500D01*
X286000Y326500D02*
Y327500D01*
X281500Y195500D02*
X282500D01*
X282000Y195000D02*
Y196000D01*
X363000Y324900D02*
X364000D01*
X363500Y324400D02*
Y325400D01*
X365000Y333600D02*
X366000D01*
X365500Y333100D02*
Y334100D01*
X369500Y333600D02*
X370500D01*
X370000Y333100D02*
Y334100D01*
X451500Y349500D02*
X452500D01*
X452000Y349000D02*
Y350000D01*
X481000Y342000D02*
X482000D01*
X481500Y341500D02*
Y342500D01*
X345000Y261500D02*
X346000D01*
X345500Y261000D02*
Y262000D01*
X336500Y267500D02*
X337500D01*
X337000Y267000D02*
Y268000D01*
X333000Y251500D02*
X334000D01*
X333500Y251000D02*
Y252000D01*
X332500Y221000D02*
X333500D01*
X333000Y220500D02*
Y221500D01*
X326000Y181000D02*
X327000D01*
X326500Y180500D02*
Y181500D01*
X329000Y177000D02*
X330000D01*
X329500Y176500D02*
Y177500D01*
X337549Y221819D02*
X338549D01*
X338049Y221319D02*
Y222319D01*
X454000Y213000D02*
X455000D01*
X454500Y212500D02*
Y213500D01*
X446462Y223746D02*
X447462D01*
X446962Y223246D02*
Y224246D01*
X433500Y236000D02*
X434500D01*
X434000Y235500D02*
Y236500D01*
X417500Y252000D02*
X418500D01*
X418000Y251500D02*
Y252500D01*
X348359Y315543D02*
X349359D01*
X348859Y315043D02*
Y316043D01*
X339000Y327500D02*
X340000D01*
X339500Y327000D02*
Y328000D01*
X344000Y315500D02*
X345000D01*
X344500Y315000D02*
Y316000D01*
X437000Y223500D02*
X438000D01*
X437500Y223000D02*
Y224000D01*
X430501Y232735D02*
X431501D01*
X431001Y232235D02*
Y233235D01*
X410718Y252792D02*
X411718D01*
X411218Y252292D02*
Y253292D01*
X214000Y208000D02*
X215000D01*
X214500Y207500D02*
Y208500D01*
X196500Y283500D02*
X197500D01*
X197000Y283000D02*
Y284000D01*
X242608Y330905D02*
X243608D01*
X243109Y330405D02*
Y331405D01*
X200000Y286000D02*
X201000D01*
X200500Y285500D02*
Y286500D01*
X291000Y291000D02*
X292000D01*
X291500Y290500D02*
Y291500D01*
X285197Y323303D02*
X286197D01*
X285697Y322803D02*
Y323803D01*
X287000Y311000D02*
X288000D01*
X287500Y310500D02*
Y311500D01*
X366500Y266000D02*
X367500D01*
X367000Y265500D02*
Y266500D01*
X420000Y197500D02*
X421000D01*
X420500Y197000D02*
Y198000D01*
X441500Y195000D02*
X442500D01*
X442000Y194500D02*
Y195500D01*
X388023Y254672D02*
X389023D01*
X388523Y254172D02*
Y255172D01*
X390000Y202000D02*
X391000D01*
X390500Y201500D02*
Y202500D01*
X344393Y267060D02*
X345393D01*
X344893Y266560D02*
Y267560D01*
X345000Y288000D02*
X346000D01*
X345500Y287500D02*
Y288500D01*
X349000Y280000D02*
X350000D01*
X349500Y279500D02*
Y280500D01*
X387000Y234500D02*
X388000D01*
X387500Y234000D02*
Y235000D01*
X393000Y197500D02*
X394000D01*
X393500Y197000D02*
Y198000D01*
X322997Y296022D02*
X323997D01*
X323497Y295522D02*
Y296522D01*
X248500Y237500D02*
X249500D01*
X249000Y237000D02*
Y238000D01*
X359000Y398500D02*
X360000D01*
X359500Y398000D02*
Y399000D01*
X323000Y354500D02*
X324000D01*
X323500Y354000D02*
Y355000D01*
X363000Y407500D02*
X364000D01*
X363500Y407000D02*
Y408000D01*
X384352Y368033D02*
X385352D01*
X384852Y367533D02*
Y368533D01*
X390971Y367977D02*
X391971D01*
X391471Y367477D02*
Y368477D01*
X352962Y371779D02*
X353962D01*
X353462Y371279D02*
Y372279D01*
X341000Y364000D02*
X342000D01*
X341500Y363500D02*
Y364500D01*
X346500Y309000D02*
X347500D01*
X347000Y308500D02*
Y309500D01*
X382379Y279185D02*
X383379D01*
X382879Y278685D02*
Y279685D01*
X462803Y314803D02*
X463803D01*
X463303Y314303D02*
Y315303D01*
X366169Y317300D02*
X367169D01*
X366669Y316800D02*
Y317800D01*
X366000Y322100D02*
X367000D01*
X366500Y321600D02*
Y322600D01*
X347363Y324396D02*
X348363D01*
X347863Y323896D02*
Y324896D01*
X346500Y329500D02*
X347500D01*
X347000Y329000D02*
Y330000D01*
X346500Y339500D02*
X347500D01*
X347000Y339000D02*
Y340000D01*
Y333500D02*
X348000D01*
X347500Y333000D02*
Y334000D01*
X347381Y373421D02*
X348381D01*
X347881Y372921D02*
Y373921D01*
X353500Y362000D02*
X354500D01*
X354000Y361500D02*
Y362500D01*
X390618Y406222D02*
X391618D01*
X391118Y405722D02*
Y406722D01*
X420500Y232000D02*
X421500D01*
X421000Y231500D02*
Y232500D01*
X400000Y252500D02*
X401000D01*
X400500Y252000D02*
Y253000D01*
X344500Y306500D02*
X345500D01*
X345000Y306000D02*
Y307000D01*
X394952Y252696D02*
X395952D01*
X395452Y252196D02*
Y253196D01*
X347000Y320500D02*
X348000D01*
X347500Y320000D02*
Y321000D01*
X350881Y395336D02*
X351881D01*
X351381Y394836D02*
Y395836D01*
X292000Y380000D02*
X293000D01*
X292500Y379500D02*
Y380500D01*
X259000Y215500D02*
X260000D01*
X259500Y215000D02*
Y216000D01*
X256000Y214000D02*
X257000D01*
X256500Y213500D02*
Y214500D01*
X306500Y253000D02*
X307500D01*
X307000Y252500D02*
Y253500D01*
X277514Y243227D02*
X278514D01*
X278013Y242727D02*
Y243727D01*
X290500Y339500D02*
X291500D01*
X291000Y339000D02*
Y340000D01*
X255964Y225857D02*
X256964D01*
X256464Y225357D02*
Y226357D01*
X265500Y231000D02*
X266500D01*
X266000Y230500D02*
Y231500D01*
X261021Y226792D02*
X262021D01*
X261521Y226292D02*
Y227292D01*
X286500Y222500D02*
X287500D01*
X287000Y222000D02*
Y223000D01*
X296000Y229500D02*
X297000D01*
X296500Y229000D02*
Y230000D01*
X290500Y239000D02*
X291500D01*
X291000Y238500D02*
Y239500D01*
X348000Y433000D02*
X350000D01*
X349000Y432000D02*
Y434000D01*
X361500Y317042D02*
X362500D01*
X362000Y316542D02*
Y317542D01*
M02*
