M48
;Layer_Color=9474304
;FILE_FORMAT=2:4
INCH,TZ
;TYPE=PLATED
T1F00S00C0.0079
T2F00S00C0.0100
T3F00S00C0.0200
T6F00S00C0.0394
T7F00S00C0.0400
T8F00S00C0.0500
T9F00S00C0.1260
;TYPE=NON_PLATED
T10F00S00C0.0256
%
T01
X27133Y21733
Y22167
X27567
Y21733
T02
X32950Y17700
X32650Y18100
X33300Y22100
X33805Y22182
X33730Y24663
X33350Y25150
X33700Y26750
X34489Y26706
X34550Y26150
X34950Y28000
X34550Y28800
X33900Y28400
X34033Y30530
X33646Y30596
X33220Y30667
X34500Y30650
X34700Y30900
X36350Y30700
X36750
X36700Y26600
X38288Y27918
X38852Y25467
X39545Y25270
X40050Y25250
X41122Y25279
X41800Y25200
X42100Y23200
X43100Y23274
X43400Y23600
X43750Y22350
X44696Y22375
X45450Y21300
X44200Y19500
X42050Y19750
X39350
X39050Y20200
X38750Y23450
X32100Y29000
X32300Y29250
X32350Y29602
X31350Y29650
Y28250
X31960Y30840
X31622Y31181
X30650Y30400
X31081Y29419
X29150Y29100
X29500Y28600
X29450Y27950
X30100Y28050
X30700Y25300
X28150Y25450
X28550Y25850
X27801Y24323
X29100Y23900
X29770Y23530
X29650Y22950
X28700Y22250
X26600Y23100
X26152Y22679
X25646Y22586
X25650Y21400
X25950Y21550
X24900Y23750
X26450Y26850
X27951Y30277
X27600Y30950
X28750Y31100
X28900Y30600
X29350Y30900
X20050Y28600
X19700Y28350
X20700Y25400
X21450Y20800
X22200Y20400
X22300Y21300
X28200Y19550
X28150Y19200
X28250Y32050
X27750
X28570Y32330
X28600Y32700
X28370Y34197
X29100Y33950
X30400Y34150
X29250Y38000
X22550Y36650
X22400Y32600
X21900Y31500
X24311Y33091
X31441Y32944
X31500Y33390
X31650Y32600
X31500Y32300
X31450Y31650
X32550Y31350
X32850Y31600
X34450Y31550
X34886Y31554
X34750Y32050
X34786Y32440
X34700Y32950
X34750Y33350
X34700Y33950
X33400Y33800
X33100Y33915
X33950Y32750
X33800Y32350
X36350Y32490
X36650Y32210
X36667Y31730
X36200Y31704
X36550Y33360
X37000
X37600Y33400
X37750Y32750
X37400Y34140
X36500Y34190
X35450Y35150
X35188Y35567
X35400Y36200
X35346Y37178
X34788Y37342
X34300Y36950
X34150Y36400
X32800Y36000
X32350Y35450
X35138Y39534
X35950Y39850
X36350Y40750
X39112Y40622
X39147Y36798
X38485Y36803
X44276Y35318
X45200Y34950
X45550Y33090
X45000Y32850
X46330Y31480
X48150Y34200
T03
X27000Y42850
X34900Y43300
T06
X45200Y23700
X46130Y30814
X43570
X26800Y30700
X24730Y26136
Y24364
X22170
Y26136
X21700Y39650
X43500Y39250
X43570Y32586
X44700Y31400
X46130Y32586
T07
X49030Y18900
X49030Y19900
X49030Y20900
X49030Y21900
X49030Y22900
X49030Y23900
X49030Y24900
X49030Y26200
X49030Y27200
X49030Y28200
X49030Y29200
X49030Y30200
X49030Y31200
X45750Y18391
X44750Y18391
X43750Y18391
X42750Y18391
X41750Y18391
X40750Y18391
X39750Y18391
X38750Y18391
X30350Y18391
X29350Y18391
X28350Y18391
X27350Y18391
X26100
X25100Y18391
X24100Y18391
X23100Y18391
X22100Y18391
X21100Y18391
X20100Y18391
X19100Y18391
X18550Y22000
X18550Y23000
X18550Y24250
X18550Y25250
X18550Y26250
X18550Y27250
X24300Y28550
Y29550
X25300Y29550
Y28550
X26300Y28550
Y29550
X35900Y43950
X36900Y43950
X37900Y43950
X38900Y43950
X39900Y43950
X40900Y43950
X41900Y43950
X42900Y43950
X45100Y43950
X46100Y43950
X47100Y43950
X48100Y43950
X49030Y41500
X49030Y40500
X49030Y39500
X49030Y38500
X49030Y37500
X49030Y36500
X49030Y35500
X49030Y34500
X49030Y33200
X49030Y32200
T08
X33500Y19000
X34500
X35500
X36500
T09
X46684Y20344
X19125
Y39241
X46684
T10
X20690Y30412
Y32688
M30
